{
classes = (
{
automatic = 1;
code = "A B C D E F G H I J K L M N O P Q R S T U V W X Y Z";
name = Uppercase;
}
);
copyright = "Copyright \U00A9 2015 by Kosal Sen, Philatype. All rights reserved.";
date = "2015-07-09 03:36:35 +0000";
designer = "Kosal Sen, Philatype";
designerURL = "http://www.philatype.com";
familyName = "Sen";
featurePrefixes = (
{
automatic = 1;
code = "languagesystem DFLT dflt;\012languagesystem latn dflt;\012";
name = Languagesystems;
}
);
features = (
{
code = "sub t t by tt;";
name = liga;
},
{
automatic = 1;
code = "pos @Uppercase <5 0 10 0>;\012";
name = cpsp;
}
);
fontMaster = (
{
alignmentZones = (
"{720, 16}",
"{670, 16}",
"{500, 11}",
"{0, -15}",
"{-240, -46}"
);
ascender = 720;
capHeight = 670;
descender = -240;
horizontalStems = (
80,
85,
88
);
id = "DEFEBCF2-9FF2-4B76-ADC8-AB6BD79F23E7";
userData = {
GSOffsetHorizontal = 51;
GSOffsetMakeStroke = 1;
GSOffsetVertical = 44;
};
verticalStems = (
82,
85,
90,
92
);
weightValue = 400;
xHeight = 500;
},
{
alignmentZones = (
"{720, 16}",
"{670, 16}",
"{510, 16}",
"{0, -15}",
"{-240, -46}"
);
ascender = 720;
capHeight = 670;
descender = -240;
horizontalStems = (
165,
168,
175,
187
);
id = "2D992F1A-8218-4049-8E15-5955C72037C9";
userData = {
GSOffsetHorizontal = 25;
GSOffsetVertical = 25;
};
verticalStems = (
172,
185,
187,
192
);
weight = Bold;
weightValue = 900;
xHeight = 510;
}
);
glyphs = (
{
glyphname = A;
lastChange = "2015-06-24 12:55:13 +0000";
layers = (
{
anchors = (
{
name = ogonek;
position = "{667, 10}";
},
{
name = top;
position = "{346, 670}";
}
);
layerId = "DEFEBCF2-9FF2-4B76-ADC8-AB6BD79F23E7";
name = Regular;
paths = (
{
closed = 1;
nodes = (
"323 670 LINE",
"10 0 LINE",
"118 0 LINE",
"347 518 LINE",
"573 0 LINE",
"681 0 LINE",
"368 670 LINE"
);
},
{
closed = 1;
nodes = (
"167 245 LINE",
"167 160 LINE",
"538 160 LINE",
"538 245 LINE"
);
}
);
width = 691;
},
{
anchors = (
{
name = ogonek;
position = "{654, 10}";
},
{
name = top;
position = "{365, 670}";
}
);
layerId = "2D992F1A-8218-4049-8E15-5955C72037C9";
leftMetricsKey = "=V";
rightMetricsKey = "=V";
name = Bold;
paths = (
{
closed = 1;
nodes = (
"320 680 LINE",
"10 0 LINE",
"228 0 LINE",
"367 378 LINE",
"506 0 LINE",
"724 0 LINE",
"414 680 LINE"
);
},
{
closed = 1;
nodes = (
"167 240 LINE",
"167 90 LINE",
"548 90 LINE",
"548 240 LINE"
);
}
);
width = 734;
}
);
leftMetricsKey = "=V";
rightMetricsKey = "=V";
unicode = 0041;
},
{
glyphname = AE;
lastChange = "2015-07-09 03:01:27 +0000";
layers = (
{
anchors = (
{
name = ogonek;
position = "{334, 10}";
},
{
name = top;
position = "{63, 670}";
}
);
components = (
{
name = E;
transform = "{1, 0, 0, 1, 433, 0}";
}
);
layerId = "DEFEBCF2-9FF2-4B76-ADC8-AB6BD79F23E7";
rightMetricsKey = "=E";
name = Regular;
paths = (
{
closed = 1;
nodes = (
"503 670 LINE",
"10 0 LINE",
"128 0 LINE",
"532 568 LINE",
"554 670 LINE"
);
},
{
closed = 1;
nodes = (
"247 270 LINE",
"247 193 LINE",
"568 193 LINE",
"568 270 LINE"
);
}
);
width = 1082;
},
{
anchors = (
{
name = ogonek;
position = "{354, 10}";
},
{
name = top;
position = "{83, 670}";
}
);
components = (
{
name = E;
transform = "{1, 0, 0, 1, 423, 0}";
}
);
layerId = "2D992F1A-8218-4049-8E15-5955C72037C9";
leftMetricsKey = "=V";
name = Bold;
paths = (
{
closed = 1;
nodes = (
"483 670 LINE",
"10 0 LINE",
"198 0 LINE",
"552 508 LINE",
"574 670 LINE"
);
},
{
closed = 1;
nodes = (
"267 270 LINE",
"267 133 LINE",
"588 133 LINE",
"588 270 LINE"
);
}
);
width = 1081;
}
);
leftMetricsKey = "=V";
rightMetricsKey = "=E";
unicode = 00C6;
},
{
glyphname = B;
lastChange = "2015-07-09 03:01:27 +0000";
layers = (
{
layerId = "DEFEBCF2-9FF2-4B76-ADC8-AB6BD79F23E7";
leftMetricsKey = "=L";
rightMetricsKey = "=L";
name = Regular;
paths = (
{
closed = 1;
nodes = (
"110 670 LINE",
"110 15 LINE",
"173 1 OFFCURVE",
"271 -10 OFFCURVE",
"354 -10 CURVE SMOOTH",
"516 -10 OFFCURVE",
"621 77 OFFCURVE",
"621 189 CURVE SMOOTH",
"621 286 OFFCURVE",
"550 332 OFFCURVE",
"491 344 CURVE",
"560 370 OFFCURVE",
"589 434 OFFCURVE",
"589 489 CURVE SMOOTH",
"589 598 OFFCURVE",
"497 670 OFFCURVE",
"378 670 CURVE SMOOTH"
);
},
{
closed = 1;
nodes = (
"441 585 OFFCURVE",
"497 550 OFFCURVE",
"497 479 CURVE SMOOTH",
"497 418 OFFCURVE",
"441 375 OFFCURVE",
"357 375 CURVE SMOOTH",
"184 375 LINE",
"184 295 LINE",
"359 295 LINE SMOOTH",
"452 295 OFFCURVE",
"529 262 OFFCURVE",
"529 189 CURVE SMOOTH",
"529 119 OFFCURVE",
"452 75 OFFCURVE",
"352 75 CURVE SMOOTH",
"315 75 OFFCURVE",
"248 78 OFFCURVE",
"200 87 CURVE",
"200 585 LINE",
"357 585 LINE SMOOTH"
);
}
);
width = 688;
},
{
layerId = "2D992F1A-8218-4049-8E15-5955C72037C9";
leftMetricsKey = "=L";
name = Bold;
paths = (
{
closed = 1;
nodes = (
"90 670 LINE",
"90 15 LINE",
"153 1 OFFCURVE",
"292 -15 OFFCURVE",
"385 -15 CURVE SMOOTH",
"547 -15 OFFCURVE",
"666 77 OFFCURVE",
"666 189 CURVE SMOOTH",
"666 286 OFFCURVE",
"608 322 OFFCURVE",
"546 344 CURVE",
"602 370 OFFCURVE",
"634 413 OFFCURVE",
"634 481 CURVE SMOOTH",
"634 597 OFFCURVE",
"521 670 OFFCURVE",
"409 670 CURVE SMOOTH"
);
},
{
closed = 1;
nodes = (
"416 505 OFFCURVE",
"452 484 OFFCURVE",
"452 448 CURVE SMOOTH",
"452 412 OFFCURVE",
"416 394 OFFCURVE",
"372 394 CURVE SMOOTH",
"247 394 LINE",
"247 269 LINE",
"365 269 LINE SMOOTH",
"419 269 OFFCURVE",
"468 258 OFFCURVE",
"468 218 CURVE SMOOTH",
"468 174 OFFCURVE",
"426 150 OFFCURVE",
"372 150 CURVE SMOOTH",
"351 150 OFFCURVE",
"305 153 OFFCURVE",
"277 162 CURVE",
"277 505 LINE",
"372 505 LINE SMOOTH"
);
}
);
width = 706;
}
);
leftMetricsKey = "=I";
rightMetricsKey = "=O";
unicode = 0042;
},
{
glyphname = C;
lastChange = "2015-07-09 03:01:27 +0000";
layers = (
{
anchors = (
{
name = bottom;
position = "{397, 0}";
},
{
name = top;
position = "{405, 670}";
}
);
background = {
paths = (
{
closed = 1;
nodes = (
"500 -15 OFFCURVE",
"577 19 OFFCURVE",
"624 61 CURVE",
"624 151 LINE",
"577 115 OFFCURVE",
"505 73 OFFCURVE",
"403 73 CURVE SMOOTH",
"253 73 OFFCURVE",
"142 185 OFFCURVE",
"142 335 CURVE SMOOTH",
"142 485 OFFCURVE",
"253 597 OFFCURVE",
"403 597 CURVE SMOOTH",
"505 597 OFFCURVE",
"559 545 OFFCURVE",
"604 514 CURVE",
"604 613 LINE",
"557 655 OFFCURVE",
"500 685 OFFCURVE",
"403 685 CURVE SMOOTH",
"201 685 OFFCURVE",
"50 527 OFFCURVE",
"50 335 CURVE SMOOTH",
"50 143 OFFCURVE",
"201 -15 OFFCURVE",
"403 -15 CURVE SMOOTH"
);
}
);
};
layerId = "DEFEBCF2-9FF2-4B76-ADC8-AB6BD79F23E7";
leftMetricsKey = "=O";
rightMetricsKey = "=O";
name = Regular;
paths = (
{
closed = 1;
nodes = (
"201 685 OFFCURVE",
"50 527 OFFCURVE",
"50 335 CURVE SMOOTH",
"50 143 OFFCURVE",
"201 -15 OFFCURVE",
"403 -15 CURVE SMOOTH",
"500 -15 OFFCURVE",
"577 19 OFFCURVE",
"624 61 CURVE",
"624 151 LINE",
"577 115 OFFCURVE",
"505 73 OFFCURVE",
"403 73 CURVE SMOOTH",
"253 73 OFFCURVE",
"142 185 OFFCURVE",
"142 335 CURVE SMOOTH",
"142 485 OFFCURVE",
"253 597 OFFCURVE",
"403 597 CURVE SMOOTH",
"505 597 OFFCURVE",
"559 545 OFFCURVE",
"604 514 CURVE",
"604 613 LINE",
"557 655 OFFCURVE",
"500 685 OFFCURVE",
"403 685 CURVE SMOOTH"
);
}
);
width = 674;
},
{
anchors = (
{
name = bottom;
position = "{389, 0}";
},
{
name = top;
position = "{394, 670}";
}
);
layerId = "2D992F1A-8218-4049-8E15-5955C72037C9";
name = Bold;
paths = (
{
closed = 1;
nodes = (
"213 685 OFFCURVE",
"40 557 OFFCURVE",
"40 335 CURVE SMOOTH",
"40 113 OFFCURVE",
"213 -15 OFFCURVE",
"395 -15 CURVE SMOOTH",
"465 -15 OFFCURVE",
"527 5 OFFCURVE",
"572 44 CURVE",
"572 225 LINE",
"519 182 OFFCURVE",
"479 160 OFFCURVE",
"402 160 CURVE SMOOTH",
"312 160 OFFCURVE",
"232 235 OFFCURVE",
"232 335 CURVE SMOOTH",
"232 435 OFFCURVE",
"312 510 OFFCURVE",
"402 510 CURVE SMOOTH",
"479 510 OFFCURVE",
"519 488 OFFCURVE",
"572 445 CURVE",
"572 626 LINE",
"527 665 OFFCURVE",
"465 685 OFFCURVE",
"395 685 CURVE SMOOTH"
);
}
);
width = 612;
}
);
leftMetricsKey = "=O";
rightMetricsKey = "=O";
unicode = 0043;
},
{
glyphname = D;
lastChange = "2015-07-09 03:01:27 +0000";
layers = (
{
anchors = (
{
name = center;
position = "{397, 335}";
},
{
name = top;
position = "{367, 670}";
}
);
layerId = "DEFEBCF2-9FF2-4B76-ADC8-AB6BD79F23E7";
leftMetricsKey = "=L";
rightMetricsKey = "=O";
name = Regular;
paths = (
{
closed = 1;
nodes = (
"110 670 LINE",
"110 15 LINE",
"191 0 OFFCURVE",
"264 -10 OFFCURVE",
"356 -10 CURVE SMOOTH",
"581 -10 OFFCURVE",
"709 144 OFFCURVE",
"709 342 CURVE SMOOTH",
"709 558 OFFCURVE",
"530 670 OFFCURVE",
"323 670 CURVE SMOOTH"
);
},
{
closed = 1;
nodes = (
"473 585 OFFCURVE",
"617 506 OFFCURVE",
"617 342 CURVE SMOOTH",
"617 192 OFFCURVE",
"518 75 OFFCURVE",
"356 75 CURVE SMOOTH",
"308 75 OFFCURVE",
"250 79 OFFCURVE",
"200 85 CURVE",
"200 585 LINE",
"323 585 LINE SMOOTH"
);
}
);
width = 759;
},
{
anchors = (
{
name = center;
position = "{390, 335}";
},
{
name = top;
position = "{330, 670}";
}
);
layerId = "2D992F1A-8218-4049-8E15-5955C72037C9";
leftMetricsKey = "=L";
name = Bold;
paths = (
{
closed = 1;
nodes = (
"90 670 LINE",
"90 13 LINE",
"171 -4 OFFCURVE",
"286 -15 OFFCURVE",
"378 -15 CURVE SMOOTH",
"585 -15 OFFCURVE",
"719 137 OFFCURVE",
"719 335 CURVE SMOOTH",
"719 551 OFFCURVE",
"546 670 OFFCURVE",
"363 670 CURVE SMOOTH"
);
},
{
closed = 1;
nodes = (
"463 495 OFFCURVE",
"527 429 OFFCURVE",
"527 325 CURVE SMOOTH",
"527 226 OFFCURVE",
"484 160 OFFCURVE",
"369 160 CURVE SMOOTH",
"341 160 OFFCURVE",
"307 163 OFFCURVE",
"277 172 CURVE",
"277 495 LINE",
"353 495 LINE SMOOTH"
);
}
);
width = 759;
}
);
leftMetricsKey = "=l";
rightMetricsKey = "=O";
unicode = 0044;
},
{
glyphname = E;
lastChange = "2015-06-24 12:58:28 +0000";
layers = (
{
anchors = (
{
name = bottom;
position = "{320, 0}";
},
{
name = ogonek;
position = "{574, 10}";
},
{
name = top;
position = "{340, 670}";
}
);
layerId = "DEFEBCF2-9FF2-4B76-ADC8-AB6BD79F23E7";
leftMetricsKey = "=L";
rightMetricsKey = "=|L-30";
name = Regular;
paths = (
{
closed = 1;
nodes = (
"110 670 LINE",
"110 0 LINE",
"569 0 LINE",
"569 85 LINE",
"200 85 LINE",
"200 585 LINE",
"569 585 LINE",
"569 670 LINE"
);
},
{
closed = 1;
nodes = (
"167 386 LINE",
"167 301 LINE",
"526 301 LINE",
"526 386 LINE"
);
}
);
width = 649;
},
{
anchors = (
{
name = bottom;
position = "{334, 0}";
},
{
name = ogonek;
position = "{585, 10}";
},
{
name = top;
position = "{334, 670}";
}
);
layerId = "2D992F1A-8218-4049-8E15-5955C72037C9";
leftMetricsKey = "=L";
rightMetricsKey = "=L+20";
name = Bold;
paths = (
{
closed = 1;
nodes = (
"90 670 LINE",
"90 0 LINE",
"578 0 LINE",
"578 160 LINE",
"277 160 LINE",
"277 515 LINE",
"578 515 LINE",
"578 670 LINE"
);
},
{
closed = 1;
nodes = (
"197 409 LINE",
"197 269 LINE",
"543 269 LINE",
"543 409 LINE"
);
}
);
width = 658;
}
);
leftMetricsKey = "=I";
rightMetricsKey = "=I-30";
unicode = 0045;
},
{
glyphname = F;
lastChange = "2015-07-09 03:01:27 +0000";
layers = (
{
layerId = "DEFEBCF2-9FF2-4B76-ADC8-AB6BD79F23E7";
leftMetricsKey = "=L";
rightMetricsKey = "=L+20";
name = Regular;
paths = (
{
closed = 1;
nodes = (
"110 670 LINE",
"110 0 LINE",
"200 0 LINE",
"200 585 LINE",
"548 585 LINE",
"548 670 LINE"
);
},
{
closed = 1;
nodes = (
"180 361 LINE",
"180 276 LINE",
"488 276 LINE",
"488 361 LINE"
);
}
);
width = 635;
},
{
layerId = "2D992F1A-8218-4049-8E15-5955C72037C9";
leftMetricsKey = "=L";
name = Bold;
paths = (
{
closed = 1;
nodes = (
"90 670 LINE",
"90 0 LINE",
"277 0 LINE",
"277 505 LINE",
"565 505 LINE",
"565 670 LINE"
);
},
{
closed = 1;
nodes = (
"167 391 LINE",
"167 226 LINE",
"515 226 LINE",
"515 391 LINE"
);
}
);
width = 635;
}
);
leftMetricsKey = "=I";
rightMetricsKey = "=L+10";
unicode = 0046;
},
{
glyphname = G;
lastChange = "2015-07-09 02:57:27 +0000";
layers = (
{
anchors = (
{
name = bottom;
position = "{406, 0}";
},
{
name = top;
position = "{351, 670}";
}
);
layerId = "DEFEBCF2-9FF2-4B76-ADC8-AB6BD79F23E7";
leftMetricsKey = "=O";
rightMetricsKey = "=O-10";
name = Regular;
paths = (
{
closed = 1;
nodes = (
"201 685 OFFCURVE",
"50 527 OFFCURVE",
"50 335 CURVE SMOOTH",
"50 143 OFFCURVE",
"201 -15 OFFCURVE",
"403 -15 CURVE SMOOTH",
"520 -15 OFFCURVE",
"613 39 OFFCURVE",
"661 91 CURVE",
"564 131 LINE",
"541 112 OFFCURVE",
"505 73 OFFCURVE",
"403 73 CURVE SMOOTH",
"253 73 OFFCURVE",
"142 185 OFFCURVE",
"142 335 CURVE SMOOTH",
"142 485 OFFCURVE",
"253 597 OFFCURVE",
"403 597 CURVE SMOOTH",
"505 597 OFFCURVE",
"559 545 OFFCURVE",
"604 514 CURVE",
"604 613 LINE",
"557 655 OFFCURVE",
"500 685 OFFCURVE",
"403 685 CURVE SMOOTH"
);
},
{
closed = 1;
nodes = (
"564 366 LINE",
"563 29 LINE",
"661 91 LINE",
"661 366 LINE"
);
},
{
closed = 1;
nodes = (
"396 286 LINE",
"657 286 LINE",
"657 366 LINE",
"396 366 LINE"
);
}
);
width = 701;
},
{
anchors = (
{
name = bottom;
position = "{423, 0}";
},
{
name = top;
position = "{363, 670}";
}
);
layerId = "2D992F1A-8218-4049-8E15-5955C72037C9";
rightMetricsKey = "=|L-25";
name = Bold;
paths = (
{
closed = 1;
nodes = (
"213 685 OFFCURVE",
"40 557 OFFCURVE",
"40 335 CURVE SMOOTH",
"40 113 OFFCURVE",
"213 -15 OFFCURVE",
"395 -15 CURVE SMOOTH",
"495 -15 OFFCURVE",
"597 24 OFFCURVE",
"660 89 CURVE",
"502 193 LINE",
"486 175 OFFCURVE",
"449 160 OFFCURVE",
"402 160 CURVE SMOOTH",
"312 160 OFFCURVE",
"232 235 OFFCURVE",
"232 335 CURVE SMOOTH",
"232 435 OFFCURVE",
"312 510 OFFCURVE",
"402 510 CURVE SMOOTH",
"479 510 OFFCURVE",
"519 488 OFFCURVE",
"572 445 CURVE",
"572 626 LINE",
"527 665 OFFCURVE",
"465 685 OFFCURVE",
"395 685 CURVE SMOOTH"
);
},
{
closed = 1;
nodes = (
"500 346 LINE",
"498 29 LINE",
"660 89 LINE",
"660 346 LINE"
);
},
{
closed = 1;
nodes = (
"500 226 LINE",
"660 226 LINE",
"660 346 LINE",
"500 346 LINE"
);
}
);
width = 725;
}
);
leftMetricsKey = "=O";
rightMetricsKey = "=|L";
unicode = 0047;
},
{
glyphname = H;
lastChange = "2015-07-09 03:01:27 +0000";
layers = (
{
layerId = "DEFEBCF2-9FF2-4B76-ADC8-AB6BD79F23E7";
leftMetricsKey = "=L";
rightMetricsKey = "=|L";
name = Regular;
paths = (
{
closed = 1;
nodes = (
"582 670 LINE",
"582 0 LINE",
"672 0 LINE",
"672 670 LINE"
);
},
{
closed = 1;
nodes = (
"110 670 LINE",
"110 0 LINE",
"200 0 LINE",
"200 670 LINE"
);
},
{
closed = 1;
nodes = (
"187 388 LINE",
"187 303 LINE",
"610 303 LINE",
"610 388 LINE"
);
}
);
width = 782;
},
{
layerId = "2D992F1A-8218-4049-8E15-5955C72037C9";
leftMetricsKey = "=L";
name = Bold;
paths = (
{
closed = 1;
nodes = (
"517 670 LINE",
"517 0 LINE",
"704 0 LINE",
"704 670 LINE"
);
},
{
closed = 1;
nodes = (
"90 670 LINE",
"90 0 LINE",
"277 0 LINE",
"277 670 LINE"
);
},
{
closed = 1;
nodes = (
"257 405 LINE",
"257 240 LINE",
"545 240 LINE",
"545 405 LINE"
);
}
);
width = 794;
}
);
leftMetricsKey = "=L";
rightMetricsKey = "=|L";
unicode = 0048;
},
{
glyphname = I;
lastChange = "2015-07-09 03:01:27 +0000";
layers = (
{
anchors = (
{
name = ogonek;
position = "{320, 10}";
},
{
name = top;
position = "{272, 670}";
}
);
layerId = "DEFEBCF2-9FF2-4B76-ADC8-AB6BD79F23E7";
leftMetricsKey = "=L";
rightMetricsKey = "=|L";
name = Regular;
paths = (
{
closed = 1;
nodes = (
"223 670 LINE",
"223 0 LINE",
"313 0 LINE",
"313 670 LINE"
);
},
{
closed = 1;
nodes = (
"110 85 LINE",
"110 0 LINE",
"426 0 LINE",
"426 85 LINE"
);
},
{
closed = 1;
nodes = (
"110 670 LINE",
"110 585 LINE",
"426 585 LINE",
"426 670 LINE"
);
}
);
width = 536;
},
{
anchors = (
{
name = ogonek;
position = "{369, 10}";
},
{
name = top;
position = "{287, 670}";
}
);
layerId = "2D992F1A-8218-4049-8E15-5955C72037C9";
leftMetricsKey = "=L-10";
rightMetricsKey = "=|L-10";
name = Bold;
paths = (
{
closed = 1;
nodes = (
"193 670 LINE",
"193 0 LINE",
"380 0 LINE",
"380 670 LINE"
);
},
{
closed = 1;
nodes = (
"80 165 LINE",
"80 0 LINE",
"493 0 LINE",
"493 165 LINE"
);
},
{
closed = 1;
nodes = (
"80 670 LINE",
"80 505 LINE",
"493 505 LINE",
"493 670 LINE"
);
}
);
width = 573;
}
);
leftMetricsKey = "=L-20";
rightMetricsKey = "=|L-20";
unicode = 0049;
},
{
glyphname = J;
lastChange = "2015-06-24 13:03:48 +0000";
layers = (
{
background = {
paths = (
{
closed = 1;
nodes = (
"18 670 LINE",
"18 -70 LINE SMOOTH",
"18 -126 OFFCURVE",
"-8 -165 OFFCURVE",
"-68 -166 CURVE SMOOTH",
"-121 -167 OFFCURVE",
"-175 -150 OFFCURVE",
"-201 -134 CURVE",
"-201 -224 LINE",
"-165 -245 OFFCURVE",
"-121 -261 OFFCURVE",
"-64 -261 CURVE SMOOTH",
"49 -261 OFFCURVE",
"115 -186 OFFCURVE",
"115 -73 CURVE SMOOTH",
"115 670 LINE"
);
}
);
};
layerId = "DEFEBCF2-9FF2-4B76-ADC8-AB6BD79F23E7";
rightMetricsKey = "=|L";
name = Regular;
paths = (
{
closed = 1;
nodes = (
"115 672 LINE",
"115 16 LINE SMOOTH",
"115 -65 OFFCURVE",
"59 -127 OFFCURVE",
"-55 -168 CURVE",
"-11 -255 LINE",
"114 -210 OFFCURVE",
"205 -136 OFFCURVE",
"205 34 CURVE SMOOTH",
"205 672 LINE"
);
}
);
width = 315;
},
{
layerId = "2D992F1A-8218-4049-8E15-5955C72037C9";
rightMetricsKey = "=|L-10";
name = Bold;
paths = (
{
closed = 1;
nodes = (
"117 672 LINE",
"117 54 LINE SMOOTH",
"117 -23 OFFCURVE",
"67 -72 OFFCURVE",
"-30 -93 CURVE",
"32 -255 LINE",
"193 -222 OFFCURVE",
"304 -120 OFFCURVE",
"304 47 CURVE SMOOTH",
"304 672 LINE"
);
}
);
width = 384;
}
);
rightMetricsKey = "=I";
unicode = 004A;
},
{
glyphname = K;
lastChange = "2015-07-09 02:57:43 +0000";
layers = (
{
anchors = (
{
name = bottom;
position = "{336, 0}";
},
{
name = top;
position = "{336, 670}";
}
);
background = {
paths = (
{
closed = 1;
nodes = (
"110 0 LINE",
"207 0 LINE",
"207 670 LINE",
"110 670 LINE"
);
},
{
closed = 1;
nodes = (
"639 670 LINE",
"513 670 LINE",
"244 356 LINE",
"244 327 LINE",
"544 0 LINE",
"669 0 LINE",
"344 350 LINE"
);
}
);
};
layerId = "DEFEBCF2-9FF2-4B76-ADC8-AB6BD79F23E7";
leftMetricsKey = "=L";
rightMetricsKey = "=V";
name = Regular;
paths = (
{
closed = 1;
nodes = (
"506 670 LINE",
"139 248 LINE",
"168 160 LINE",
"632 670 LINE"
);
},
{
closed = 1;
nodes = (
"110 670 LINE",
"110 0 LINE",
"200 0 LINE",
"200 670 LINE"
);
},
{
closed = 1;
nodes = (
"251 329 LINE",
"537 0 LINE",
"662 0 LINE",
"319 398 LINE"
);
}
);
width = 672;
},
{
anchors = (
{
name = bottom;
position = "{389, 0}";
},
{
name = top;
position = "{389, 670}";
}
);
layerId = "2D992F1A-8218-4049-8E15-5955C72037C9";
leftMetricsKey = "=L";
rightMetricsKey = "=L-40";
name = Bold;
paths = (
{
closed = 1;
nodes = (
"482 670 LINE",
"139 258 LINE",
"258 161 LINE",
"707 670 LINE"
);
},
{
closed = 1;
nodes = (
"90 670 LINE",
"90 0 LINE",
"277 0 LINE",
"277 670 LINE"
);
},
{
closed = 1;
nodes = (
"308 299 LINE",
"499 0 LINE",
"737 0 LINE",
"456 408 LINE"
);
}
);
width = 757;
}
);
leftMetricsKey = "=I";
rightMetricsKey = "=L";
unicode = 004B;
},
{
glyphname = L;
lastChange = "2015-06-24 13:00:42 +0000";
layers = (
{
anchors = (
{
name = bottom;
position = "{326, 0}";
},
{
name = top;
position = "{171, 670}";
},
{
name = topright;
position = "{596, 670}";
}
);
layerId = "DEFEBCF2-9FF2-4B76-ADC8-AB6BD79F23E7";
name = Regular;
paths = (
{
closed = 1;
nodes = (
"110 670 LINE",
"110 0 LINE",
"569 0 LINE",
"569 85 LINE",
"200 85 LINE",
"200 670 LINE"
);
}
);
width = 636;
},
{
anchors = (
{
name = bottom;
position = "{319, 0}";
},
{
name = top;
position = "{248, 670}";
},
{
name = topright;
position = "{598, 670}";
}
);
layerId = "2D992F1A-8218-4049-8E15-5955C72037C9";
name = Bold;
paths = (
{
closed = 1;
nodes = (
"90 670 LINE",
"90 0 LINE",
"578 0 LINE",
"578 165 LINE",
"277 165 LINE",
"277 670 LINE"
);
}
);
width = 638;
}
);
unicode = 004C;
},
{
glyphname = Lcaron;
lastChange = "2015-06-14 21:19:30 +0000";
layers = (
{
components = (
{
name = L;
}
);
layerId = "DEFEBCF2-9FF2-4B76-ADC8-AB6BD79F23E7";
name = Regular;
paths = (
{
closed = 1;
nodes = (
"265 530 LINE",
"332 530 LINE",
"362 718 LINE",
"275 718 LINE"
);
}
);
width = 581;
},
{
components = (
{
name = L;
}
);
layerId = "2D992F1A-8218-4049-8E15-5955C72037C9";
name = Bold;
paths = (
{
closed = 1;
nodes = (
"325 530 LINE",
"447 530 LINE",
"477 718 LINE",
"335 718 LINE"
);
}
);
width = 598;
}
);
unicode = 013D;
},
{
glyphname = Lslash;
lastChange = "2015-06-25 04:27:24 +0000";
layers = (
{
components = (
{
name = L;
}
);
layerId = "DEFEBCF2-9FF2-4B76-ADC8-AB6BD79F23E7";
rightMetricsKey = "=L";
name = Regular;
paths = (
{
closed = 1;
nodes = (
"10 309 LINE",
"10 233 LINE",
"291 441 LINE",
"291 517 LINE"
);
}
);
width = 636;
},
{
components = (
{
name = L;
}
);
layerId = "2D992F1A-8218-4049-8E15-5955C72037C9";
name = Bold;
paths = (
{
closed = 1;
nodes = (
"10 329 LINE",
"10 173 LINE",
"331 381 LINE",
"331 537 LINE"
);
}
);
width = 598;
}
);
rightMetricsKey = "=auto";
unicode = 0141;
},
{
glyphname = M;
lastChange = "2015-07-09 03:01:27 +0000";
layers = (
{
layerId = "DEFEBCF2-9FF2-4B76-ADC8-AB6BD79F23E7";
leftMetricsKey = "=L";
rightMetricsKey = "=|L";
name = Regular;
paths = (
{
closed = 1;
nodes = (
"697 670 LINE",
"424 372 LINE",
"146 670 LINE",
"110 670 LINE",
"110 0 LINE",
"200 0 LINE",
"200 490 LINE",
"411 260 LINE",
"437 260 LINE",
"643 490 LINE",
"643 0 LINE",
"733 0 LINE",
"733 670 LINE"
);
}
);
width = 843;
},
{
layerId = "2D992F1A-8218-4049-8E15-5955C72037C9";
name = Bold;
paths = (
{
closed = 1;
nodes = (
"708 680 LINE",
"442 400 LINE",
"176 680 LINE",
"90 680 LINE",
"90 0 LINE",
"277 0 LINE",
"277 350 LINE",
"414 200 LINE",
"470 200 LINE",
"607 350 LINE",
"607 0 LINE",
"794 0 LINE",
"794 680 LINE"
);
}
);
width = 884;
}
);
leftMetricsKey = "=L";
rightMetricsKey = "=|L";
unicode = 004D;
},
{
glyphname = N;
lastChange = "2015-07-09 03:01:27 +0000";
layers = (
{
anchors = (
{
name = bottom;
position = "{389, 0}";
},
{
name = top;
position = "{387, 670}";
}
);
layerId = "DEFEBCF2-9FF2-4B76-ADC8-AB6BD79F23E7";
leftMetricsKey = "=L";
rightMetricsKey = "=|L";
name = Regular;
paths = (
{
closed = 1;
nodes = (
"579 670 LINE",
"579 185 LINE",
"146 670 LINE",
"110 670 LINE",
"110 0 LINE",
"200 0 LINE",
"200 479 LINE",
"633 0 LINE",
"669 0 LINE",
"669 670 LINE"
);
}
);
width = 779;
},
{
anchors = (
{
name = bottom;
position = "{396, 0}";
},
{
name = top;
position = "{396, 670}";
}
);
layerId = "2D992F1A-8218-4049-8E15-5955C72037C9";
leftMetricsKey = "=L";
rightMetricsKey = "=|L";
name = Bold;
paths = (
{
closed = 1;
nodes = (
"515 670 LINE",
"515 335 LINE",
"156 680 LINE",
"90 680 LINE",
"90 0 LINE",
"277 0 LINE",
"277 329 LINE",
"636 -10 LINE",
"702 -10 LINE",
"702 670 LINE"
);
}
);
width = 792;
}
);
leftMetricsKey = "=I";
rightMetricsKey = "=I";
unicode = 004E;
},
{
glyphname = Eng;
lastChange = "2015-07-09 03:01:27 +0000";
layers = (
{
anchors = (
{
name = bottom;
position = "{396, 0}";
},
{
name = top;
position = "{396, 670}";
}
);
components = (
{
disableAlignment = 1;
name = J;
transform = "{1, 0, 0, 1, 446, 0}";
}
);
layerId = "DEFEBCF2-9FF2-4B76-ADC8-AB6BD79F23E7";
name = Regular;
paths = (
{
closed = 1;
nodes = (
"646 135 LINE",
"146 670 LINE",
"110 670 LINE",
"110 0 LINE",
"207 0 LINE",
"207 469 LINE",
"613 35 LINE"
);
}
);
width = 761;
},
{
anchors = (
{
name = bottom;
position = "{396, 0}";
},
{
name = top;
position = "{396, 670}";
}
);
components = (
{
name = J;
transform = "{1, 0, 0, 1, 398, 0}";
}
);
layerId = "2D992F1A-8218-4049-8E15-5955C72037C9";
leftMetricsKey = "=N";
rightMetricsKey = "=J";
name = Bold;
paths = (
{
closed = 1;
nodes = (
"634 224 LINE",
"156 680 LINE",
"90 680 LINE",
"90 0 LINE",
"277 0 LINE",
"277 329 LINE",
"571 51 LINE"
);
}
);
width = 782;
}
);
leftMetricsKey = "=N";
rightMetricsKey = "=J";
unicode = 014A;
},
{
glyphname = O;
lastChange = "2015-06-24 12:57:33 +0000";
layers = (
{
anchors = (
{
name = top;
position = "{403, 670}";
}
);
layerId = "DEFEBCF2-9FF2-4B76-ADC8-AB6BD79F23E7";
name = Regular;
paths = (
{
closed = 1;
nodes = (
"201 685 OFFCURVE",
"50 527 OFFCURVE",
"50 335 CURVE SMOOTH",
"50 143 OFFCURVE",
"201 -15 OFFCURVE",
"403 -15 CURVE SMOOTH",
"605 -15 OFFCURVE",
"756 143 OFFCURVE",
"756 335 CURVE SMOOTH",
"756 527 OFFCURVE",
"605 685 OFFCURVE",
"403 685 CURVE SMOOTH"
);
},
{
closed = 1;
nodes = (
"553 597 OFFCURVE",
"664 485 OFFCURVE",
"664 335 CURVE SMOOTH",
"664 185 OFFCURVE",
"553 73 OFFCURVE",
"403 73 CURVE SMOOTH",
"253 73 OFFCURVE",
"142 185 OFFCURVE",
"142 335 CURVE SMOOTH",
"142 485 OFFCURVE",
"253 597 OFFCURVE",
"403 597 CURVE SMOOTH"
);
}
);
width = 806;
},
{
anchors = (
{
name = top;
position = "{388, 670}";
}
);
layerId = "2D992F1A-8218-4049-8E15-5955C72037C9";
name = Bold;
paths = (
{
closed = 1;
nodes = (
"206 685 OFFCURVE",
"40 557 OFFCURVE",
"40 335 CURVE SMOOTH",
"40 113 OFFCURVE",
"206 -15 OFFCURVE",
"388 -15 CURVE SMOOTH",
"570 -15 OFFCURVE",
"736 113 OFFCURVE",
"736 335 CURVE SMOOTH",
"736 557 OFFCURVE",
"570 685 OFFCURVE",
"388 685 CURVE SMOOTH"
);
},
{
closed = 1;
nodes = (
"478 510 OFFCURVE",
"544 435 OFFCURVE",
"544 335 CURVE SMOOTH",
"544 235 OFFCURVE",
"478 160 OFFCURVE",
"388 160 CURVE SMOOTH",
"298 160 OFFCURVE",
"232 235 OFFCURVE",
"232 335 CURVE SMOOTH",
"232 435 OFFCURVE",
"298 510 OFFCURVE",
"388 510 CURVE SMOOTH"
);
}
);
width = 776;
}
);
unicode = 004F;
},
{
glyphname = Oslash;
lastChange = "2015-07-09 03:01:27 +0000";
layers = (
{
components = (
{
name = O;
}
);
layerId = "DEFEBCF2-9FF2-4B76-ADC8-AB6BD79F23E7";
name = Regular;
paths = (
{
closed = 1;
nodes = (
"125 25 LINE",
"174 -15 LINE",
"702 645 LINE",
"650 685 LINE"
);
}
);
width = 806;
},
{
components = (
{
name = O;
}
);
layerId = "2D992F1A-8218-4049-8E15-5955C72037C9";
leftMetricsKey = "=O";
rightMetricsKey = "=O";
name = Bold;
paths = (
{
closed = 1;
nodes = (
"75 45 LINE",
"154 -15 LINE",
"712 625 LINE",
"630 685 LINE"
);
}
);
width = 776;
}
);
leftMetricsKey = "=O";
rightMetricsKey = "=O";
unicode = 00D8;
},
{
glyphname = OE;
lastChange = "2015-07-09 03:01:27 +0000";
layers = (
{
anchors = (
{
name = top;
position = "{403, 670}";
}
);
components = (
{
name = E;
transform = "{1, 0, 0, 1, 389, 0}";
}
);
layerId = "DEFEBCF2-9FF2-4B76-ADC8-AB6BD79F23E7";
leftMetricsKey = "=O";
rightMetricsKey = "=E";
name = Regular;
paths = (
{
closed = 1;
nodes = (
"403 670 LINE SMOOTH",
"211 670 OFFCURVE",
"50 527 OFFCURVE",
"50 335 CURVE SMOOTH",
"50 143 OFFCURVE",
"211 0 OFFCURVE",
"403 0 CURVE SMOOTH",
"496 0 LINE",
"496 95 LINE",
"403 95 LINE SMOOTH",
"263 95 OFFCURVE",
"152 185 OFFCURVE",
"152 335 CURVE SMOOTH",
"152 485 OFFCURVE",
"263 575 OFFCURVE",
"403 575 CURVE SMOOTH",
"496 575 LINE",
"496 670 LINE"
);
}
);
width = 1038;
},
{
anchors = (
{
name = top;
position = "{393, 670}";
}
);
components = (
{
name = E;
transform = "{1, 0, 0, 1, 379, 0}";
}
);
layerId = "2D992F1A-8218-4049-8E15-5955C72037C9";
name = Bold;
paths = (
{
closed = 1;
nodes = (
"393 670 LINE",
"201 670 OFFCURVE",
"40 527 OFFCURVE",
"40 335 CURVE SMOOTH",
"40 143 OFFCURVE",
"201 0 OFFCURVE",
"393 0 CURVE",
"486 0 LINE",
"486 135 LINE",
"393 135 LINE SMOOTH",
"283 135 OFFCURVE",
"202 215 OFFCURVE",
"202 335 CURVE SMOOTH",
"202 455 OFFCURVE",
"283 525 OFFCURVE",
"393 525 CURVE SMOOTH",
"486 525 LINE",
"486 670 LINE"
);
}
);
width = 1037;
}
);
leftMetricsKey = "=O";
rightMetricsKey = "=E";
unicode = 0152;
},
{
glyphname = P;
lastChange = "2015-07-09 03:01:27 +0000";
layers = (
{
layerId = "DEFEBCF2-9FF2-4B76-ADC8-AB6BD79F23E7";
leftMetricsKey = "=L";
rightMetricsKey = "=O";
name = Regular;
paths = (
{
closed = 1;
nodes = (
"110 670 LINE",
"110 0 LINE",
"200 0 LINE",
"200 585 LINE",
"352 585 LINE SMOOTH",
"438 585 OFFCURVE",
"518 529 OFFCURVE",
"518 444 CURVE SMOOTH",
"518 369 OFFCURVE",
"460 314 OFFCURVE",
"359 314 CURVE SMOOTH",
"291 314 OFFCURVE",
"220 333 OFFCURVE",
"188 350 CURVE",
"188 268 LINE",
"221 250 OFFCURVE",
"285 229 OFFCURVE",
"362 229 CURVE SMOOTH",
"500 229 OFFCURVE",
"610 326 OFFCURVE",
"610 444 CURVE SMOOTH",
"610 582 OFFCURVE",
"492 670 OFFCURVE",
"377 670 CURVE SMOOTH"
);
}
);
width = 660;
},
{
layerId = "2D992F1A-8218-4049-8E15-5955C72037C9";
rightMetricsKey = "=O-10";
name = Bold;
paths = (
{
closed = 1;
nodes = (
"80 670 LINE",
"80 0 LINE",
"267 0 LINE",
"267 495 LINE",
"345 495 LINE SMOOTH",
"404 495 OFFCURVE",
"448 472 OFFCURVE",
"448 417 CURVE SMOOTH",
"448 369 OFFCURVE",
"404 326 OFFCURVE",
"345 326 CURVE SMOOTH",
"306 326 OFFCURVE",
"271 337 OFFCURVE",
"245 349 CURVE",
"245 211 LINE",
"275 190 OFFCURVE",
"322 171 OFFCURVE",
"387 171 CURVE SMOOTH",
"517 171 OFFCURVE",
"640 262 OFFCURVE",
"640 417 CURVE SMOOTH",
"640 575 OFFCURVE",
"502 670 OFFCURVE",
"367 670 CURVE SMOOTH"
);
}
);
width = 670;
}
);
leftMetricsKey = "=I";
rightMetricsKey = "=O";
unicode = 0050;
},
{
glyphname = Thorn;
lastChange = "2015-07-09 03:01:27 +0000";
layers = (
{
layerId = "DEFEBCF2-9FF2-4B76-ADC8-AB6BD79F23E7";
leftMetricsKey = "=L";
rightMetricsKey = "=O";
name = Regular;
paths = (
{
closed = 1;
nodes = (
"110 670 LINE",
"110 0 LINE",
"207 0 LINE",
"207 172 LINE",
"253 157 OFFCURVE",
"300 148 OFFCURVE",
"359 148 CURVE SMOOTH",
"501 148 OFFCURVE",
"584 242 OFFCURVE",
"584 352 CURVE SMOOTH",
"584 472 OFFCURVE",
"473 550 OFFCURVE",
"358 550 CURVE SMOOTH",
"207 550 LINE",
"207 670 LINE"
);
},
{
closed = 1;
nodes = (
"419 460 OFFCURVE",
"482 419 OFFCURVE",
"482 352 CURVE SMOOTH",
"482 285 OFFCURVE",
"444 233 OFFCURVE",
"353 233 CURVE SMOOTH",
"307 233 OFFCURVE",
"249 240 OFFCURVE",
"207 263 CURVE",
"207 460 LINE",
"333 460 LINE SMOOTH"
);
}
);
width = 634;
},
{
layerId = "2D992F1A-8218-4049-8E15-5955C72037C9";
name = Bold;
paths = (
{
closed = 1;
nodes = (
"90 670 LINE",
"90 0 LINE",
"247 0 LINE",
"247 123 LINE",
"293 110 OFFCURVE",
"338 99 OFFCURVE",
"397 99 CURVE SMOOTH",
"539 99 OFFCURVE",
"654 192 OFFCURVE",
"654 333 CURVE SMOOTH",
"654 463 OFFCURVE",
"543 561 OFFCURVE",
"428 561 CURVE SMOOTH",
"247 561 LINE",
"247 670 LINE"
);
},
{
closed = 1;
nodes = (
"437 411 OFFCURVE",
"492 386 OFFCURVE",
"492 333 CURVE SMOOTH",
"492 273 OFFCURVE",
"452 244 OFFCURVE",
"383 244 CURVE SMOOTH",
"347 244 OFFCURVE",
"286 254 OFFCURVE",
"247 274 CURVE",
"247 411 LINE",
"373 411 LINE SMOOTH"
);
}
);
width = 684;
}
);
leftMetricsKey = "=L";
rightMetricsKey = "=P";
unicode = 00DE;
},
{
glyphname = Q;
lastChange = "2015-07-09 03:01:27 +0000";
layers = (
{
layerId = "DEFEBCF2-9FF2-4B76-ADC8-AB6BD79F23E7";
leftMetricsKey = "=O";
rightMetricsKey = "=L";
name = Regular;
paths = (
{
closed = 1;
nodes = (
"201 685 OFFCURVE",
"50 527 OFFCURVE",
"50 335 CURVE SMOOTH",
"50 143 OFFCURVE",
"201 -15 OFFCURVE",
"403 -15 CURVE SMOOTH",
"605 -15 OFFCURVE",
"756 143 OFFCURVE",
"756 335 CURVE SMOOTH",
"756 527 OFFCURVE",
"605 685 OFFCURVE",
"403 685 CURVE SMOOTH"
);
},
{
closed = 1;
nodes = (
"403 -15 LINE",
"506 -92 OFFCURVE",
"653 -154 OFFCURVE",
"764 -154 CURVE",
"764 -64 LINE",
"684 -64 OFFCURVE",
"549 -21 OFFCURVE",
"442 25 CURVE"
);
},
{
closed = 1;
nodes = (
"553 597 OFFCURVE",
"664 485 OFFCURVE",
"664 335 CURVE SMOOTH",
"664 185 OFFCURVE",
"553 73 OFFCURVE",
"403 73 CURVE SMOOTH",
"253 73 OFFCURVE",
"142 185 OFFCURVE",
"142 335 CURVE SMOOTH",
"142 485 OFFCURVE",
"253 597 OFFCURVE",
"403 597 CURVE SMOOTH"
);
}
);
width = 831;
},
{
layerId = "2D992F1A-8218-4049-8E15-5955C72037C9";
name = Bold;
paths = (
{
closed = 1;
nodes = (
"206 685 OFFCURVE",
"40 557 OFFCURVE",
"40 335 CURVE SMOOTH",
"40 113 OFFCURVE",
"206 -15 OFFCURVE",
"388 -15 CURVE SMOOTH",
"570 -15 OFFCURVE",
"736 113 OFFCURVE",
"736 335 CURVE SMOOTH",
"736 557 OFFCURVE",
"570 685 OFFCURVE",
"388 685 CURVE SMOOTH"
);
},
{
closed = 1;
nodes = (
"388 -15 LINE",
"480 -122 OFFCURVE",
"634 -171 OFFCURVE",
"755 -171 CURVE",
"755 -15 LINE",
"675 -15 OFFCURVE",
"596 -13 OFFCURVE",
"538 23 CURVE"
);
},
{
closed = 1;
nodes = (
"478 510 OFFCURVE",
"544 435 OFFCURVE",
"544 335 CURVE SMOOTH",
"544 235 OFFCURVE",
"478 160 OFFCURVE",
"388 160 CURVE SMOOTH",
"298 160 OFFCURVE",
"232 235 OFFCURVE",
"232 335 CURVE SMOOTH",
"232 435 OFFCURVE",
"298 510 OFFCURVE",
"388 510 CURVE SMOOTH"
);
}
);
width = 815;
}
);
leftMetricsKey = "=O";
rightMetricsKey = "=L";
unicode = 0051;
},
{
glyphname = R;
lastChange = "2015-07-09 03:01:27 +0000";
layers = (
{
anchors = (
{
name = bottom;
position = "{366, 0}";
},
{
name = top;
position = "{308, 670}";
}
);
layerId = "DEFEBCF2-9FF2-4B76-ADC8-AB6BD79F23E7";
leftMetricsKey = "=L";
rightMetricsKey = "=V";
name = Regular;
paths = (
{
closed = 1;
nodes = (
"110 670 LINE",
"110 0 LINE",
"200 0 LINE",
"200 585 LINE",
"352 585 LINE SMOOTH",
"438 585 OFFCURVE",
"508 544 OFFCURVE",
"508 469 CURVE SMOOTH",
"508 397 OFFCURVE",
"450 351 OFFCURVE",
"349 351 CURVE SMOOTH",
"295 351 OFFCURVE",
"238 359 OFFCURVE",
"193 372 CURVE",
"193 297 LINE",
"226 289 OFFCURVE",
"319 278 OFFCURVE",
"362 278 CURVE SMOOTH",
"478 278 OFFCURVE",
"600 344 OFFCURVE",
"600 469 CURVE SMOOTH",
"600 607 OFFCURVE",
"482 670 OFFCURVE",
"367 670 CURVE SMOOTH"
);
},
{
closed = 1;
nodes = (
"183 297 LINE",
"518 0 LINE",
"656 0 LINE",
"265 334 LINE"
);
}
);
width = 666;
},
{
anchors = (
{
name = bottom;
position = "{359, 0}";
},
{
name = top;
position = "{319, 670}";
}
);
layerId = "2D992F1A-8218-4049-8E15-5955C72037C9";
leftMetricsKey = "=L";
rightMetricsKey = "=V";
name = Bold;
paths = (
{
closed = 1;
nodes = (
"90 670 LINE",
"90 0 LINE",
"277 0 LINE",
"277 495 LINE",
"355 495 LINE SMOOTH",
"414 495 OFFCURVE",
"458 482 OFFCURVE",
"458 427 CURVE SMOOTH",
"458 379 OFFCURVE",
"414 356 OFFCURVE",
"355 356 CURVE SMOOTH",
"316 356 OFFCURVE",
"281 367 OFFCURVE",
"255 379 CURVE",
"255 284 LINE",
"285 278 OFFCURVE",
"392 237 OFFCURVE",
"427 237 CURVE SMOOTH",
"550 237 OFFCURVE",
"650 312 OFFCURVE",
"650 437 CURVE SMOOTH",
"650 595 OFFCURVE",
"512 670 OFFCURVE",
"377 670 CURVE SMOOTH"
);
},
{
closed = 1;
nodes = (
"265 284 LINE",
"460 0 LINE",
"688 0 LINE",
"433 333 LINE"
);
}
);
width = 698;
}
);
leftMetricsKey = "=I";
rightMetricsKey = "=L";
unicode = 0052;
},
{
glyphname = S;
lastChange = "2015-07-09 03:01:27 +0000";
layers = (
{
anchors = (
{
name = bottom;
position = "{262, 0}";
},
{
name = top;
position = "{273, 670}";
}
);
layerId = "DEFEBCF2-9FF2-4B76-ADC8-AB6BD79F23E7";
leftMetricsKey = "=O";
rightMetricsKey = "=O";
name = Regular;
paths = (
{
closed = 1;
nodes = (
"153 680 OFFCURVE",
"50 598 OFFCURVE",
"50 492 CURVE SMOOTH",
"50 417 OFFCURVE",
"78 361 OFFCURVE",
"174 318 CURVE SMOOTH",
"285 268 LINE SMOOTH",
"326 250 OFFCURVE",
"381 222 OFFCURVE",
"381 172 CURVE SMOOTH",
"381 113 OFFCURVE",
"322 78 OFFCURVE",
"255 78 CURVE SMOOTH",
"170 78 OFFCURVE",
"103 112 OFFCURVE",
"51 148 CURVE",
"51 55 LINE",
"99 21 OFFCURVE",
"166 -10 OFFCURVE",
"243 -10 CURVE SMOOTH",
"366 -10 OFFCURVE",
"473 67 OFFCURVE",
"473 176 CURVE SMOOTH",
"473 260 OFFCURVE",
"426 304 OFFCURVE",
"334 346 CURVE SMOOTH",
"242 388 LINE SMOOTH",
"187 413 OFFCURVE",
"143 435 OFFCURVE",
"143 489 CURVE SMOOTH",
"143 561 OFFCURVE",
"221 592 OFFCURVE",
"282 592 CURVE SMOOTH",
"344 592 OFFCURVE",
"399 562 OFFCURVE",
"437 534 CURVE",
"437 627 LINE",
"398 652 OFFCURVE",
"351 680 OFFCURVE",
"272 680 CURVE SMOOTH"
);
}
);
width = 523;
},
{
anchors = (
{
name = bottom;
position = "{287, 0}";
},
{
name = top;
position = "{294, 670}";
}
);
layerId = "2D992F1A-8218-4049-8E15-5955C72037C9";
leftMetricsKey = "=O";
rightMetricsKey = "=O-10";
name = Bold;
paths = (
{
closed = 1;
nodes = (
"162 685 OFFCURVE",
"40 608 OFFCURVE",
"40 467 CURVE SMOOTH",
"40 386 OFFCURVE",
"69 306 OFFCURVE",
"182 270 CURVE SMOOTH",
"277 240 LINE SMOOTH",
"313 229 OFFCURVE",
"336 215 OFFCURVE",
"336 195 CURVE SMOOTH",
"336 167 OFFCURVE",
"304 157 OFFCURVE",
"258 157 CURVE SMOOTH",
"183 157 OFFCURVE",
"107 191 OFFCURVE",
"43 239 CURVE",
"43 58 LINE",
"102 16 OFFCURVE",
"185 -15 OFFCURVE",
"265 -15 CURVE SMOOTH",
"420 -15 OFFCURVE",
"543 77 OFFCURVE",
"543 205 CURVE SMOOTH",
"543 269 OFFCURVE",
"506 340 OFFCURVE",
"409 377 CURVE SMOOTH",
"337 404 LINE SMOOTH",
"281 425 OFFCURVE",
"237 437 OFFCURVE",
"237 470 CURVE SMOOTH",
"237 501 OFFCURVE",
"274 513 OFFCURVE",
"318 513 CURVE SMOOTH",
"394 513 OFFCURVE",
"445 484 OFFCURVE",
"502 451 CURVE",
"502 632 LINE",
"455 664 OFFCURVE",
"371 685 OFFCURVE",
"293 685 CURVE SMOOTH"
);
}
);
width = 573;
}
);
leftMetricsKey = "=O-20";
rightMetricsKey = "=O-20";
unicode = 0053;
},
{
glyphname = T;
lastChange = "2015-06-24 12:59:35 +0000";
layers = (
{
anchors = (
{
name = bottom;
position = "{306, 0}";
},
{
name = center;
position = "{306, 335}";
},
{
name = top;
position = "{306, 670}";
}
);
layerId = "DEFEBCF2-9FF2-4B76-ADC8-AB6BD79F23E7";
name = Regular;
paths = (
{
closed = 1;
nodes = (
"261 670 LINE",
"261 3 LINE",
"351 3 LINE",
"351 670 LINE"
);
},
{
closed = 1;
nodes = (
"30 670 LINE",
"30 585 LINE",
"582 585 LINE",
"582 670 LINE"
);
}
);
width = 611;
},
{
anchors = (
{
name = bottom;
position = "{334, 0}";
},
{
name = center;
position = "{316, 335}";
},
{
name = top;
position = "{316, 670}";
}
);
layerId = "2D992F1A-8218-4049-8E15-5955C72037C9";
name = Bold;
paths = (
{
closed = 1;
nodes = (
"222 670 LINE",
"222 3 LINE",
"409 3 LINE",
"409 670 LINE"
);
},
{
closed = 1;
nodes = (
"25 670 LINE",
"25 505 LINE",
"606 505 LINE",
"606 670 LINE"
);
}
);
width = 631;
}
);
unicode = 0054;
},
{
glyphname = U;
lastChange = "2015-07-09 03:01:27 +0000";
layers = (
{
anchors = (
{
name = ogonek;
position = "{469, 10}";
},
{
name = top;
position = "{376, 670}";
}
);
background = {
paths = (
{
closed = 1;
nodes = (
"552 309 LINE SMOOTH",
"552 188 OFFCURVE",
"459 80 OFFCURVE",
"328 80 CURVE SMOOTH",
"226 80 OFFCURVE",
"160 136 OFFCURVE",
"160 287 CURVE SMOOTH",
"160 670 LINE",
"63 670 LINE",
"63 287 LINE SMOOTH",
"63 111 OFFCURVE",
"139 -15 OFFCURVE",
"311 -15 CURVE SMOOTH",
"412 -15 OFFCURVE",
"505 48 OFFCURVE",
"552 118 CURVE",
"552 5 LINE",
"649 5 LINE",
"649 670 LINE",
"552 670 LINE"
);
}
);
};
layerId = "DEFEBCF2-9FF2-4B76-ADC8-AB6BD79F23E7";
leftMetricsKey = "=L-10";
rightMetricsKey = "=|L-10";
name = Regular;
paths = (
{
closed = 1;
nodes = (
"562 672 LINE",
"562 268 LINE SMOOTH",
"562 132 OFFCURVE",
"476 80 OFFCURVE",
"376 79 CURVE SMOOTH",
"276 78 OFFCURVE",
"190 132 OFFCURVE",
"190 268 CURVE SMOOTH",
"190 672 LINE",
"100 672 LINE",
"100 265 LINE SMOOTH",
"100 90 OFFCURVE",
"219 -13 OFFCURVE",
"376 -13 CURVE SMOOTH",
"533 -13 OFFCURVE",
"652 90 OFFCURVE",
"652 265 CURVE SMOOTH",
"652 672 LINE"
);
}
);
width = 752;
},
{
anchors = (
{
name = ogonek;
position = "{493, 10}";
},
{
name = top;
position = "{383, 670}";
}
);
layerId = "2D992F1A-8218-4049-8E15-5955C72037C9";
leftMetricsKey = "=L-10";
rightMetricsKey = "=|L-10";
name = Bold;
paths = (
{
closed = 1;
nodes = (
"499 672 LINE",
"499 278 LINE SMOOTH",
"499 209 OFFCURVE",
"463 161 OFFCURVE",
"383 160 CURVE SMOOTH",
"303 159 OFFCURVE",
"267 209 OFFCURVE",
"267 278 CURVE SMOOTH",
"267 672 LINE",
"80 672 LINE",
"80 265 LINE SMOOTH",
"80 90 OFFCURVE",
"216 -15 OFFCURVE",
"383 -15 CURVE SMOOTH",
"550 -15 OFFCURVE",
"686 90 OFFCURVE",
"686 265 CURVE SMOOTH",
"686 672 LINE"
);
}
);
width = 766;
}
);
leftMetricsKey = "=I";
rightMetricsKey = "=I";
unicode = 0055;
},
{
glyphname = V;
lastChange = "2015-07-09 03:00:50 +0000";
layers = (
{
layerId = "DEFEBCF2-9FF2-4B76-ADC8-AB6BD79F23E7";
name = Regular;
paths = (
{
closed = 1;
nodes = (
"573 670 LINE",
"344 152 LINE",
"118 670 LINE",
"10 670 LINE",
"323 0 LINE",
"368 0 LINE",
"681 670 LINE"
);
}
);
width = 691;
},
{
layerId = "2D992F1A-8218-4049-8E15-5955C72037C9";
name = Bold;
paths = (
{
closed = 1;
nodes = (
"506 670 LINE",
"367 302 LINE",
"228 670 LINE",
"10 670 LINE",
"320 -10 LINE",
"414 -10 LINE",
"724 670 LINE"
);
}
);
width = 734;
}
);
unicode = 0056;
},
{
glyphname = W;
lastChange = "2015-07-09 03:01:27 +0000";
layers = (
{
anchors = (
{
name = top;
position = "{472, 670}";
}
);
layerId = "DEFEBCF2-9FF2-4B76-ADC8-AB6BD79F23E7";
leftMetricsKey = "=V";
rightMetricsKey = "=V";
name = Regular;
paths = (
{
closed = 1;
nodes = (
"836 670 LINE",
"672 172 LINE",
"500 669 LINE",
"442 670 LINE",
"265 172 LINE",
"108 670 LINE",
"10 670 LINE",
"235 0 LINE",
"286 0 LINE",
"468 507 LINE",
"648 0 LINE",
"699 0 LINE",
"934 670 LINE"
);
}
);
width = 944;
},
{
anchors = (
{
name = top;
position = "{487, 670}";
}
);
layerId = "2D992F1A-8218-4049-8E15-5955C72037C9";
name = Bold;
paths = (
{
closed = 1;
nodes = (
"746 670 LINE",
"657 322 LINE",
"551 670 LINE",
"423 670 LINE",
"319 322 LINE",
"228 670 LINE",
"10 670 LINE",
"230 0 LINE",
"371 0 LINE",
"488 355 LINE",
"605 0 LINE",
"746 0 LINE",
"964 670 LINE"
);
}
);
width = 974;
}
);
leftMetricsKey = "=V";
rightMetricsKey = "=V";
unicode = 0057;
},
{
glyphname = X;
lastChange = "2015-07-09 03:01:27 +0000";
layers = (
{
layerId = "DEFEBCF2-9FF2-4B76-ADC8-AB6BD79F23E7";
leftMetricsKey = "=V";
rightMetricsKey = "=V";
name = Regular;
paths = (
{
closed = 1;
nodes = (
"514 670 LINE",
"320 397 LINE",
"130 670 LINE",
"10 670 LINE",
"261 335 LINE",
"10 0 LINE",
"120 0 LINE",
"312 262 LINE",
"514 0 LINE",
"634 0 LINE",
"371 325 LINE",
"634 670 LINE"
);
}
);
width = 644;
},
{
layerId = "2D992F1A-8218-4049-8E15-5955C72037C9";
name = Bold;
paths = (
{
closed = 1;
nodes = (
"486 670 LINE",
"363 457 LINE",
"240 670 LINE",
"10 670 LINE",
"225 336 LINE",
"10 0 LINE",
"240 0 LINE",
"363 205 LINE",
"486 0 LINE",
"716 0 LINE",
"501 336 LINE",
"716 670 LINE"
);
}
);
width = 726;
}
);
leftMetricsKey = "=V";
rightMetricsKey = "=V";
unicode = 0058;
},
{
glyphname = Y;
lastChange = "2015-07-09 03:01:27 +0000";
layers = (
{
anchors = (
{
name = top;
position = "{316, 670}";
}
);
layerId = "DEFEBCF2-9FF2-4B76-ADC8-AB6BD79F23E7";
leftMetricsKey = "=V";
rightMetricsKey = "=V";
name = Regular;
paths = (
{
closed = 1;
nodes = (
"513 670 LINE",
"314 354 LINE",
"118 670 LINE",
"10 670 LINE",
"295 217 LINE",
"326 217 LINE",
"621 670 LINE"
);
},
{
closed = 1;
nodes = (
"267 304 LINE",
"267 0 LINE",
"364 0 LINE",
"364 304 LINE"
);
}
);
width = 631;
},
{
anchors = (
{
name = top;
position = "{366, 670}";
}
);
layerId = "2D992F1A-8218-4049-8E15-5955C72037C9";
name = Bold;
paths = (
{
closed = 1;
nodes = (
"503 670 LINE",
"366 422 LINE",
"228 670 LINE",
"10 670 LINE",
"310 167 LINE",
"421 167 LINE",
"721 670 LINE"
);
},
{
closed = 1;
nodes = (
"272 254 LINE",
"272 0 LINE",
"459 0 LINE",
"459 254 LINE"
);
}
);
width = 731;
}
);
leftMetricsKey = "=V";
rightMetricsKey = "=V";
unicode = 0059;
},
{
glyphname = Z;
lastChange = "2015-07-09 03:01:27 +0000";
layers = (
{
anchors = (
{
name = top;
position = "{326, 670}";
}
);
layerId = "DEFEBCF2-9FF2-4B76-ADC8-AB6BD79F23E7";
leftMetricsKey = "=|L";
rightMetricsKey = "=L";
name = Regular;
paths = (
{
closed = 1;
nodes = (
"67 670 LINE",
"67 585 LINE",
"439 585 LINE",
"67 36 LINE",
"67 0 LINE",
"584 0 LINE",
"584 85 LINE",
"201 85 LINE",
"584 634 LINE",
"584 670 LINE"
);
}
);
width = 651;
},
{
anchors = (
{
name = top;
position = "{349, 670}";
}
);
layerId = "2D992F1A-8218-4049-8E15-5955C72037C9";
name = Bold;
paths = (
{
closed = 1;
nodes = (
"60 670 LINE",
"60 505 LINE",
"332 505 LINE",
"60 36 LINE",
"60 0 LINE",
"637 0 LINE",
"637 165 LINE",
"364 165 LINE",
"637 634 LINE",
"637 670 LINE"
);
}
);
width = 697;
}
);
leftMetricsKey = "=|L";
rightMetricsKey = "=L";
unicode = 005A;
},
{
glyphname = a;
lastChange = "2015-07-09 03:01:27 +0000";
layers = (
{
anchors = (
{
name = ogonek;
position = "{540, 10}";
},
{
name = top;
position = "{311, 500}";
}
);
background = {
paths = (
{
closed = 1;
nodes = (
"154 510 OFFCURVE",
"50 407 OFFCURVE",
"50 242 CURVE SMOOTH",
"50 90 OFFCURVE",
"154 -15 OFFCURVE",
"283 -15 CURVE SMOOTH",
"359 -15 OFFCURVE",
"420 32 OFFCURVE",
"455 85 CURVE",
"455 0 LINE",
"537 0 LINE",
"537 500 LINE",
"455 500 LINE",
"455 433 LINE",
"412 481 OFFCURVE",
"348 510 OFFCURVE",
"291 510 CURVE SMOOTH"
);
},
{
closed = 1;
nodes = (
"199 66 OFFCURVE",
"135 145 OFFCURVE",
"135 242 CURVE SMOOTH",
"135 339 OFFCURVE",
"199 429 OFFCURVE",
"306 429 CURVE SMOOTH",
"367 429 OFFCURVE",
"412 399 OFFCURVE",
"454 347 CURVE",
"455 251 LINE SMOOTH",
"456 144 OFFCURVE",
"387 66 OFFCURVE",
"296 66 CURVE SMOOTH"
);
}
);
};
layerId = "DEFEBCF2-9FF2-4B76-ADC8-AB6BD79F23E7";
leftMetricsKey = "=o";
rightMetricsKey = "=|n";
name = Regular;
paths = (
{
closed = 1;
nodes = (
"154 510 OFFCURVE",
"50 407 OFFCURVE",
"50 242 CURVE SMOOTH",
"50 90 OFFCURVE",
"154 -15 OFFCURVE",
"283 -15 CURVE SMOOTH",
"359 -15 OFFCURVE",
"420 32 OFFCURVE",
"455 85 CURVE",
"455 0 LINE",
"537 0 LINE",
"537 500 LINE",
"455 500 LINE",
"455 433 LINE",
"412 481 OFFCURVE",
"348 510 OFFCURVE",
"291 510 CURVE SMOOTH"
);
},
{
closed = 1;
nodes = (
"367 430 OFFCURVE",
"412 399 OFFCURVE",
"454 347 CURVE",
"455 251 LINE SMOOTH",
"456 144 OFFCURVE",
"387 65 OFFCURVE",
"296 65 CURVE SMOOTH",
"199 65 OFFCURVE",
"135 145 OFFCURVE",
"135 242 CURVE SMOOTH",
"135 339 OFFCURVE",
"199 430 OFFCURVE",
"306 430 CURVE SMOOTH"
);
}
);
width = 622;
},
{
anchors = (
{
name = ogonek;
position = "{553, 10}";
},
{
name = top;
position = "{323, 510}";
}
);
layerId = "2D992F1A-8218-4049-8E15-5955C72037C9";
name = Bold;
paths = (
{
closed = 1;
nodes = (
"141 525 OFFCURVE",
"35 428 OFFCURVE",
"35 256 CURVE SMOOTH",
"35 71 OFFCURVE",
"141 -15 OFFCURVE",
"255 -15 CURVE SMOOTH",
"328 -15 OFFCURVE",
"382 29 OFFCURVE",
"407 85 CURVE",
"407 0 LINE",
"579 0 LINE",
"579 510 LINE",
"407 510 LINE",
"407 463 LINE",
"374 499 OFFCURVE",
"318 525 OFFCURVE",
"265 525 CURVE SMOOTH"
);
},
{
closed = 1;
nodes = (
"339 357 OFFCURVE",
"377 339 OFFCURVE",
"407 315 CURVE",
"407 266 LINE SMOOTH",
"407 192 OFFCURVE",
"349 159 OFFCURVE",
"306 159 CURVE SMOOTH",
"251 159 OFFCURVE",
"215 201 OFFCURVE",
"215 256 CURVE SMOOTH",
"215 310 OFFCURVE",
"251 357 OFFCURVE",
"301 357 CURVE SMOOTH"
);
}
);
width = 649;
}
);
leftMetricsKey = "=o";
rightMetricsKey = "=|n";
unicode = 0061;
},
{
glyphname = b;
lastChange = "2015-07-09 03:01:27 +0000";
layers = (
{
background = {
paths = (
{
closed = 1;
nodes = (
"274 510 OFFCURVE",
"210 481 OFFCURVE",
"167 433 CURVE",
"167 690 LINE",
"85 690 LINE",
"85 0 LINE",
"167 0 LINE",
"167 85 LINE",
"202 32 OFFCURVE",
"263 -15 OFFCURVE",
"339 -15 CURVE SMOOTH",
"468 -15 OFFCURVE",
"572 90 OFFCURVE",
"572 242 CURVE SMOOTH",
"572 407 OFFCURVE",
"468 510 OFFCURVE",
"331 510 CURVE SMOOTH"
);
},
{
closed = 1;
nodes = (
"235 66 OFFCURVE",
"166 144 OFFCURVE",
"167 251 CURVE SMOOTH",
"168 347 LINE",
"210 399 OFFCURVE",
"255 429 OFFCURVE",
"316 429 CURVE SMOOTH",
"423 429 OFFCURVE",
"487 339 OFFCURVE",
"487 242 CURVE SMOOTH",
"487 145 OFFCURVE",
"423 66 OFFCURVE",
"326 66 CURVE SMOOTH"
);
}
);
};
layerId = "DEFEBCF2-9FF2-4B76-ADC8-AB6BD79F23E7";
leftMetricsKey = "=n";
rightMetricsKey = "=o";
name = Regular;
paths = (
{
closed = 1;
nodes = (
"85 720 LINE",
"85 0 LINE",
"167 0 LINE",
"167 67 LINE",
"210 19 OFFCURVE",
"274 -15 OFFCURVE",
"331 -15 CURVE SMOOTH",
"468 -15 OFFCURVE",
"572 93 OFFCURVE",
"572 258 CURVE SMOOTH",
"572 410 OFFCURVE",
"468 510 OFFCURVE",
"339 510 CURVE SMOOTH",
"263 510 OFFCURVE",
"202 468 OFFCURVE",
"167 415 CURVE",
"167 720 LINE"
);
},
{
closed = 1;
nodes = (
"423 430 OFFCURVE",
"487 355 OFFCURVE",
"487 258 CURVE SMOOTH",
"487 161 OFFCURVE",
"423 65 OFFCURVE",
"316 65 CURVE SMOOTH",
"255 65 OFFCURVE",
"210 101 OFFCURVE",
"168 153 CURVE",
"167 249 LINE SMOOTH",
"166 356 OFFCURVE",
"235 430 OFFCURVE",
"326 430 CURVE SMOOTH"
);
}
);
width = 622;
},
{
background = {
paths = (
{
closed = 1;
nodes = (
"478 -15 OFFCURVE",
"614 82 OFFCURVE",
"614 254 CURVE SMOOTH",
"614 439 OFFCURVE",
"508 525 OFFCURVE",
"394 525 CURVE SMOOTH",
"321 525 OFFCURVE",
"267 481 OFFCURVE",
"242 425 CURVE",
"242 720 LINE",
"70 720 LINE",
"70 90 LINE",
"158 12 OFFCURVE",
"223 -15 OFFCURVE",
"354 -15 CURVE SMOOTH"
);
},
{
closed = 1;
nodes = (
"398 351 OFFCURVE",
"434 309 OFFCURVE",
"434 254 CURVE SMOOTH",
"434 200 OFFCURVE",
"398 153 OFFCURVE",
"348 153 CURVE SMOOTH",
"310 153 OFFCURVE",
"272 171 OFFCURVE",
"242 195 CURVE",
"242 244 LINE SMOOTH",
"242 318 OFFCURVE",
"300 351 OFFCURVE",
"343 351 CURVE SMOOTH"
);
}
);
};
layerId = "2D992F1A-8218-4049-8E15-5955C72037C9";
leftMetricsKey = "=n";
rightMetricsKey = "=o";
name = Bold;
paths = (
{
closed = 1;
nodes = (
"70 720 LINE",
"70 0 LINE",
"242 0 LINE",
"242 47 LINE",
"275 11 OFFCURVE",
"331 -15 OFFCURVE",
"384 -15 CURVE SMOOTH",
"508 -15 OFFCURVE",
"614 82 OFFCURVE",
"614 254 CURVE SMOOTH",
"614 439 OFFCURVE",
"508 525 OFFCURVE",
"394 525 CURVE SMOOTH",
"321 525 OFFCURVE",
"267 481 OFFCURVE",
"242 425 CURVE",
"242 720 LINE"
);
},
{
closed = 1;
nodes = (
"398 351 OFFCURVE",
"434 309 OFFCURVE",
"434 254 CURVE SMOOTH",
"434 200 OFFCURVE",
"398 153 OFFCURVE",
"348 153 CURVE SMOOTH",
"310 153 OFFCURVE",
"272 171 OFFCURVE",
"242 195 CURVE",
"242 244 LINE SMOOTH",
"242 318 OFFCURVE",
"300 351 OFFCURVE",
"343 351 CURVE SMOOTH"
);
}
);
width = 649;
}
);
leftMetricsKey = "=n";
rightMetricsKey = "=o";
unicode = 0062;
},
{
glyphname = c;
lastChange = "2015-07-09 03:01:27 +0000";
layers = (
{
anchors = (
{
name = bottom;
position = "{293, 0}";
},
{
name = top;
position = "{300, 500}";
}
);
layerId = "DEFEBCF2-9FF2-4B76-ADC8-AB6BD79F23E7";
leftMetricsKey = "=o";
rightMetricsKey = "=o";
name = Regular;
paths = (
{
closed = 1;
nodes = (
"159 510 OFFCURVE",
"50 389 OFFCURVE",
"50 247 CURVE SMOOTH",
"50 105 OFFCURVE",
"159 -15 OFFCURVE",
"311 -15 CURVE SMOOTH",
"384 -15 OFFCURVE",
"441 14 OFFCURVE",
"461 34 CURVE",
"461 117 LINE",
"423 89 OFFCURVE",
"378 65 OFFCURVE",
"311 65 CURVE SMOOTH",
"204 65 OFFCURVE",
"135 150 OFFCURVE",
"135 247 CURVE SMOOTH",
"135 344 OFFCURVE",
"204 430 OFFCURVE",
"311 430 CURVE SMOOTH",
"378 430 OFFCURVE",
"423 406 OFFCURVE",
"461 378 CURVE",
"461 461 LINE",
"441 480 OFFCURVE",
"384 510 OFFCURVE",
"311 510 CURVE SMOOTH"
);
}
);
width = 511;
},
{
anchors = (
{
name = bottom;
position = "{312, 0}";
},
{
name = top;
position = "{300, 510}";
}
);
background = {
paths = (
{
closed = 1;
nodes = (
"173 525 OFFCURVE",
"35 412 OFFCURVE",
"35 255 CURVE SMOOTH",
"35 98 OFFCURVE",
"173 -15 OFFCURVE",
"315 -15 CURVE SMOOTH",
"457 -15 OFFCURVE",
"595 98 OFFCURVE",
"595 255 CURVE SMOOTH",
"595 412 OFFCURVE",
"457 525 OFFCURVE",
"315 525 CURVE SMOOTH"
);
},
{
closed = 1;
nodes = (
"352 360 OFFCURVE",
"410 342 OFFCURVE",
"410 255 CURVE SMOOTH",
"410 168 OFFCURVE",
"352 150 OFFCURVE",
"315 150 CURVE SMOOTH",
"278 150 OFFCURVE",
"220 168 OFFCURVE",
"220 255 CURVE SMOOTH",
"220 342 OFFCURVE",
"278 360 OFFCURVE",
"315 360 CURVE SMOOTH"
);
}
);
};
layerId = "2D992F1A-8218-4049-8E15-5955C72037C9";
leftMetricsKey = "=o";
rightMetricsKey = "=o-15";
name = Bold;
paths = (
{
closed = 1;
nodes = (
"152 525 OFFCURVE",
"35 394 OFFCURVE",
"35 252 CURVE SMOOTH",
"35 110 OFFCURVE",
"152 -15 OFFCURVE",
"304 -15 CURVE SMOOTH",
"382 -15 OFFCURVE",
"417 10 OFFCURVE",
"452 37 CURVE",
"452 187 LINE",
"421 165 OFFCURVE",
"384 150 OFFCURVE",
"327 150 CURVE SMOOTH",
"270 150 OFFCURVE",
"220 185 OFFCURVE",
"220 252 CURVE SMOOTH",
"220 319 OFFCURVE",
"280 355 OFFCURVE",
"327 355 CURVE SMOOTH",
"384 355 OFFCURVE",
"421 340 OFFCURVE",
"452 318 CURVE",
"452 468 LINE",
"417 495 OFFCURVE",
"382 525 OFFCURVE",
"304 525 CURVE SMOOTH"
);
}
);
width = 472;
}
);
leftMetricsKey = "=i";
rightMetricsKey = "=|n";
unicode = 0063;
},
{
glyphname = d;
lastChange = "2015-07-09 03:01:27 +0000";
layers = (
{
background = {
paths = (
{
closed = 1;
nodes = (
"154 510 OFFCURVE",
"50 407 OFFCURVE",
"50 242 CURVE SMOOTH",
"50 90 OFFCURVE",
"154 -15 OFFCURVE",
"283 -15 CURVE SMOOTH",
"359 -15 OFFCURVE",
"420 32 OFFCURVE",
"455 85 CURVE",
"455 0 LINE",
"537 0 LINE",
"537 690 LINE",
"455 690 LINE",
"455 433 LINE",
"412 481 OFFCURVE",
"348 510 OFFCURVE",
"291 510 CURVE SMOOTH"
);
},
{
closed = 1;
nodes = (
"199 66 OFFCURVE",
"135 145 OFFCURVE",
"135 242 CURVE SMOOTH",
"135 339 OFFCURVE",
"199 429 OFFCURVE",
"306 429 CURVE SMOOTH",
"367 429 OFFCURVE",
"412 399 OFFCURVE",
"454 347 CURVE",
"455 251 LINE SMOOTH",
"456 144 OFFCURVE",
"387 66 OFFCURVE",
"296 66 CURVE SMOOTH"
);
}
);
};
layerId = "DEFEBCF2-9FF2-4B76-ADC8-AB6BD79F23E7";
leftMetricsKey = "=o";
rightMetricsKey = "=|n";
name = Regular;
paths = (
{
closed = 1;
nodes = (
"455 720 LINE",
"455 433 LINE",
"412 481 OFFCURVE",
"348 510 OFFCURVE",
"291 510 CURVE SMOOTH",
"154 510 OFFCURVE",
"50 407 OFFCURVE",
"50 242 CURVE SMOOTH",
"50 90 OFFCURVE",
"154 -15 OFFCURVE",
"283 -15 CURVE SMOOTH",
"359 -15 OFFCURVE",
"420 32 OFFCURVE",
"455 85 CURVE",
"455 0 LINE",
"537 0 LINE",
"537 720 LINE"
);
},
{
closed = 1;
nodes = (
"367 428 OFFCURVE",
"412 399 OFFCURVE",
"454 347 CURVE",
"455 251 LINE SMOOTH",
"456 144 OFFCURVE",
"387 65 OFFCURVE",
"296 65 CURVE SMOOTH",
"199 65 OFFCURVE",
"135 145 OFFCURVE",
"135 242 CURVE SMOOTH",
"135 339 OFFCURVE",
"199 428 OFFCURVE",
"306 428 CURVE SMOOTH"
);
}
);
width = 622;
},
{
layerId = "2D992F1A-8218-4049-8E15-5955C72037C9";
name = Bold;
paths = (
{
closed = 1;
nodes = (
"407 720 LINE",
"407 463 LINE",
"374 499 OFFCURVE",
"318 525 OFFCURVE",
"265 525 CURVE SMOOTH",
"141 525 OFFCURVE",
"35 428 OFFCURVE",
"35 256 CURVE SMOOTH",
"35 71 OFFCURVE",
"141 -15 OFFCURVE",
"255 -15 CURVE SMOOTH",
"328 -15 OFFCURVE",
"382 29 OFFCURVE",
"407 85 CURVE",
"407 0 LINE",
"579 0 LINE",
"579 720 LINE"
);
},
{
closed = 1;
nodes = (
"339 357 OFFCURVE",
"377 339 OFFCURVE",
"407 315 CURVE",
"407 266 LINE SMOOTH",
"407 192 OFFCURVE",
"349 159 OFFCURVE",
"306 159 CURVE SMOOTH",
"251 159 OFFCURVE",
"215 201 OFFCURVE",
"215 256 CURVE SMOOTH",
"215 310 OFFCURVE",
"251 357 OFFCURVE",
"301 357 CURVE SMOOTH"
);
}
);
width = 649;
}
);
leftMetricsKey = "=o";
rightMetricsKey = "=|n";
unicode = 0064;
},
{
glyphname = eth;
lastChange = "2015-07-09 03:01:27 +0000";
layers = (
{
layerId = "DEFEBCF2-9FF2-4B76-ADC8-AB6BD79F23E7";
leftMetricsKey = "=o";
rightMetricsKey = "=o";
name = Regular;
paths = (
{
closed = 1;
nodes = (
"293 659 LINE",
"366 605 OFFCURVE",
"452 511 OFFCURVE",
"483 416 CURVE",
"429 481 OFFCURVE",
"372 510 OFFCURVE",
"311 510 CURVE SMOOTH",
"159 510 OFFCURVE",
"50 389 OFFCURVE",
"50 247 CURVE SMOOTH",
"50 105 OFFCURVE",
"159 -15 OFFCURVE",
"311 -15 CURVE SMOOTH",
"463 -15 OFFCURVE",
"567 115 OFFCURVE",
"567 276 CURVE SMOOTH",
"567 439 OFFCURVE",
"493 584 OFFCURVE",
"333 710 CURVE"
);
},
{
closed = 1;
nodes = (
"418 430 OFFCURVE",
"487 344 OFFCURVE",
"487 247 CURVE SMOOTH",
"487 150 OFFCURVE",
"418 65 OFFCURVE",
"311 65 CURVE SMOOTH",
"204 65 OFFCURVE",
"135 150 OFFCURVE",
"135 247 CURVE SMOOTH",
"135 344 OFFCURVE",
"204 430 OFFCURVE",
"311 430 CURVE SMOOTH"
);
},
{
closed = 1;
nodes = (
"271 580 LINE",
"292 526 LINE",
"531 628 LINE",
"510 682 LINE"
);
}
);
width = 617;
},
{
layerId = "2D992F1A-8218-4049-8E15-5955C72037C9";
name = Bold;
paths = (
{
closed = 1;
nodes = (
"233 635 LINE",
"285 598 OFFCURVE",
"387 515 OFFCURVE",
"411 443 CURVE",
"376 479 OFFCURVE",
"331 500 OFFCURVE",
"294 500 CURVE SMOOTH",
"162 500 OFFCURVE",
"35 409 OFFCURVE",
"35 252 CURVE SMOOTH",
"35 95 OFFCURVE",
"162 -15 OFFCURVE",
"304 -15 CURVE SMOOTH",
"446 -15 OFFCURVE",
"573 92 OFFCURVE",
"573 292 CURVE SMOOTH",
"573 475 OFFCURVE",
"473 610 OFFCURVE",
"323 726 CURVE"
);
},
{
closed = 1;
nodes = (
"371 375 OFFCURVE",
"428 329 OFFCURVE",
"428 252 CURVE SMOOTH",
"428 175 OFFCURVE",
"371 130 OFFCURVE",
"304 130 CURVE SMOOTH",
"237 130 OFFCURVE",
"180 175 OFFCURVE",
"180 252 CURVE SMOOTH",
"180 329 OFFCURVE",
"237 375 OFFCURVE",
"304 375 CURVE SMOOTH"
);
},
{
closed = 1;
nodes = (
"238 571 LINE",
"282 506 LINE",
"521 638 LINE",
"477 708 LINE"
);
}
);
width = 608;
}
);
leftMetricsKey = "=o";
rightMetricsKey = "=o";
unicode = 00F0;
},
{
glyphname = dcaron;
lastChange = "2015-06-14 21:20:05 +0000";
layers = (
{
components = (
{
name = d;
}
);
layerId = "DEFEBCF2-9FF2-4B76-ADC8-AB6BD79F23E7";
name = Regular;
paths = (
{
closed = 1;
nodes = (
"606 530 LINE",
"673 530 LINE",
"703 718 LINE",
"616 718 LINE"
);
}
);
width = 723;
},
{
components = (
{
name = d;
}
);
layerId = "2D992F1A-8218-4049-8E15-5955C72037C9";
name = Bold;
paths = (
{
closed = 1;
nodes = (
"605 530 LINE",
"727 530 LINE",
"757 718 LINE",
"615 718 LINE"
);
}
);
width = 762;
}
);
unicode = 010F;
},
{
glyphname = dcroat;
lastChange = "2015-06-14 06:02:34 +0000";
layers = (
{
components = (
{
name = d;
}
);
layerId = "DEFEBCF2-9FF2-4B76-ADC8-AB6BD79F23E7";
name = Regular;
paths = (
{
closed = 1;
nodes = (
"308 639 LINE",
"308 559 LINE",
"608 559 LINE",
"608 639 LINE"
);
}
);
width = 612;
},
{
components = (
{
name = d;
}
);
layerId = "2D992F1A-8218-4049-8E15-5955C72037C9";
name = Bold;
paths = (
{
closed = 1;
nodes = (
"297 653 LINE",
"297 543 LINE",
"617 543 LINE",
"617 653 LINE"
);
}
);
width = 619;
}
);
unicode = 0111;
},
{
glyphname = e;
lastChange = "2015-06-25 04:30:22 +0000";
layers = (
{
anchors = (
{
name = bottom;
position = "{276, 0}";
},
{
name = ogonek;
position = "{406, 10}";
},
{
name = top;
position = "{296, 500}";
}
);
background = {
paths = (
{
closed = 1;
nodes = (
"159 510 OFFCURVE",
"50 389 OFFCURVE",
"50 247 CURVE SMOOTH",
"50 105 OFFCURVE",
"159 -15 OFFCURVE",
"311 -15 CURVE SMOOTH",
"384 -15 OFFCURVE",
"441 18 OFFCURVE",
"461 38 CURVE",
"461 121 LINE",
"423 93 OFFCURVE",
"378 65 OFFCURVE",
"311 65 CURVE SMOOTH",
"204 65 OFFCURVE",
"135 150 OFFCURVE",
"135 247 CURVE SMOOTH",
"135 344 OFFCURVE",
"204 430 OFFCURVE",
"311 430 CURVE SMOOTH",
"378 430 OFFCURVE",
"423 406 OFFCURVE",
"461 378 CURVE",
"461 461 LINE",
"441 480 OFFCURVE",
"384 510 OFFCURVE",
"311 510 CURVE SMOOTH"
);
}
);
};
hints = (
{
horizontal = 1;
origin = "{0, 28}";
target = "{0, 18}";
},
{
horizontal = 1;
origin = "{0, 24}";
target = "{0, 21}";
},
{
origin = "{0, 21}";
target = "{0, 25}";
},
{
origin = "{0, 2}";
target = "{0, 15}";
},
{
horizontal = 1;
origin = "{0, 5}";
target = "{0, 12}";
}
);
layerId = "DEFEBCF2-9FF2-4B76-ADC8-AB6BD79F23E7";
leftMetricsKey = "=o";
rightMetricsKey = "=o";
name = Regular;
paths = (
{
closed = 1;
nodes = (
"150 510 OFFCURVE",
"50 389 OFFCURVE",
"50 247 CURVE SMOOTH",
"50 105 OFFCURVE",
"159 -15 OFFCURVE",
"311 -15 CURVE SMOOTH",
"389 -15 OFFCURVE",
"441 19 OFFCURVE",
"461 39 CURVE",
"461 122 LINE",
"428 98 OFFCURVE",
"383 65 OFFCURVE",
"311 65 CURVE SMOOTH",
"204 65 OFFCURVE",
"135 150 OFFCURVE",
"135 247 CURVE SMOOTH",
"135 344 OFFCURVE",
"195 430 OFFCURVE",
"291 430 CURVE SMOOTH",
"361 430 OFFCURVE",
"430 385 OFFCURVE",
"440 288 CURVE",
"127 288 LINE",
"127 218 LINE",
"521 218 LINE",
"521 267 LINE SMOOTH",
"521 404 OFFCURVE",
"445 510 OFFCURVE",
"291 510 CURVE SMOOTH"
);
}
);
width = 571;
},
{
anchors = (
{
name = bottom;
position = "{281, 0}";
},
{
name = ogonek;
position = "{443, 10}";
},
{
name = top;
position = "{311, 510}";
}
);
background = {
paths = (
{
closed = 1;
nodes = (
"102 210 LINE",
"553 210 LINE",
"553 267 LINE SMOOTH",
"553 424 OFFCURVE",
"450 525 OFFCURVE",
"306 525 CURVE SMOOTH",
"162 525 OFFCURVE",
"35 399 OFFCURVE",
"35 247 CURVE SMOOTH",
"35 85 OFFCURVE",
"171 -15 OFFCURVE",
"316 -15 CURVE SMOOTH",
"392 -15 OFFCURVE",
"449 10 OFFCURVE",
"484 32 CURVE",
"484 179 LINE",
"456 163 OFFCURVE",
"403 135 OFFCURVE",
"326 135 CURVE SMOOTH",
"255 135 OFFCURVE",
"200 170 OFFCURVE",
"200 247 CURVE SMOOTH",
"200 330 OFFCURVE",
"241 375 OFFCURVE",
"296 375 CURVE SMOOTH",
"341 375 OFFCURVE",
"382 350 OFFCURVE",
"390 312 CURVE",
"102 312 LINE"
);
}
);
};
hints = (
{
horizontal = 1;
origin = "{0, 28}";
target = "{0, 18}";
},
{
origin = "{0, 21}";
target = "{0, 24}";
},
{
horizontal = 1;
origin = "{0, 5}";
target = "{0, 12}";
},
{
origin = "{0, 2}";
target = "{0, 15}";
}
);
layerId = "2D992F1A-8218-4049-8E15-5955C72037C9";
leftMetricsKey = "=o";
rightMetricsKey = "=o-10";
name = Bold;
paths = (
{
closed = 1;
nodes = (
"152 525 OFFCURVE",
"35 399 OFFCURVE",
"35 247 CURVE SMOOTH",
"35 85 OFFCURVE",
"171 -15 OFFCURVE",
"316 -15 CURVE SMOOTH",
"392 -15 OFFCURVE",
"449 0 OFFCURVE",
"484 22 CURVE",
"484 169 LINE",
"456 153 OFFCURVE",
"403 135 OFFCURVE",
"326 135 CURVE SMOOTH",
"255 135 OFFCURVE",
"200 170 OFFCURVE",
"200 247 CURVE SMOOTH",
"200 340 OFFCURVE",
"241 383 OFFCURVE",
"301 383 CURVE SMOOTH",
"346 383 OFFCURVE",
"390 354 OFFCURVE",
"390 306 CURVE",
"192 306 LINE",
"192 210 LINE",
"553 210 LINE",
"553 267 LINE SMOOTH",
"553 424 OFFCURVE",
"450 525 OFFCURVE",
"306 525 CURVE SMOOTH"
);
}
);
width = 578;
}
);
leftMetricsKey = "=o";
rightMetricsKey = "=o-30";
unicode = 0065;
},
{
glyphname = f;
lastChange = "2015-06-16 03:51:39 +0000";
layers = (
{
background = {
paths = (
{
closed = 1;
nodes = (
"196 750 OFFCURVE",
"116 696 OFFCURVE",
"116 579 CURVE SMOOTH",
"116 0 LINE",
"198 0 LINE",
"198 570 LINE SMOOTH",
"198 644 OFFCURVE",
"227 670 OFFCURVE",
"276 672 CURVE SMOOTH",
"304 673 OFFCURVE",
"334 664 OFFCURVE",
"354 651 CURVE",
"354 723 LINE",
"334 740 OFFCURVE",
"305 750 OFFCURVE",
"271 750 CURVE SMOOTH"
);
},
{
closed = 1;
nodes = (
"37 500 LINE",
"37 423 LINE",
"344 423 LINE",
"344 500 LINE"
);
}
);
};
layerId = "DEFEBCF2-9FF2-4B76-ADC8-AB6BD79F23E7";
name = Regular;
paths = (
{
closed = 1;
nodes = (
"196 735 OFFCURVE",
"116 681 OFFCURVE",
"116 564 CURVE SMOOTH",
"116 0 LINE",
"198 0 LINE",
"198 555 LINE SMOOTH",
"198 629 OFFCURVE",
"227 655 OFFCURVE",
"276 657 CURVE SMOOTH",
"304 658 OFFCURVE",
"334 649 OFFCURVE",
"354 636 CURVE",
"354 708 LINE",
"334 725 OFFCURVE",
"305 735 OFFCURVE",
"271 735 CURVE SMOOTH"
);
},
{
closed = 1;
nodes = (
"37 500 LINE",
"37 423 LINE",
"344 423 LINE",
"344 500 LINE"
);
}
);
width = 368;
},
{
layerId = "2D992F1A-8218-4049-8E15-5955C72037C9";
name = Bold;
paths = (
{
closed = 1;
nodes = (
"200 735 OFFCURVE",
"116 651 OFFCURVE",
"116 536 CURVE SMOOTH",
"116 0 LINE",
"288 0 LINE",
"288 529 LINE SMOOTH",
"288 567 OFFCURVE",
"322 587 OFFCURVE",
"353 587 CURVE SMOOTH",
"383 587 OFFCURVE",
"408 581 OFFCURVE",
"428 570 CURVE",
"428 710 LINE",
"401 725 OFFCURVE",
"366 735 OFFCURVE",
"315 735 CURVE SMOOTH"
);
},
{
closed = 1;
nodes = (
"40 510 LINE",
"40 375 LINE",
"404 375 LINE",
"404 510 LINE"
);
}
);
width = 433;
}
);
unicode = 0066;
},
{
glyphname = g;
lastChange = "2015-07-09 02:58:05 +0000";
layers = (
{
anchors = (
{
name = top;
position = "{311, 500}";
}
);
background = {
paths = (
{
closed = 1;
nodes = (
"154 510 OFFCURVE",
"50 407 OFFCURVE",
"50 242 CURVE SMOOTH",
"50 90 OFFCURVE",
"154 -15 OFFCURVE",
"283 -15 CURVE SMOOTH",
"359 -15 OFFCURVE",
"420 32 OFFCURVE",
"455 85 CURVE",
"455 -20 LINE SMOOTH",
"455 -119 OFFCURVE",
"371 -175 OFFCURVE",
"274 -175 CURVE SMOOTH",
"187 -175 OFFCURVE",
"119 -129 OFFCURVE",
"91 -113 CURVE",
"91 -201 LINE",
"126 -223 OFFCURVE",
"181 -255 OFFCURVE",
"274 -255 CURVE SMOOTH",
"416 -255 OFFCURVE",
"537 -169 OFFCURVE",
"537 10 CURVE SMOOTH",
"537 500 LINE",
"455 500 LINE",
"455 433 LINE",
"412 481 OFFCURVE",
"348 510 OFFCURVE",
"291 510 CURVE SMOOTH"
);
},
{
closed = 1;
nodes = (
"367 429 OFFCURVE",
"412 399 OFFCURVE",
"454 347 CURVE",
"455 251 LINE SMOOTH",
"456 144 OFFCURVE",
"387 66 OFFCURVE",
"296 66 CURVE SMOOTH",
"199 66 OFFCURVE",
"135 145 OFFCURVE",
"135 242 CURVE SMOOTH",
"135 339 OFFCURVE",
"199 429 OFFCURVE",
"306 429 CURVE SMOOTH"
);
}
);
};
layerId = "DEFEBCF2-9FF2-4B76-ADC8-AB6BD79F23E7";
leftMetricsKey = "=o";
rightMetricsKey = "=|n";
name = Regular;
paths = (
{
closed = 1;
nodes = (
"154 510 OFFCURVE",
"50 407 OFFCURVE",
"50 242 CURVE SMOOTH",
"50 90 OFFCURVE",
"154 -15 OFFCURVE",
"283 -15 CURVE SMOOTH",
"359 -15 OFFCURVE",
"420 32 OFFCURVE",
"455 85 CURVE",
"455 -20 LINE SMOOTH",
"455 -119 OFFCURVE",
"371 -175 OFFCURVE",
"274 -175 CURVE SMOOTH",
"187 -175 OFFCURVE",
"119 -129 OFFCURVE",
"91 -113 CURVE",
"91 -201 LINE",
"126 -223 OFFCURVE",
"181 -255 OFFCURVE",
"274 -255 CURVE SMOOTH",
"416 -255 OFFCURVE",
"537 -169 OFFCURVE",
"537 10 CURVE SMOOTH",
"537 500 LINE",
"455 500 LINE",
"455 433 LINE",
"412 481 OFFCURVE",
"348 510 OFFCURVE",
"291 510 CURVE SMOOTH"
);
},
{
closed = 1;
nodes = (
"367 429 OFFCURVE",
"412 399 OFFCURVE",
"454 347 CURVE",
"455 251 LINE SMOOTH",
"456 144 OFFCURVE",
"387 66 OFFCURVE",
"296 66 CURVE SMOOTH",
"199 66 OFFCURVE",
"135 145 OFFCURVE",
"135 242 CURVE SMOOTH",
"135 339 OFFCURVE",
"199 429 OFFCURVE",
"306 429 CURVE SMOOTH"
);
}
);
width = 622;
},
{
anchors = (
{
name = top;
position = "{320, 510}";
}
);
background = {
paths = (
{
closed = 1;
nodes = (
"159 520 OFFCURVE",
"35 428 OFFCURVE",
"35 253 CURVE SMOOTH",
"35 71 OFFCURVE",
"149 -10 OFFCURVE",
"273 -10 CURVE SMOOTH",
"326 -10 OFFCURVE",
"390 21 OFFCURVE",
"425 85 CURVE",
"425 -200 LINE",
"567 -200 LINE",
"567 510 LINE",
"425 510 LINE",
"425 463 LINE",
"392 499 OFFCURVE",
"339 520 OFFCURVE",
"283 520 CURVE SMOOTH"
);
},
{
closed = 1;
nodes = (
"234 129 OFFCURVE",
"195 182 OFFCURVE",
"195 258 CURVE SMOOTH",
"195 345 OFFCURVE",
"249 387 OFFCURVE",
"306 387 CURVE SMOOTH",
"357 387 OFFCURVE",
"395 366 OFFCURVE",
"425 345 CURVE",
"425 264 LINE SMOOTH",
"425 180 OFFCURVE",
"372 129 OFFCURVE",
"301 129 CURVE SMOOTH"
);
}
);
};
layerId = "2D992F1A-8218-4049-8E15-5955C72037C9";
name = Bold;
paths = (
{
closed = 1;
nodes = (
"141 525 OFFCURVE",
"35 428 OFFCURVE",
"35 256 CURVE SMOOTH",
"35 71 OFFCURVE",
"141 -15 OFFCURVE",
"255 -15 CURVE SMOOTH",
"328 -15 OFFCURVE",
"382 29 OFFCURVE",
"407 85 CURVE",
"407 14 LINE SMOOTH",
"407 -45 OFFCURVE",
"346 -100 OFFCURVE",
"263 -100 CURVE SMOOTH",
"180 -100 OFFCURVE",
"127 -76 OFFCURVE",
"64 -49 CURVE",
"64 -201 LINE",
"132 -238 OFFCURVE",
"194 -255 OFFCURVE",
"279 -255 CURVE SMOOTH",
"436 -255 OFFCURVE",
"579 -147 OFFCURVE",
"579 15 CURVE SMOOTH",
"579 510 LINE",
"407 510 LINE",
"407 463 LINE",
"374 499 OFFCURVE",
"318 525 OFFCURVE",
"265 525 CURVE SMOOTH"
);
},
{
closed = 1;
nodes = (
"339 357 OFFCURVE",
"377 339 OFFCURVE",
"407 315 CURVE",
"407 266 LINE SMOOTH",
"407 192 OFFCURVE",
"349 159 OFFCURVE",
"306 159 CURVE SMOOTH",
"251 159 OFFCURVE",
"215 201 OFFCURVE",
"215 256 CURVE SMOOTH",
"215 310 OFFCURVE",
"251 357 OFFCURVE",
"301 357 CURVE SMOOTH"
);
}
);
width = 649;
}
);
leftMetricsKey = "=o";
rightMetricsKey = "=|n";
unicode = 0067;
},
{
glyphname = h;
lastChange = "2015-07-09 03:01:27 +0000";
layers = (
{
layerId = "DEFEBCF2-9FF2-4B76-ADC8-AB6BD79F23E7";
leftMetricsKey = "=n";
rightMetricsKey = "=n";
name = Regular;
paths = (
{
closed = 1;
nodes = (
"85 720 LINE",
"85 0 LINE",
"167 0 LINE",
"167 720 LINE"
);
},
{
closed = 1;
nodes = (
"262 510 OFFCURVE",
"198 460 OFFCURVE",
"167 421 CURVE",
"167 332 LINE",
"207 384 OFFCURVE",
"263 430 OFFCURVE",
"316 430 CURVE SMOOTH",
"395 430 OFFCURVE",
"432 383 OFFCURVE",
"432 297 CURVE SMOOTH",
"433 0 LINE",
"515 0 LINE",
"515 305 LINE SMOOTH",
"515 443 OFFCURVE",
"432 510 OFFCURVE",
"330 510 CURVE SMOOTH"
);
}
);
width = 585;
},
{
layerId = "2D992F1A-8218-4049-8E15-5955C72037C9";
name = Bold;
paths = (
{
closed = 1;
nodes = (
"70 720 LINE",
"70 0 LINE",
"242 0 LINE",
"242 720 LINE"
);
},
{
closed = 1;
nodes = (
"318 525 OFFCURVE",
"274 488 OFFCURVE",
"242 444 CURVE",
"242 308 LINE",
"260 335 OFFCURVE",
"285 357 OFFCURVE",
"322 357 CURVE SMOOTH",
"357 357 OFFCURVE",
"390 339 OFFCURVE",
"390 288 CURVE SMOOTH",
"391 0 LINE",
"563 0 LINE",
"563 315 LINE SMOOTH",
"563 453 OFFCURVE",
"490 525 OFFCURVE",
"386 525 CURVE SMOOTH"
);
}
);
width = 628;
}
);
leftMetricsKey = "=n";
rightMetricsKey = "=n";
unicode = 0068;
},
{
glyphname = i;
lastChange = "2015-07-09 03:01:30 +0000";
layers = (
{
anchors = (
{
name = ogonek;
position = "{218, 0}";
},
{
name = top;
position = "{177, 500}";
}
);
components = (
{
name = idotless;
}
);
layerId = "DEFEBCF2-9FF2-4B76-ADC8-AB6BD79F23E7";
leftMetricsKey = "=n-30";
rightMetricsKey = "=|n-10";
name = Regular;
paths = (
{
closed = 1;
nodes = (
"126 740 OFFCURVE",
"97 708 OFFCURVE",
"97 672 CURVE SMOOTH",
"97 637 OFFCURVE",
"126 604 OFFCURVE",
"165 604 CURVE SMOOTH",
"203 604 OFFCURVE",
"233 637 OFFCURVE",
"233 672 CURVE SMOOTH",
"233 708 OFFCURVE",
"203 740 OFFCURVE",
"165 740 CURVE SMOOTH"
);
}
);
width = 308;
},
{
anchors = (
{
name = ogonek;
position = "{295, 0}";
},
{
name = top;
position = "{182, 510}";
}
);
components = (
{
disableAlignment = 1;
name = idotless;
transform = "{1, 0, 0, 1, -5, 0}";
}
);
layerId = "2D992F1A-8218-4049-8E15-5955C72037C9";
leftMetricsKey = "=n-25";
rightMetricsKey = "=|n-10";
name = Bold;
paths = (
{
closed = 1;
nodes = (
"145 796 OFFCURVE",
"96 750 OFFCURVE",
"96 692 CURVE SMOOTH",
"96 635 OFFCURVE",
"145 588 OFFCURVE",
"203 588 CURVE SMOOTH",
"260 588 OFFCURVE",
"311 635 OFFCURVE",
"311 692 CURVE SMOOTH",
"311 750 OFFCURVE",
"260 796 OFFCURVE",
"203 796 CURVE SMOOTH"
);
}
);
width = 371;
}
);
leftMetricsKey = "=n-20";
rightMetricsKey = "=|n-20";
unicode = 0069;
},
{
glyphname = idotless;
lastChange = "2015-07-09 03:01:27 +0000";
layers = (
{
anchors = (
{
name = ogonek;
position = "{216, 0}";
},
{
name = top;
position = "{175, 500}";
}
);
layerId = "DEFEBCF2-9FF2-4B76-ADC8-AB6BD79F23E7";
leftMetricsKey = "=n-30";
rightMetricsKey = "=l";
name = Regular;
paths = (
{
closed = 1;
nodes = (
"134 500 LINE",
"134 0 LINE",
"216 0 LINE",
"216 500 LINE"
);
},
{
closed = 1;
nodes = (
"55 500 LINE",
"55 423 LINE",
"216 423 LINE",
"216 500 LINE"
);
}
);
width = 301;
},
{
anchors = (
{
name = ogonek;
position = "{306, 0}";
},
{
name = top;
position = "{193, 510}";
}
);
layerId = "2D992F1A-8218-4049-8E15-5955C72037C9";
leftMetricsKey = "=n-20";
name = Bold;
paths = (
{
closed = 1;
nodes = (
"133 510 LINE",
"133 0 LINE",
"305 0 LINE",
"305 510 LINE"
);
},
{
closed = 1;
nodes = (
"50 510 LINE",
"50 370 LINE",
"305 370 LINE",
"305 510 LINE"
);
}
);
width = 375;
}
);
leftMetricsKey = "=l";
rightMetricsKey = "=l";
},
{
glyphname = j;
lastChange = "2015-06-25 04:31:45 +0000";
layers = (
{
layerId = "DEFEBCF2-9FF2-4B76-ADC8-AB6BD79F23E7";
rightMetricsKey = "=|n-15";
name = Regular;
paths = (
{
closed = 1;
nodes = (
"122 500 LINE",
"122 -10 LINE SMOOTH",
"122 -92 OFFCURVE",
"83 -139 OFFCURVE",
"-5 -181 CURVE",
"32 -255 LINE",
"137 -212 OFFCURVE",
"204 -133 OFFCURVE",
"204 2 CURVE SMOOTH",
"204 500 LINE"
);
},
{
closed = 1;
nodes = (
"43 500 LINE",
"43 423 LINE",
"198 423 LINE",
"198 500 LINE"
);
},
{
closed = 1;
nodes = (
"112 740 OFFCURVE",
"83 708 OFFCURVE",
"83 672 CURVE SMOOTH",
"83 637 OFFCURVE",
"112 604 OFFCURVE",
"151 604 CURVE SMOOTH",
"189 604 OFFCURVE",
"219 637 OFFCURVE",
"219 672 CURVE SMOOTH",
"219 708 OFFCURVE",
"189 740 OFFCURVE",
"151 740 CURVE SMOOTH"
);
}
);
width = 289;
},
{
layerId = "2D992F1A-8218-4049-8E15-5955C72037C9";
rightMetricsKey = "=|n";
name = Bold;
paths = (
{
closed = 1;
nodes = (
"123 510 LINE",
"123 11 LINE SMOOTH",
"123 -48 OFFCURVE",
"83 -85 OFFCURVE",
"31 -108 CURVE",
"106 -255 LINE",
"231 -215 OFFCURVE",
"295 -130 OFFCURVE",
"295 9 CURVE SMOOTH",
"295 510 LINE"
);
},
{
closed = 1;
nodes = (
"40 510 LINE",
"40 370 LINE",
"274 370 LINE",
"274 510 LINE"
);
},
{
closed = 1;
nodes = (
"146 796 OFFCURVE",
"96 750 OFFCURVE",
"96 692 CURVE SMOOTH",
"96 635 OFFCURVE",
"146 588 OFFCURVE",
"204 588 CURVE SMOOTH",
"261 588 OFFCURVE",
"312 635 OFFCURVE",
"312 692 CURVE SMOOTH",
"312 750 OFFCURVE",
"261 796 OFFCURVE",
"204 796 CURVE SMOOTH"
);
}
);
width = 382;
}
);
rightMetricsKey = "=|n";
unicode = 006A;
},
{
glyphname = k;
lastChange = "2015-07-09 03:01:27 +0000";
layers = (
{
anchors = (
{
name = bottom;
position = "{278, 0}";
}
);
layerId = "DEFEBCF2-9FF2-4B76-ADC8-AB6BD79F23E7";
leftMetricsKey = "=n";
rightMetricsKey = "=v-10";
name = Regular;
paths = (
{
closed = 1;
nodes = (
"416 500 LINE",
"143 233 LINE",
"143 139 LINE",
"527 500 LINE"
);
},
{
closed = 1;
nodes = (
"85 720 LINE",
"85 0 LINE",
"167 0 LINE",
"167 720 LINE"
);
},
{
closed = 1;
nodes = (
"208 263 LINE",
"446 0 LINE",
"550 0 LINE",
"262 321 LINE"
);
}
);
width = 555;
},
{
anchors = (
{
name = bottom;
position = "{328, 0}";
}
);
layerId = "2D992F1A-8218-4049-8E15-5955C72037C9";
name = Bold;
paths = (
{
closed = 1;
nodes = (
"405 510 LINE",
"218 275 LINE",
"218 88 LINE",
"613 510 LINE"
);
},
{
closed = 1;
nodes = (
"70 720 LINE",
"70 0 LINE",
"242 0 LINE",
"242 720 LINE"
);
},
{
closed = 1;
nodes = (
"281 214 LINE",
"403 0 LINE",
"630 0 LINE",
"377 331 LINE"
);
}
);
width = 635;
}
);
leftMetricsKey = "=n";
rightMetricsKey = "=v";
unicode = 006B;
},
{
glyphname = l;
lastChange = "2015-06-25 04:27:27 +0000";
layers = (
{
anchors = (
{
name = bottom;
position = "{126, 0}";
},
{
name = top;
position = "{126, 720}";
},
{
name = topright;
position = "{237, 500}";
}
);
layerId = "DEFEBCF2-9FF2-4B76-ADC8-AB6BD79F23E7";
leftMetricsKey = "=n";
rightMetricsKey = "=|n";
name = Regular;
paths = (
{
closed = 1;
nodes = (
"85 720 LINE",
"85 0 LINE",
"167 0 LINE",
"167 720 LINE"
);
}
);
width = 252;
},
{
anchors = (
{
name = bottom;
position = "{156, 0}";
},
{
name = top;
position = "{207, 720}";
},
{
name = topright;
position = "{272, 510}";
}
);
layerId = "2D992F1A-8218-4049-8E15-5955C72037C9";
leftMetricsKey = "=n";
rightMetricsKey = "=|n";
name = Bold;
paths = (
{
closed = 1;
nodes = (
"70 720 LINE",
"70 0 LINE",
"242 0 LINE",
"242 720 LINE"
);
}
);
width = 312;
}
);
leftMetricsKey = "=n";
rightMetricsKey = "=|n";
unicode = 006C;
},
{
glyphname = lcaron;
lastChange = "2015-06-14 21:20:08 +0000";
layers = (
{
components = (
{
name = l;
}
);
layerId = "DEFEBCF2-9FF2-4B76-ADC8-AB6BD79F23E7";
name = Regular;
paths = (
{
closed = 1;
nodes = (
"255 530 LINE",
"322 530 LINE",
"352 718 LINE",
"265 718 LINE"
);
}
);
width = 372;
},
{
components = (
{
name = l;
}
);
layerId = "2D992F1A-8218-4049-8E15-5955C72037C9";
name = Bold;
paths = (
{
closed = 1;
nodes = (
"265 530 LINE",
"387 530 LINE",
"417 718 LINE",
"275 718 LINE"
);
}
);
width = 422;
}
);
unicode = 013E;
},
{
glyphname = lslash;
lastChange = "2015-06-14 21:23:39 +0000";
layers = (
{
components = (
{
name = l;
transform = "{1, 0, 0, 1, 15, 0}";
}
);
layerId = "DEFEBCF2-9FF2-4B76-ADC8-AB6BD79F23E7";
name = Regular;
paths = (
{
closed = 1;
nodes = (
"10 309 LINE",
"10 233 LINE",
"291 441 LINE",
"291 517 LINE"
);
}
);
width = 301;
},
{
components = (
{
name = l;
transform = "{1, 0, 0, 1, 35, 0}";
}
);
layerId = "2D992F1A-8218-4049-8E15-5955C72037C9";
name = Bold;
paths = (
{
closed = 1;
nodes = (
"10 329 LINE",
"10 173 LINE",
"331 381 LINE",
"331 537 LINE"
);
}
);
width = 341;
}
);
unicode = 0142;
},
{
glyphname = m;
lastChange = "2015-07-09 03:01:27 +0000";
layers = (
{
layerId = "DEFEBCF2-9FF2-4B76-ADC8-AB6BD79F23E7";
leftMetricsKey = "=n";
rightMetricsKey = "=n";
name = Regular;
paths = (
{
closed = 1;
nodes = (
"584 510 OFFCURVE",
"531 458 OFFCURVE",
"482 399 CURVE",
"506 332 LINE",
"546 384 OFFCURVE",
"587 430 OFFCURVE",
"648 430 CURVE SMOOTH",
"727 430 OFFCURVE",
"774 383 OFFCURVE",
"774 297 CURVE SMOOTH",
"775 0 LINE",
"857 0 LINE",
"857 305 LINE SMOOTH",
"857 443 OFFCURVE",
"764 510 OFFCURVE",
"662 510 CURVE SMOOTH"
);
},
{
closed = 1;
nodes = (
"85 500 LINE",
"85 0 LINE",
"167 0 LINE",
"167 500 LINE"
);
},
{
closed = 1;
nodes = (
"239 510 OFFCURVE",
"185 460 OFFCURVE",
"154 421 CURVE",
"154 332 LINE",
"194 384 OFFCURVE",
"242 430 OFFCURVE",
"303 430 CURVE SMOOTH",
"382 430 OFFCURVE",
"429 383 OFFCURVE",
"429 297 CURVE SMOOTH",
"430 0 LINE",
"512 0 LINE",
"512 356 LINE",
"501 380 LINE",
"474 467 OFFCURVE",
"398 510 OFFCURVE",
"317 510 CURVE SMOOTH"
);
}
);
width = 927;
},
{
layerId = "2D992F1A-8218-4049-8E15-5955C72037C9";
name = Bold;
paths = (
{
closed = 1;
nodes = (
"609 525 OFFCURVE",
"553 482 OFFCURVE",
"521 426 CURVE",
"546 308 LINE",
"564 335 OFFCURVE",
"585 357 OFFCURVE",
"616 357 CURVE SMOOTH",
"651 357 OFFCURVE",
"681 339 OFFCURVE",
"681 288 CURVE SMOOTH",
"682 0 LINE",
"854 0 LINE",
"854 315 LINE SMOOTH",
"854 453 OFFCURVE",
"781 525 OFFCURVE",
"677 525 CURVE SMOOTH"
);
},
{
closed = 1;
nodes = (
"70 510 LINE",
"70 0 LINE",
"242 0 LINE",
"242 510 LINE"
);
},
{
closed = 1;
nodes = (
"303 525 OFFCURVE",
"274 488 OFFCURVE",
"242 444 CURVE",
"242 308 LINE",
"260 335 OFFCURVE",
"279 357 OFFCURVE",
"310 357 CURVE SMOOTH",
"345 357 OFFCURVE",
"375 339 OFFCURVE",
"375 288 CURVE SMOOTH",
"376 0 LINE",
"548 0 LINE",
"548 328 LINE",
"537 399 LINE",
"513 482 OFFCURVE",
"451 525 OFFCURVE",
"371 525 CURVE SMOOTH"
);
}
);
width = 919;
}
);
leftMetricsKey = "=n";
rightMetricsKey = "=n";
unicode = 006D;
},
{
glyphname = n;
lastChange = "2015-06-16 11:54:01 +0000";
layers = (
{
anchors = (
{
name = bottom;
position = "{298, 0}";
},
{
name = top;
position = "{306, 500}";
}
);
background = {
paths = (
{
closed = 1;
nodes = (
"85 500 LINE",
"85 0 LINE",
"167 0 LINE",
"167 500 LINE"
);
},
{
closed = 1;
nodes = (
"270 510 OFFCURVE",
"209 478 OFFCURVE",
"167 436 CURVE",
"167 350 LINE",
"207 402 OFFCURVE",
"265 430 OFFCURVE",
"316 430 CURVE SMOOTH",
"377 430 OFFCURVE",
"442 395 OFFCURVE",
"442 322 CURVE SMOOTH",
"443 0 LINE",
"525 0 LINE",
"525 315 LINE SMOOTH",
"525 453 OFFCURVE",
"432 510 OFFCURVE",
"330 510 CURVE SMOOTH"
);
}
);
};
layerId = "DEFEBCF2-9FF2-4B76-ADC8-AB6BD79F23E7";
name = Regular;
paths = (
{
closed = 1;
nodes = (
"262 510 OFFCURVE",
"198 460 OFFCURVE",
"167 421 CURVE",
"167 332 LINE",
"207 384 OFFCURVE",
"263 430 OFFCURVE",
"316 430 CURVE SMOOTH",
"395 430 OFFCURVE",
"432 383 OFFCURVE",
"432 297 CURVE SMOOTH",
"433 0 LINE",
"515 0 LINE",
"515 305 LINE SMOOTH",
"515 443 OFFCURVE",
"432 510 OFFCURVE",
"330 510 CURVE SMOOTH"
);
},
{
closed = 1;
nodes = (
"85 500 LINE",
"85 0 LINE",
"167 0 LINE",
"167 500 LINE"
);
}
);
width = 585;
},
{
anchors = (
{
name = bottom;
position = "{323, 0}";
},
{
name = top;
position = "{333, 513}";
}
);
layerId = "2D992F1A-8218-4049-8E15-5955C72037C9";
name = Bold;
paths = (
{
closed = 1;
nodes = (
"318 525 OFFCURVE",
"274 488 OFFCURVE",
"242 444 CURVE",
"242 308 LINE",
"260 335 OFFCURVE",
"285 357 OFFCURVE",
"322 357 CURVE SMOOTH",
"357 357 OFFCURVE",
"390 339 OFFCURVE",
"390 288 CURVE SMOOTH",
"391 0 LINE",
"563 0 LINE",
"563 315 LINE SMOOTH",
"563 453 OFFCURVE",
"490 525 OFFCURVE",
"386 525 CURVE SMOOTH"
);
},
{
closed = 1;
nodes = (
"70 510 LINE",
"70 0 LINE",
"242 0 LINE",
"242 510 LINE"
);
}
);
width = 628;
}
);
unicode = 006E;
},
{
glyphname = eng;
lastChange = "2015-07-09 03:01:27 +0000";
layers = (
{
components = (
{
name = n;
}
);
layerId = "DEFEBCF2-9FF2-4B76-ADC8-AB6BD79F23E7";
name = Regular;
paths = (
{
closed = 1;
nodes = (
"433 88 LINE",
"433 -5 LINE SMOOTH",
"433 -87 OFFCURVE",
"394 -139 OFFCURVE",
"306 -181 CURVE",
"343 -255 LINE",
"448 -212 OFFCURVE",
"515 -128 OFFCURVE",
"515 -13 CURVE SMOOTH",
"515 88 LINE"
);
}
);
width = 585;
},
{
components = (
{
name = n;
}
);
layerId = "2D992F1A-8218-4049-8E15-5955C72037C9";
leftMetricsKey = "=n";
rightMetricsKey = "=j";
name = Bold;
paths = (
{
closed = 1;
nodes = (
"390 184 LINE",
"390 11 LINE SMOOTH",
"390 -48 OFFCURVE",
"350 -85 OFFCURVE",
"298 -108 CURVE",
"373 -255 LINE",
"498 -215 OFFCURVE",
"562 -130 OFFCURVE",
"562 -41 CURVE SMOOTH",
"562 184 LINE"
);
}
);
width = 633;
}
);
leftMetricsKey = "=n";
rightMetricsKey = "=j";
unicode = 014B;
},
{
glyphname = o;
lastChange = "2015-06-16 11:53:55 +0000";
layers = (
{
anchors = (
{
name = top;
position = "{311, 500}";
}
);
layerId = "DEFEBCF2-9FF2-4B76-ADC8-AB6BD79F23E7";
name = Regular;
paths = (
{
closed = 1;
nodes = (
"159 510 OFFCURVE",
"50 389 OFFCURVE",
"50 247 CURVE SMOOTH",
"50 105 OFFCURVE",
"159 -15 OFFCURVE",
"311 -15 CURVE SMOOTH",
"463 -15 OFFCURVE",
"572 105 OFFCURVE",
"572 247 CURVE SMOOTH",
"572 389 OFFCURVE",
"463 510 OFFCURVE",
"311 510 CURVE SMOOTH"
);
},
{
closed = 1;
nodes = (
"418 430 OFFCURVE",
"487 344 OFFCURVE",
"487 247 CURVE SMOOTH",
"487 150 OFFCURVE",
"418 65 OFFCURVE",
"311 65 CURVE SMOOTH",
"204 65 OFFCURVE",
"135 150 OFFCURVE",
"135 247 CURVE SMOOTH",
"135 344 OFFCURVE",
"204 430 OFFCURVE",
"311 430 CURVE SMOOTH"
);
}
);
width = 622;
},
{
anchors = (
{
name = top;
position = "{315, 510}";
}
);
layerId = "2D992F1A-8218-4049-8E15-5955C72037C9";
name = Bold;
paths = (
{
closed = 1;
nodes = (
"173 525 OFFCURVE",
"35 412 OFFCURVE",
"35 255 CURVE SMOOTH",
"35 98 OFFCURVE",
"173 -15 OFFCURVE",
"315 -15 CURVE SMOOTH",
"457 -15 OFFCURVE",
"595 98 OFFCURVE",
"595 255 CURVE SMOOTH",
"595 412 OFFCURVE",
"457 525 OFFCURVE",
"315 525 CURVE SMOOTH"
);
},
{
closed = 1;
nodes = (
"352 360 OFFCURVE",
"410 342 OFFCURVE",
"410 255 CURVE SMOOTH",
"410 168 OFFCURVE",
"352 150 OFFCURVE",
"315 150 CURVE SMOOTH",
"278 150 OFFCURVE",
"220 168 OFFCURVE",
"220 255 CURVE SMOOTH",
"220 342 OFFCURVE",
"278 360 OFFCURVE",
"315 360 CURVE SMOOTH"
);
}
);
width = 630;
}
);
unicode = 006F;
},
{
glyphname = oslash;
lastChange = "2015-06-14 21:30:27 +0000";
layers = (
{
components = (
{
name = o;
}
);
layerId = "DEFEBCF2-9FF2-4B76-ADC8-AB6BD79F23E7";
name = Regular;
paths = (
{
closed = 1;
nodes = (
"47 25 LINE",
"96 -15 LINE",
"555 470 LINE",
"503 510 LINE"
);
}
);
width = 612;
},
{
components = (
{
name = o;
}
);
layerId = "2D992F1A-8218-4049-8E15-5955C72037C9";
name = Bold;
paths = (
{
closed = 1;
nodes = (
"47 35 LINE",
"116 -25 LINE",
"575 468 LINE",
"503 528 LINE"
);
}
);
width = 600;
}
);
unicode = 00F8;
},
{
glyphname = p;
lastChange = "2015-07-09 03:01:27 +0000";
layers = (
{
layerId = "DEFEBCF2-9FF2-4B76-ADC8-AB6BD79F23E7";
leftMetricsKey = "=n";
rightMetricsKey = "=o";
name = Regular;
paths = (
{
closed = 1;
nodes = (
"263 510 OFFCURVE",
"202 468 OFFCURVE",
"167 415 CURVE",
"167 500 LINE",
"85 500 LINE",
"85 -240 LINE",
"167 -240 LINE",
"167 67 LINE",
"210 19 OFFCURVE",
"274 -15 OFFCURVE",
"331 -15 CURVE SMOOTH",
"468 -15 OFFCURVE",
"572 93 OFFCURVE",
"572 258 CURVE SMOOTH",
"572 410 OFFCURVE",
"468 510 OFFCURVE",
"339 510 CURVE SMOOTH"
);
},
{
closed = 1;
nodes = (
"423 430 OFFCURVE",
"487 355 OFFCURVE",
"487 258 CURVE SMOOTH",
"487 161 OFFCURVE",
"423 65 OFFCURVE",
"316 65 CURVE SMOOTH",
"255 65 OFFCURVE",
"210 101 OFFCURVE",
"168 153 CURVE",
"167 249 LINE SMOOTH",
"166 356 OFFCURVE",
"235 430 OFFCURVE",
"326 430 CURVE SMOOTH"
);
}
);
width = 622;
},
{
layerId = "2D992F1A-8218-4049-8E15-5955C72037C9";
leftMetricsKey = "=n";
rightMetricsKey = "=o";
name = Bold;
paths = (
{
closed = 1;
nodes = (
"321 525 OFFCURVE",
"267 481 OFFCURVE",
"242 425 CURVE",
"242 510 LINE",
"70 510 LINE",
"70 -240 LINE",
"242 -240 LINE",
"242 47 LINE",
"275 11 OFFCURVE",
"331 -15 OFFCURVE",
"384 -15 CURVE SMOOTH",
"508 -15 OFFCURVE",
"614 82 OFFCURVE",
"614 254 CURVE SMOOTH",
"614 439 OFFCURVE",
"508 525 OFFCURVE",
"394 525 CURVE SMOOTH"
);
},
{
closed = 1;
nodes = (
"398 351 OFFCURVE",
"434 309 OFFCURVE",
"434 254 CURVE SMOOTH",
"434 200 OFFCURVE",
"398 153 OFFCURVE",
"348 153 CURVE SMOOTH",
"310 153 OFFCURVE",
"272 171 OFFCURVE",
"242 195 CURVE",
"242 244 LINE SMOOTH",
"242 318 OFFCURVE",
"300 351 OFFCURVE",
"343 351 CURVE SMOOTH"
);
}
);
width = 649;
}
);
leftMetricsKey = "=|d";
rightMetricsKey = "=|d";
unicode = 0070;
},
{
glyphname = thorn;
lastChange = "2015-07-09 03:01:27 +0000";
layers = (
{
layerId = "DEFEBCF2-9FF2-4B76-ADC8-AB6BD79F23E7";
leftMetricsKey = "=b";
rightMetricsKey = "=b";
name = Regular;
paths = (
{
closed = 1;
nodes = (
"85 -240 LINE",
"167 -240 LINE",
"167 67 LINE",
"210 19 OFFCURVE",
"274 -10 OFFCURVE",
"331 -10 CURVE SMOOTH",
"468 -10 OFFCURVE",
"572 93 OFFCURVE",
"572 258 CURVE SMOOTH",
"572 410 OFFCURVE",
"468 510 OFFCURVE",
"339 510 CURVE SMOOTH",
"263 510 OFFCURVE",
"202 468 OFFCURVE",
"167 415 CURVE",
"167 720 LINE",
"85 720 LINE"
);
},
{
closed = 1;
nodes = (
"423 429 OFFCURVE",
"487 355 OFFCURVE",
"487 258 CURVE SMOOTH",
"487 161 OFFCURVE",
"423 71 OFFCURVE",
"316 71 CURVE SMOOTH",
"255 71 OFFCURVE",
"210 101 OFFCURVE",
"168 153 CURVE",
"167 249 LINE SMOOTH",
"166 356 OFFCURVE",
"235 429 OFFCURVE",
"326 429 CURVE SMOOTH"
);
}
);
width = 622;
},
{
layerId = "2D992F1A-8218-4049-8E15-5955C72037C9";
name = Bold;
paths = (
{
closed = 1;
nodes = (
"70 -210 LINE",
"242 -210 LINE",
"242 47 LINE",
"275 11 OFFCURVE",
"331 -15 OFFCURVE",
"384 -15 CURVE SMOOTH",
"508 -15 OFFCURVE",
"614 82 OFFCURVE",
"614 254 CURVE SMOOTH",
"614 439 OFFCURVE",
"508 525 OFFCURVE",
"394 525 CURVE SMOOTH",
"321 525 OFFCURVE",
"267 481 OFFCURVE",
"242 425 CURVE",
"242 720 LINE",
"70 720 LINE"
);
},
{
closed = 1;
nodes = (
"398 351 OFFCURVE",
"434 309 OFFCURVE",
"434 254 CURVE SMOOTH",
"434 200 OFFCURVE",
"398 153 OFFCURVE",
"348 153 CURVE SMOOTH",
"310 153 OFFCURVE",
"272 171 OFFCURVE",
"242 195 CURVE",
"242 244 LINE SMOOTH",
"242 318 OFFCURVE",
"300 351 OFFCURVE",
"343 351 CURVE SMOOTH"
);
}
);
width = 649;
}
);
leftMetricsKey = "=b";
rightMetricsKey = "=b";
unicode = 00FE;
},
{
glyphname = q;
lastChange = "2015-07-09 03:01:27 +0000";
layers = (
{
layerId = "DEFEBCF2-9FF2-4B76-ADC8-AB6BD79F23E7";
leftMetricsKey = "=o";
rightMetricsKey = "=|n";
name = Regular;
paths = (
{
closed = 1;
nodes = (
"154 510 OFFCURVE",
"50 407 OFFCURVE",
"50 242 CURVE SMOOTH",
"50 90 OFFCURVE",
"154 -15 OFFCURVE",
"283 -15 CURVE SMOOTH",
"359 -15 OFFCURVE",
"420 32 OFFCURVE",
"455 85 CURVE",
"455 -240 LINE",
"537 -240 LINE",
"537 500 LINE",
"455 500 LINE",
"455 433 LINE",
"412 481 OFFCURVE",
"348 510 OFFCURVE",
"291 510 CURVE SMOOTH"
);
},
{
closed = 1;
nodes = (
"367 429 OFFCURVE",
"412 399 OFFCURVE",
"454 347 CURVE",
"455 251 LINE SMOOTH",
"456 144 OFFCURVE",
"387 66 OFFCURVE",
"296 66 CURVE SMOOTH",
"199 66 OFFCURVE",
"135 145 OFFCURVE",
"135 242 CURVE SMOOTH",
"135 339 OFFCURVE",
"199 429 OFFCURVE",
"306 429 CURVE SMOOTH"
);
}
);
width = 622;
},
{
layerId = "2D992F1A-8218-4049-8E15-5955C72037C9";
name = Bold;
paths = (
{
closed = 1;
nodes = (
"141 525 OFFCURVE",
"35 428 OFFCURVE",
"35 256 CURVE SMOOTH",
"35 71 OFFCURVE",
"141 -15 OFFCURVE",
"255 -15 CURVE SMOOTH",
"328 -15 OFFCURVE",
"382 29 OFFCURVE",
"407 85 CURVE",
"407 -240 LINE",
"579 -240 LINE",
"579 510 LINE",
"407 510 LINE",
"407 463 LINE",
"374 499 OFFCURVE",
"318 525 OFFCURVE",
"265 525 CURVE SMOOTH"
);
},
{
closed = 1;
nodes = (
"339 357 OFFCURVE",
"377 339 OFFCURVE",
"407 315 CURVE",
"407 266 LINE SMOOTH",
"407 192 OFFCURVE",
"349 159 OFFCURVE",
"306 159 CURVE SMOOTH",
"251 159 OFFCURVE",
"215 201 OFFCURVE",
"215 256 CURVE SMOOTH",
"215 310 OFFCURVE",
"251 357 OFFCURVE",
"301 357 CURVE SMOOTH"
);
}
);
width = 649;
}
);
leftMetricsKey = "=o";
rightMetricsKey = "=|n";
unicode = 0071;
},
{
glyphname = r;
lastChange = "2015-07-09 03:01:27 +0000";
layers = (
{
anchors = (
{
name = bottom;
position = "{130, 0}";
},
{
name = top;
position = "{227, 500}";
}
);
background = {
paths = (
{
closed = 1;
nodes = (
"85 500 LINE",
"85 0 LINE",
"167 0 LINE",
"167 500 LINE"
);
},
{
closed = 1;
nodes = (
"382 496 LINE",
"364 505 OFFCURVE",
"344 510 OFFCURVE",
"321 510 CURVE SMOOTH",
"264 510 OFFCURVE",
"205 466 OFFCURVE",
"167 400 CURVE",
"167 302 LINE",
"204 369 OFFCURVE",
"241 424 OFFCURVE",
"309 424 CURVE SMOOTH",
"335 424 OFFCURVE",
"361 414 OFFCURVE",
"382 398 CURVE"
);
}
);
};
layerId = "DEFEBCF2-9FF2-4B76-ADC8-AB6BD79F23E7";
leftMetricsKey = "=n";
rightMetricsKey = "=n-50";
name = Regular;
paths = (
{
closed = 1;
nodes = (
"85 500 LINE",
"85 0 LINE",
"167 0 LINE",
"167 500 LINE"
);
},
{
closed = 1;
nodes = (
"382 496 LINE",
"364 505 OFFCURVE",
"344 510 OFFCURVE",
"321 510 CURVE SMOOTH",
"264 510 OFFCURVE",
"205 466 OFFCURVE",
"167 400 CURVE",
"167 302 LINE",
"204 369 OFFCURVE",
"241 424 OFFCURVE",
"309 424 CURVE SMOOTH",
"335 424 OFFCURVE",
"361 414 OFFCURVE",
"382 398 CURVE"
);
}
);
width = 402;
},
{
anchors = (
{
name = bottom;
position = "{226, 0}";
},
{
name = top;
position = "{246, 510}";
}
);
background = {
paths = (
{
closed = 1;
nodes = (
"70 510 LINE",
"70 0 LINE",
"242 0 LINE",
"242 510 LINE"
);
},
{
closed = 1;
nodes = (
"319 520 OFFCURVE",
"274 476 OFFCURVE",
"242 419 CURVE",
"242 202 LINE",
"242 297 OFFCURVE",
"316 345 OFFCURVE",
"383 345 CURVE SMOOTH",
"396 345 OFFCURVE",
"425 342 OFFCURVE",
"442 334 CURVE",
"442 508 LINE",
"429 515 OFFCURVE",
"404 520 OFFCURVE",
"383 520 CURVE SMOOTH"
);
}
);
};
layerId = "2D992F1A-8218-4049-8E15-5955C72037C9";
leftMetricsKey = "=n";
rightMetricsKey = "=n-45";
name = Bold;
paths = (
{
closed = 1;
nodes = (
"70 510 LINE",
"70 0 LINE",
"242 0 LINE",
"242 510 LINE"
);
},
{
closed = 1;
nodes = (
"431 505 LINE",
"414 514 OFFCURVE",
"395 520 OFFCURVE",
"373 520 CURVE SMOOTH",
"309 520 OFFCURVE",
"274 473 OFFCURVE",
"242 419 CURVE",
"242 262 LINE",
"265 307 OFFCURVE",
"301 338 OFFCURVE",
"348 338 CURVE SMOOTH",
"383 338 OFFCURVE",
"406 329 OFFCURVE",
"431 314 CURVE"
);
}
);
width = 451;
}
);
leftMetricsKey = "=l";
rightMetricsKey = "=n-15";
unicode = 0072;
},
{
glyphname = s;
lastChange = "2015-07-09 03:01:27 +0000";
layers = (
{
anchors = (
{
name = bottom;
position = "{206, 0}";
},
{
name = top;
position = "{232, 500}";
}
);
hints = (
{
origin = "{0, 9}";
target = "{0, 22}";
},
{
origin = "{0, 2}";
target = "{0, 29}";
},
{
horizontal = 1;
origin = "{0, 39}";
target = "{0, 32}";
},
{
horizontal = 1;
origin = "{0, 19}";
target = "{0, 12}";
}
);
layerId = "DEFEBCF2-9FF2-4B76-ADC8-AB6BD79F23E7";
leftMetricsKey = "=o";
rightMetricsKey = "=o-10";
name = Regular;
paths = (
{
closed = 1;
nodes = (
"127 510 OFFCURVE",
"58 447 OFFCURVE",
"58 362 CURVE SMOOTH",
"58 305 OFFCURVE",
"76 259 OFFCURVE",
"154 230 CURVE SMOOTH",
"228 203 LINE SMOOTH",
"275 186 OFFCURVE",
"300 170 OFFCURVE",
"300 138 CURVE SMOOTH",
"300 96 OFFCURVE",
"261 65 OFFCURVE",
"198 65 CURVE SMOOTH",
"148 65 OFFCURVE",
"78 96 OFFCURVE",
"50 117 CURVE",
"50 29 LINE",
"73 12 OFFCURVE",
"145 -15 OFFCURVE",
"204 -15 CURVE SMOOTH",
"311 -15 OFFCURVE",
"388 53 OFFCURVE",
"388 138 CURVE SMOOTH",
"388 195 OFFCURVE",
"356 239 OFFCURVE",
"291 262 CURVE SMOOTH",
"207 292 LINE SMOOTH",
"161 308 OFFCURVE",
"146 337 OFFCURVE",
"146 362 CURVE SMOOTH",
"146 394 OFFCURVE",
"177 430 OFFCURVE",
"240 430 CURVE SMOOTH",
"290 430 OFFCURVE",
"343 405 OFFCURVE",
"371 384 CURVE",
"371 472 LINE",
"348 489 OFFCURVE",
"293 510 OFFCURVE",
"234 510 CURVE SMOOTH"
);
}
);
width = 428;
},
{
anchors = (
{
name = bottom;
position = "{228, 0}";
},
{
name = top;
position = "{228, 510}";
}
);
hints = (
{
origin = "{0, 2}";
target = "{0, 29}";
},
{
origin = "{0, 9}";
target = "{0, 22}";
},
{
horizontal = 1;
origin = "{0, 39}";
target = "{0, 32}";
},
{
horizontal = 1;
origin = "{0, 19}";
target = "{0, 12}";
}
);
layerId = "2D992F1A-8218-4049-8E15-5955C72037C9";
leftMetricsKey = "=o";
rightMetricsKey = "=o-15";
name = Bold;
paths = (
{
closed = 1;
nodes = (
"127 525 OFFCURVE",
"35 459 OFFCURVE",
"35 354 CURVE SMOOTH",
"35 283 OFFCURVE",
"68 234 OFFCURVE",
"143 211 CURVE SMOOTH",
"194 195 LINE SMOOTH",
"234 182 OFFCURVE",
"256 175 OFFCURVE",
"256 156 CURVE SMOOTH",
"256 132 OFFCURVE",
"238 124 OFFCURVE",
"200 124 CURVE SMOOTH",
"152 124 OFFCURVE",
"85 146 OFFCURVE",
"37 176 CURVE",
"37 42 LINE",
"83 10 OFFCURVE",
"151 -15 OFFCURVE",
"227 -15 CURVE SMOOTH",
"336 -15 OFFCURVE",
"436 55 OFFCURVE",
"436 155 CURVE SMOOTH",
"436 228 OFFCURVE",
"393 275 OFFCURVE",
"303 298 CURVE SMOOTH",
"272 306 LINE SMOOTH",
"229 317 OFFCURVE",
"218 323 OFFCURVE",
"218 342 CURVE SMOOTH",
"218 369 OFFCURVE",
"247 381 OFFCURVE",
"279 381 CURVE SMOOTH",
"329 381 OFFCURVE",
"374 357 OFFCURVE",
"409 336 CURVE",
"409 471 LINE",
"374 504 OFFCURVE",
"314 525 OFFCURVE",
"248 525 CURVE SMOOTH"
);
}
);
width = 456;
}
);
leftMetricsKey = "=|n";
rightMetricsKey = "=n";
unicode = 0073;
},
{
glyphname = germandbls;
lastChange = "2015-07-09 03:01:27 +0000";
layers = (
{
background = {
paths = (
{
closed = 1;
nodes = (
"347 510 OFFCURVE",
"278 447 OFFCURVE",
"278 362 CURVE SMOOTH",
"278 305 OFFCURVE",
"296 259 OFFCURVE",
"374 230 CURVE SMOOTH",
"448 203 LINE SMOOTH",
"495 186 OFFCURVE",
"520 170 OFFCURVE",
"520 138 CURVE SMOOTH",
"520 96 OFFCURVE",
"481 70 OFFCURVE",
"418 70 CURVE SMOOTH",
"368 70 OFFCURVE",
"298 101 OFFCURVE",
"270 122 CURVE",
"270 34 LINE",
"293 17 OFFCURVE",
"365 -10 OFFCURVE",
"424 -10 CURVE SMOOTH",
"531 -10 OFFCURVE",
"608 53 OFFCURVE",
"608 138 CURVE SMOOTH",
"608 195 OFFCURVE",
"576 239 OFFCURVE",
"511 262 CURVE SMOOTH",
"427 292 LINE SMOOTH",
"381 308 OFFCURVE",
"366 337 OFFCURVE",
"366 362 CURVE SMOOTH",
"366 394 OFFCURVE",
"397 430 OFFCURVE",
"460 430 CURVE SMOOTH",
"510 430 OFFCURVE",
"563 405 OFFCURVE",
"591 384 CURVE",
"591 472 LINE",
"568 489 OFFCURVE",
"513 510 OFFCURVE",
"454 510 CURVE SMOOTH"
);
}
);
};
layerId = "DEFEBCF2-9FF2-4B76-ADC8-AB6BD79F23E7";
leftMetricsKey = "=l";
rightMetricsKey = "=s";
name = Regular;
paths = (
{
closed = 1;
nodes = (
"179 725 OFFCURVE",
"85 677 OFFCURVE",
"85 544 CURVE SMOOTH",
"85 0 LINE",
"167 0 LINE",
"167 535 LINE SMOOTH",
"167 625 OFFCURVE",
"220 646 OFFCURVE",
"269 647 CURVE SMOOTH",
"317 648 OFFCURVE",
"369 611 OFFCURVE",
"369 556 CURVE SMOOTH",
"369 489 OFFCURVE",
"282 448 OFFCURVE",
"282 360 CURVE SMOOTH",
"282 303 OFFCURVE",
"320 263 OFFCURVE",
"375 240 CURVE SMOOTH",
"446 211 LINE SMOOTH",
"460 205 OFFCURVE",
"527 173 OFFCURVE",
"527 136 CURVE SMOOTH",
"527 94 OFFCURVE",
"483 70 OFFCURVE",
"429 70 CURVE SMOOTH",
"366 70 OFFCURVE",
"319 92 OFFCURVE",
"281 122 CURVE",
"281 35 LINE",
"316 10 OFFCURVE",
"366 -10 OFFCURVE",
"429 -10 CURVE SMOOTH",
"520 -10 OFFCURVE",
"608 40 OFFCURVE",
"608 135 CURVE SMOOTH",
"608 191 OFFCURVE",
"569 234 OFFCURVE",
"506 266 CURVE SMOOTH",
"449 295 LINE SMOOTH",
"412 314 OFFCURVE",
"363 329 OFFCURVE",
"363 369 CURVE SMOOTH",
"363 431 OFFCURVE",
"450 448 OFFCURVE",
"450 552 CURVE SMOOTH",
"450 670 OFFCURVE",
"356 725 OFFCURVE",
"264 725 CURVE SMOOTH"
);
}
);
width = 648;
},
{
layerId = "2D992F1A-8218-4049-8E15-5955C72037C9";
name = Bold;
paths = (
{
closed = 1;
nodes = (
"134 725 OFFCURVE",
"40 647 OFFCURVE",
"40 514 CURVE SMOOTH",
"40 0 LINE",
"182 0 LINE",
"182 485 LINE SMOOTH",
"182 555 OFFCURVE",
"211 586 OFFCURVE",
"262 587 CURVE SMOOTH",
"310 588 OFFCURVE",
"344 554 OFFCURVE",
"344 496 CURVE SMOOTH",
"344 443 OFFCURVE",
"277 416 OFFCURVE",
"277 342 CURVE SMOOTH",
"277 259 OFFCURVE",
"339 235 OFFCURVE",
"387 218 CURVE SMOOTH",
"454 194 LINE SMOOTH",
"492 180 OFFCURVE",
"539 169 OFFCURVE",
"539 144 CURVE SMOOTH",
"539 121 OFFCURVE",
"505 115 OFFCURVE",
"470 115 CURVE SMOOTH",
"403 115 OFFCURVE",
"328 136 OFFCURVE",
"280 156 CURVE",
"280 33 LINE",
"325 9 OFFCURVE",
"396 -10 OFFCURVE",
"472 -10 CURVE SMOOTH",
"580 -10 OFFCURVE",
"683 54 OFFCURVE",
"683 154 CURVE SMOOTH",
"683 227 OFFCURVE",
"636 261 OFFCURVE",
"561 288 CURVE SMOOTH",
"502 309 LINE SMOOTH",
"462 323 OFFCURVE",
"435 328 OFFCURVE",
"435 354 CURVE SMOOTH",
"435 393 OFFCURVE",
"507 428 OFFCURVE",
"507 502 CURVE SMOOTH",
"507 635 OFFCURVE",
"391 725 OFFCURVE",
"259 725 CURVE SMOOTH"
);
}
);
width = 703;
}
);
leftMetricsKey = "=f";
rightMetricsKey = "=s";
unicode = 00DF;
},
{
glyphname = t;
lastChange = "2015-07-09 03:01:27 +0000";
layers = (
{
anchors = (
{
name = bottom;
position = "{254, 0}";
},
{
name = center;
position = "{214, 250}";
},
{
name = topright;
position = "{408, 500}";
}
);
layerId = "DEFEBCF2-9FF2-4B76-ADC8-AB6BD79F23E7";
leftMetricsKey = "=n-40";
rightMetricsKey = "=n-10";
name = Regular;
paths = (
{
closed = 1;
nodes = (
"185 644 LINE",
"152 545 OFFCURVE",
"110 476 OFFCURVE",
"45 447 CURVE",
"45 423 LINE",
"141 423 LINE",
"141 126 LINE SMOOTH",
"141 41 OFFCURVE",
"185 -15 OFFCURVE",
"270 -15 CURVE SMOOTH",
"320 -15 OFFCURVE",
"346 -1 OFFCURVE",
"373 20 CURVE",
"373 87 LINE",
"353 75 OFFCURVE",
"328 63 OFFCURVE",
"288 63 CURVE SMOOTH",
"244 63 OFFCURVE",
"223 88 OFFCURVE",
"223 130 CURVE SMOOTH",
"223 423 LINE",
"369 423 LINE",
"369 500 LINE",
"223 500 LINE",
"223 644 LINE"
);
}
);
width = 433;
},
{
anchors = (
{
name = bottom;
position = "{310, 0}";
},
{
name = center;
position = "{244, 255}";
},
{
name = topright;
position = "{448, 510}";
}
);
layerId = "2D992F1A-8218-4049-8E15-5955C72037C9";
leftMetricsKey = "=n-30";
rightMetricsKey = "=n-20";
name = Bold;
paths = (
{
closed = 1;
nodes = (
"206 660 LINE",
"176 553 OFFCURVE",
"105 497 OFFCURVE",
"40 480 CURVE",
"40 375 LINE",
"126 375 LINE",
"126 169 LINE SMOOTH",
"126 53 OFFCURVE",
"208 -15 OFFCURVE",
"303 -15 CURVE SMOOTH",
"369 -15 OFFCURVE",
"416 11 OFFCURVE",
"438 40 CURVE",
"438 174 LINE",
"413 159 OFFCURVE",
"389 152 OFFCURVE",
"357 152 CURVE SMOOTH",
"320 152 OFFCURVE",
"298 183 OFFCURVE",
"298 232 CURVE SMOOTH",
"298 375 LINE",
"432 375 LINE",
"432 510 LINE",
"298 510 LINE",
"298 660 LINE"
);
}
);
width = 483;
}
);
leftMetricsKey = "=l";
rightMetricsKey = "=l";
unicode = 0074;
},
{
glyphname = tbar;
lastChange = "2015-06-14 06:02:05 +0000";
layers = (
{
components = (
{
name = t;
}
);
layerId = "DEFEBCF2-9FF2-4B76-ADC8-AB6BD79F23E7";
name = Regular;
paths = (
{
closed = 1;
nodes = (
"43 293 LINE",
"43 223 LINE",
"363 223 LINE",
"363 293 LINE"
);
}
);
width = 428;
},
{
components = (
{
name = t;
}
);
layerId = "2D992F1A-8218-4049-8E15-5955C72037C9";
name = Bold;
paths = (
{
closed = 1;
nodes = (
"24 319 LINE",
"24 229 LINE",
"406 229 LINE",
"406 319 LINE"
);
}
);
width = 448;
}
);
unicode = 0167;
},
{
glyphname = tcaron;
lastChange = "2015-07-09 03:01:27 +0000";
layers = (
{
components = (
{
name = t;
}
);
layerId = "DEFEBCF2-9FF2-4B76-ADC8-AB6BD79F23E7";
leftMetricsKey = "=t";
rightMetricsKey = "=t";
name = Regular;
paths = (
{
closed = 1;
nodes = (
"285 530 LINE",
"352 530 LINE",
"382 718 LINE",
"295 718 LINE"
);
}
);
width = 442;
},
{
components = (
{
name = t;
}
);
layerId = "2D992F1A-8218-4049-8E15-5955C72037C9";
name = Bold;
paths = (
{
closed = 1;
nodes = (
"345 560 LINE",
"467 560 LINE",
"497 718 LINE",
"355 718 LINE"
);
}
);
width = 542;
}
);
leftMetricsKey = "=t";
rightMetricsKey = "=t";
unicode = 0165;
},
{
glyphname = u;
lastChange = "2015-07-09 02:58:40 +0000";
layers = (
{
anchors = (
{
name = ogonek;
position = "{372, 10}";
},
{
name = top;
position = "{287, 500}";
}
);
layerId = "DEFEBCF2-9FF2-4B76-ADC8-AB6BD79F23E7";
leftMetricsKey = "=|n";
rightMetricsKey = "=n";
name = Regular;
paths = (
{
closed = 1;
nodes = (
"409 500 LINE",
"409 204 LINE SMOOTH",
"409 117 OFFCURVE",
"349 70 OFFCURVE",
"282 70 CURVE SMOOTH",
"215 70 OFFCURVE",
"155 117 OFFCURVE",
"155 204 CURVE SMOOTH",
"155 500 LINE",
"70 500 LINE",
"70 204 LINE SMOOTH",
"70 72 OFFCURVE",
"162 -10 OFFCURVE",
"282 -10 CURVE SMOOTH",
"402 -10 OFFCURVE",
"494 72 OFFCURVE",
"494 204 CURVE SMOOTH",
"494 500 LINE"
);
}
);
width = 564;
},
{
anchors = (
{
name = ogonek;
position = "{411, 10}";
},
{
name = top;
position = "{317, 510}";
}
);
layerId = "2D992F1A-8218-4049-8E15-5955C72037C9";
name = Bold;
paths = (
{
closed = 1;
nodes = (
"381 510 LINE",
"380 250 LINE SMOOTH",
"380 180 OFFCURVE",
"360 150 OFFCURVE",
"309 150 CURVE SMOOTH",
"258 150 OFFCURVE",
"238 180 OFFCURVE",
"238 250 CURVE SMOOTH",
"237 510 LINE",
"65 510 LINE",
"65 204 LINE SMOOTH",
"65 66 OFFCURVE",
"167 -15 OFFCURVE",
"309 -15 CURVE SMOOTH",
"451 -15 OFFCURVE",
"553 66 OFFCURVE",
"553 204 CURVE SMOOTH",
"553 510 LINE"
);
}
);
width = 618;
}
);
leftMetricsKey = "=|n";
rightMetricsKey = "=n";
unicode = 0075;
},
{
glyphname = v;
lastChange = "2015-06-16 04:09:33 +0000";
layers = (
{
layerId = "DEFEBCF2-9FF2-4B76-ADC8-AB6BD79F23E7";
name = Regular;
paths = (
{
closed = 1;
nodes = (
"428 500 LINE",
"264 132 LINE",
"113 500 LINE",
"15 500 LINE",
"240 0 LINE",
"291 0 LINE",
"526 500 LINE"
);
}
);
width = 541;
},
{
layerId = "2D992F1A-8218-4049-8E15-5955C72037C9";
name = Bold;
paths = (
{
closed = 1;
nodes = (
"408 510 LINE",
"306 252 LINE",
"203 510 LINE",
"5 510 LINE",
"251 0 LINE",
"362 0 LINE",
"606 510 LINE"
);
}
);
width = 611;
}
);
unicode = 0076;
},
{
glyphname = w;
lastChange = "2015-07-09 03:01:27 +0000";
layers = (
{
anchors = (
{
name = top;
position = "{379, 500}";
}
);
layerId = "DEFEBCF2-9FF2-4B76-ADC8-AB6BD79F23E7";
leftMetricsKey = "=v";
rightMetricsKey = "=v";
name = Regular;
paths = (
{
closed = 1;
nodes = (
"643 500 LINE",
"532 149 LINE",
"401 500 LINE",
"355 500 LINE",
"224 149 LINE",
"113 500 LINE",
"15 500 LINE",
"190 0 LINE",
"241 0 LINE",
"378 353 LINE",
"515 0 LINE",
"566 0 LINE",
"741 500 LINE"
);
}
);
width = 756;
},
{
anchors = (
{
name = top;
position = "{403, 510}";
}
);
layerId = "2D992F1A-8218-4049-8E15-5955C72037C9";
leftMetricsKey = "=v";
name = Bold;
paths = (
{
closed = 1;
nodes = (
"641 510 LINE",
"566 262 LINE",
"480 510 LINE",
"344 510 LINE",
"258 262 LINE",
"183 510 LINE",
"5 510 LINE",
"178 0 LINE",
"313 0 LINE",
"412 301 LINE",
"511 0 LINE",
"644 0 LINE",
"819 510 LINE"
);
}
);
width = 824;
}
);
leftMetricsKey = "=v";
rightMetricsKey = "=v";
unicode = 0077;
},
{
glyphname = x;
lastChange = "2015-07-09 03:01:27 +0000";
layers = (
{
layerId = "DEFEBCF2-9FF2-4B76-ADC8-AB6BD79F23E7";
name = Regular;
paths = (
{
closed = 1;
nodes = (
"435 500 LINE",
"280 325 LINE",
"124 500 LINE",
"18 500 LINE",
"228 260 LINE",
"15 0 LINE",
"121 0 LINE",
"280 202 LINE",
"438 0 LINE",
"544 0 LINE",
"331 260 LINE",
"541 500 LINE"
);
}
);
width = 559;
},
{
layerId = "2D992F1A-8218-4049-8E15-5955C72037C9";
leftMetricsKey = "=v";
rightMetricsKey = "=v";
name = Bold;
paths = (
{
closed = 1;
nodes = (
"422 510 LINE",
"316 368 LINE",
"210 510 LINE",
"15 510 LINE",
"208 256 LINE",
"5 0 LINE",
"217 0 LINE",
"316 141 LINE",
"415 0 LINE",
"627 0 LINE",
"424 256 LINE",
"617 510 LINE"
);
}
);
width = 632;
}
);
leftMetricsKey = "=v";
rightMetricsKey = "=v";
unicode = 0078;
},
{
glyphname = y;
lastChange = "2015-07-09 03:01:27 +0000";
layers = (
{
anchors = (
{
name = top;
position = "{285, 500}";
}
);
layerId = "DEFEBCF2-9FF2-4B76-ADC8-AB6BD79F23E7";
name = Regular;
paths = (
{
closed = 1;
nodes = (
"458 500 LINE",
"272 97 LINE",
"93 -240 LINE",
"188 -240 LINE",
"556 500 LINE"
);
},
{
closed = 1;
nodes = (
"15 500 LINE",
"239 24 LINE",
"311 84 LINE",
"113 500 LINE"
);
}
);
width = 571;
},
{
anchors = (
{
name = top;
position = "{306, 510}";
}
);
background = {
paths = (
{
closed = 1;
nodes = (
"415 510 LINE",
"313 252 LINE",
"210 510 LINE",
"12 510 LINE",
"259 0 LINE",
"370 0 LINE",
"613 510 LINE"
);
}
);
};
layerId = "2D992F1A-8218-4049-8E15-5955C72037C9";
leftMetricsKey = "=v";
rightMetricsKey = "=v";
name = Bold;
paths = (
{
closed = 1;
nodes = (
"425 510 LINE",
"280 150 LINE",
"59 -240 LINE",
"251 -240 LINE",
"617 510 LINE"
);
},
{
closed = 1;
nodes = (
"5 510 LINE",
"250 -20 LINE",
"369 110 LINE",
"203 510 LINE"
);
}
);
width = 622;
}
);
leftMetricsKey = "=v";
rightMetricsKey = "=v";
unicode = 0079;
},
{
glyphname = z;
lastChange = "2015-07-09 03:01:27 +0000";
layers = (
{
anchors = (
{
name = top;
position = "{275, 500}";
}
);
layerId = "DEFEBCF2-9FF2-4B76-ADC8-AB6BD79F23E7";
leftMetricsKey = "=n-30";
rightMetricsKey = "=|n-30";
name = Regular;
paths = (
{
closed = 1;
nodes = (
"75 500 LINE",
"75 423 LINE",
"346 423 LINE",
"55 27 LINE",
"55 0 LINE",
"494 0 LINE",
"494 77 LINE",
"183 77 LINE",
"484 473 LINE",
"484 500 LINE"
);
}
);
width = 549;
},
{
anchors = (
{
name = top;
position = "{285, 510}";
}
);
layerId = "2D992F1A-8218-4049-8E15-5955C72037C9";
leftMetricsKey = "=n-20";
rightMetricsKey = "=n-20";
name = Bold;
paths = (
{
closed = 1;
nodes = (
"60 510 LINE",
"60 370 LINE",
"260 370 LINE",
"50 36 LINE",
"50 0 LINE",
"519 0 LINE",
"519 140 LINE",
"288 140 LINE",
"509 474 LINE",
"509 510 LINE"
);
}
);
width = 564;
}
);
leftMetricsKey = "=n";
rightMetricsKey = "=|n";
unicode = 007A;
},
{
glyphname = zero;
lastChange = "2015-06-13 08:05:00 +0000";
layers = (
{
layerId = "DEFEBCF2-9FF2-4B76-ADC8-AB6BD79F23E7";
name = Regular;
paths = (
{
closed = 1;
nodes = (
"106 685 OFFCURVE",
"25 507 OFFCURVE",
"25 335 CURVE SMOOTH",
"25 163 OFFCURVE",
"106 -15 OFFCURVE",
"278 -15 CURVE SMOOTH",
"450 -15 OFFCURVE",
"531 163 OFFCURVE",
"531 335 CURVE SMOOTH",
"531 507 OFFCURVE",
"450 685 OFFCURVE",
"278 685 CURVE SMOOTH"
);
},
{
closed = 1;
nodes = (
"388 597 OFFCURVE",
"446 465 OFFCURVE",
"446 335 CURVE SMOOTH",
"446 205 OFFCURVE",
"388 73 OFFCURVE",
"278 73 CURVE SMOOTH",
"168 73 OFFCURVE",
"110 205 OFFCURVE",
"110 335 CURVE SMOOTH",
"110 465 OFFCURVE",
"168 597 OFFCURVE",
"278 597 CURVE SMOOTH"
);
}
);
width = 550;
},
{
layerId = "2D992F1A-8218-4049-8E15-5955C72037C9";
name = Bold;
paths = (
{
closed = 1;
nodes = (
"128 685 OFFCURVE",
"37 547 OFFCURVE",
"37 335 CURVE SMOOTH",
"37 123 OFFCURVE",
"128 -15 OFFCURVE",
"300 -15 CURVE SMOOTH",
"472 -15 OFFCURVE",
"563 123 OFFCURVE",
"563 335 CURVE SMOOTH",
"563 547 OFFCURVE",
"472 685 OFFCURVE",
"300 685 CURVE SMOOTH"
);
},
{
closed = 1;
nodes = (
"350 530 OFFCURVE",
"371 465 OFFCURVE",
"371 335 CURVE SMOOTH",
"371 205 OFFCURVE",
"350 140 OFFCURVE",
"300 140 CURVE SMOOTH",
"250 140 OFFCURVE",
"229 205 OFFCURVE",
"229 335 CURVE SMOOTH",
"229 465 OFFCURVE",
"250 530 OFFCURVE",
"300 530 CURVE SMOOTH"
);
}
);
width = 600;
}
);
unicode = 0030;
},
{
glyphname = one;
lastChange = "2015-06-13 08:04:39 +0000";
layers = (
{
layerId = "DEFEBCF2-9FF2-4B76-ADC8-AB6BD79F23E7";
name = Regular;
paths = (
{
closed = 1;
nodes = (
"287 670 LINE",
"250 620 OFFCURVE",
"192 570 OFFCURVE",
"115 550 CURVE",
"115 464 LINE",
"157 472 OFFCURVE",
"201 481 OFFCURVE",
"241 516 CURVE",
"241 0 LINE",
"331 0 LINE",
"331 670 LINE"
);
},
{
closed = 1;
nodes = (
"108 80 LINE",
"108 0 LINE",
"471 0 LINE",
"471 80 LINE"
);
}
);
width = 550;
},
{
layerId = "2D992F1A-8218-4049-8E15-5955C72037C9";
name = Bold;
paths = (
{
closed = 1;
nodes = (
"262 670 LINE",
"215 610 OFFCURVE",
"137 570 OFFCURVE",
"80 550 CURVE",
"80 365 LINE",
"122 377 OFFCURVE",
"177 398 OFFCURVE",
"216 430 CURVE",
"216 0 LINE",
"403 0 LINE",
"403 670 LINE"
);
},
{
closed = 1;
nodes = (
"75 165 LINE",
"75 0 LINE",
"538 0 LINE",
"538 165 LINE"
);
}
);
width = 600;
}
);
unicode = 0031;
},
{
glyphname = two;
lastChange = "2015-06-16 04:31:54 +0000";
layers = (
{
layerId = "DEFEBCF2-9FF2-4B76-ADC8-AB6BD79F23E7";
name = Regular;
paths = (
{
closed = 1;
nodes = (
"180 685 OFFCURVE",
"118 648 OFFCURVE",
"83 616 CURVE",
"83 522 LINE",
"121 557 OFFCURVE",
"182 597 OFFCURVE",
"248 597 CURVE SMOOTH",
"328 597 OFFCURVE",
"393 554 OFFCURVE",
"393 467 CURVE SMOOTH",
"393 378 OFFCURVE",
"267 263 OFFCURVE",
"63 36 CURVE",
"63 0 LINE",
"483 0 LINE",
"483 83 LINE",
"208 83 LINE",
"373 262 OFFCURVE",
"478 356 OFFCURVE",
"478 487 CURVE SMOOTH",
"478 609 OFFCURVE",
"388 685 OFFCURVE",
"256 685 CURVE SMOOTH"
);
}
);
width = 550;
},
{
layerId = "2D992F1A-8218-4049-8E15-5955C72037C9";
name = Bold;
paths = (
{
closed = 1;
nodes = (
"216 685 OFFCURVE",
"135 657 OFFCURVE",
"90 619 CURVE",
"90 429 LINE",
"128 474 OFFCURVE",
"194 510 OFFCURVE",
"250 510 CURVE SMOOTH",
"303 510 OFFCURVE",
"338 475 OFFCURVE",
"338 425 CURVE SMOOTH",
"338 352 OFFCURVE",
"260 263 OFFCURVE",
"80 76 CURVE",
"80 0 LINE",
"535 0 LINE",
"535 150 LINE",
"349 150 LINE",
"467 287 OFFCURVE",
"530 342 OFFCURVE",
"530 476 CURVE SMOOTH",
"530 598 OFFCURVE",
"434 685 OFFCURVE",
"292 685 CURVE SMOOTH"
);
}
);
width = 600;
}
);
unicode = 0032;
},
{
glyphname = three;
lastChange = "2015-06-25 04:33:18 +0000";
layers = (
{
layerId = "DEFEBCF2-9FF2-4B76-ADC8-AB6BD79F23E7";
name = Regular;
paths = (
{
closed = 1;
nodes = (
"185 685 OFFCURVE",
"126 661 OFFCURVE",
"91 629 CURVE",
"91 530 LINE",
"129 569 OFFCURVE",
"174 604 OFFCURVE",
"243 604 CURVE SMOOTH",
"323 604 OFFCURVE",
"389 556 OFFCURVE",
"389 487 CURVE SMOOTH",
"389 422 OFFCURVE",
"330 383 OFFCURVE",
"246 383 CURVE SMOOTH",
"186 383 LINE",
"186 303 LINE",
"246 303 LINE SMOOTH",
"320 303 OFFCURVE",
"389 254 OFFCURVE",
"389 188 CURVE SMOOTH",
"389 111 OFFCURVE",
"331 66 OFFCURVE",
"251 66 CURVE SMOOTH",
"164 66 OFFCURVE",
"116 116 OFFCURVE",
"71 148 CURVE",
"71 49 LINE",
"106 17 OFFCURVE",
"170 -15 OFFCURVE",
"249 -15 CURVE SMOOTH",
"381 -15 OFFCURVE",
"474 71 OFFCURVE",
"474 183 CURVE SMOOTH",
"474 273 OFFCURVE",
"393 328 OFFCURVE",
"341 342 CURVE",
"393 356 OFFCURVE",
"474 402 OFFCURVE",
"474 492 CURVE SMOOTH",
"474 603 OFFCURVE",
"378 685 OFFCURVE",
"246 685 CURVE SMOOTH"
);
}
);
width = 550;
},
{
layerId = "2D992F1A-8218-4049-8E15-5955C72037C9";
name = Bold;
paths = (
{
closed = 1;
nodes = (
"188 685 OFFCURVE",
"137 661 OFFCURVE",
"102 629 CURVE",
"102 468 LINE",
"140 504 OFFCURVE",
"178 520 OFFCURVE",
"225 520 CURVE SMOOTH",
"277 520 OFFCURVE",
"328 499 OFFCURVE",
"328 450 CURVE SMOOTH",
"328 401 OFFCURVE",
"276 409 OFFCURVE",
"222 409 CURVE",
"172 409 LINE",
"172 273 LINE",
"222 273 LINE",
"276 273 OFFCURVE",
"328 266 OFFCURVE",
"328 220 CURVE SMOOTH",
"328 170 OFFCURVE",
"282 150 OFFCURVE",
"225 150 CURVE SMOOTH",
"175 150 OFFCURVE",
"132 166 OFFCURVE",
"87 195 CURVE",
"87 32 LINE",
"124 4 OFFCURVE",
"191 -15 OFFCURVE",
"257 -15 CURVE SMOOTH",
"399 -15 OFFCURVE",
"520 66 OFFCURVE",
"520 188 CURVE SMOOTH",
"520 278 OFFCURVE",
"462 324 OFFCURVE",
"390 338 CURVE",
"462 348 OFFCURVE",
"520 402 OFFCURVE",
"520 492 CURVE SMOOTH",
"520 605 OFFCURVE",
"412 685 OFFCURVE",
"262 685 CURVE SMOOTH"
);
}
);
width = 600;
}
);
unicode = 0033;
},
{
glyphname = four;
lastChange = "2015-06-25 04:33:49 +0000";
layers = (
{
layerId = "DEFEBCF2-9FF2-4B76-ADC8-AB6BD79F23E7";
name = Regular;
paths = (
{
closed = 1;
nodes = (
"390 670 LINE",
"286 468 OFFCURVE",
"141 303 OFFCURVE",
"27 181 CURVE",
"27 148 LINE",
"333 148 LINE",
"333 0 LINE",
"423 0 LINE",
"423 148 LINE",
"528 148 LINE",
"528 224 LINE",
"423 224 LINE",
"423 670 LINE"
);
},
{
closed = 1;
nodes = (
"333 224 LINE",
"167 224 LINE",
"225 289 OFFCURVE",
"280 367 OFFCURVE",
"333 450 CURVE"
);
}
);
width = 550;
},
{
layerId = "2D992F1A-8218-4049-8E15-5955C72037C9";
name = Bold;
paths = (
{
closed = 1;
nodes = (
"332 670 LINE",
"237 513 OFFCURVE",
"153 397 OFFCURVE",
"48 278 CURVE",
"48 148 LINE",
"306 148 LINE",
"306 0 LINE",
"473 0 LINE",
"473 148 LINE",
"550 148 LINE",
"550 298 LINE",
"473 298 LINE",
"473 670 LINE"
);
},
{
closed = 1;
nodes = (
"306 298 LINE",
"244 298 LINE",
"269 330 OFFCURVE",
"279 348 OFFCURVE",
"306 386 CURVE"
);
}
);
width = 600;
}
);
unicode = 0034;
},
{
glyphname = five;
lastChange = "2015-06-13 08:04:14 +0000";
layers = (
{
layerId = "DEFEBCF2-9FF2-4B76-ADC8-AB6BD79F23E7";
name = Regular;
paths = (
{
closed = 1;
nodes = (
"109 670 LINE",
"109 312 LINE",
"146 326 OFFCURVE",
"187 342 OFFCURVE",
"238 342 CURVE SMOOTH",
"327 342 OFFCURVE",
"405 290 OFFCURVE",
"405 209 CURVE SMOOTH",
"405 123 OFFCURVE",
"333 66 OFFCURVE",
"243 66 CURVE SMOOTH",
"164 66 OFFCURVE",
"101 122 OFFCURVE",
"63 153 CURVE",
"63 54 LINE",
"98 22 OFFCURVE",
"170 -15 OFFCURVE",
"243 -15 CURVE SMOOTH",
"385 -15 OFFCURVE",
"490 81 OFFCURVE",
"490 217 CURVE SMOOTH",
"490 334 OFFCURVE",
"395 422 OFFCURVE",
"284 422 CURVE SMOOTH",
"243 422 OFFCURVE",
"219 416 OFFCURVE",
"199 408 CURVE",
"199 587 LINE",
"463 587 LINE",
"463 670 LINE"
);
}
);
width = 550;
},
{
layerId = "2D992F1A-8218-4049-8E15-5955C72037C9";
name = Bold;
paths = (
{
closed = 1;
nodes = (
"109 670 LINE",
"109 262 LINE",
"146 272 OFFCURVE",
"187 282 OFFCURVE",
"238 282 CURVE SMOOTH",
"307 282 OFFCURVE",
"346 252 OFFCURVE",
"346 211 CURVE SMOOTH",
"346 161 OFFCURVE",
"303 150 OFFCURVE",
"233 150 CURVE SMOOTH",
"174 150 OFFCURVE",
"134 165 OFFCURVE",
"76 193 CURVE",
"76 44 LINE",
"111 20 OFFCURVE",
"165 -15 OFFCURVE",
"270 -15 CURVE SMOOTH",
"412 -15 OFFCURVE",
"538 60 OFFCURVE",
"538 235 CURVE SMOOTH",
"538 352 OFFCURVE",
"452 419 OFFCURVE",
"361 419 CURVE SMOOTH",
"330 419 OFFCURVE",
"288 412 OFFCURVE",
"262 401 CURVE",
"262 505 LINE",
"485 505 LINE",
"485 670 LINE"
);
}
);
width = 600;
}
);
unicode = 0035;
},
{
glyphname = six;
lastChange = "2015-07-09 02:46:26 +0000";
layers = (
{
layerId = "DEFEBCF2-9FF2-4B76-ADC8-AB6BD79F23E7";
name = Regular;
paths = (
{
closed = 1;
nodes = (
"308 670 LINE",
"239 600 OFFCURVE",
"48 422 OFFCURVE",
"48 243 CURVE SMOOTH",
"48 83 OFFCURVE",
"155 -15 OFFCURVE",
"289 -15 CURVE SMOOTH",
"431 -15 OFFCURVE",
"516 111 OFFCURVE",
"516 227 CURVE SMOOTH",
"516 334 OFFCURVE",
"436 435 OFFCURVE",
"305 435 CURVE SMOOTH",
"242 435 OFFCURVE",
"190 395 OFFCURVE",
"157 354 CURVE",
"196 458 OFFCURVE",
"359 593 OFFCURVE",
"441 670 CURVE"
);
},
{
closed = 1;
nodes = (
"359 354 OFFCURVE",
"431 298 OFFCURVE",
"431 217 CURVE SMOOTH",
"431 126 OFFCURVE",
"359 66 OFFCURVE",
"284 66 CURVE SMOOTH",
"209 66 OFFCURVE",
"133 126 OFFCURVE",
"133 217 CURVE SMOOTH",
"133 298 OFFCURVE",
"209 354 OFFCURVE",
"284 354 CURVE SMOOTH"
);
}
);
width = 550;
},
{
layerId = "2D992F1A-8218-4049-8E15-5955C72037C9";
name = Bold;
paths = (
{
closed = 1;
nodes = (
"260 670 LINE",
"176 590 OFFCURVE",
"40 421 OFFCURVE",
"40 242 CURVE SMOOTH",
"40 84 OFFCURVE",
"167 -15 OFFCURVE",
"301 -15 CURVE SMOOTH",
"443 -15 OFFCURVE",
"562 84 OFFCURVE",
"562 237 CURVE SMOOTH",
"562 373 OFFCURVE",
"458 459 OFFCURVE",
"347 459 CURVE SMOOTH",
"323 459 OFFCURVE",
"300 457 OFFCURVE",
"271 438 CURVE",
"320 522 OFFCURVE",
"397 592 OFFCURVE",
"477 670 CURVE"
);
},
{
closed = 1;
nodes = (
"344 300 OFFCURVE",
"370 265 OFFCURVE",
"370 225 CURVE SMOOTH",
"370 185 OFFCURVE",
"344 150 OFFCURVE",
"301 150 CURVE SMOOTH",
"258 150 OFFCURVE",
"232 185 OFFCURVE",
"232 225 CURVE SMOOTH",
"232 265 OFFCURVE",
"258 300 OFFCURVE",
"301 300 CURVE SMOOTH"
);
}
);
width = 600;
}
);
unicode = 0036;
},
{
glyphname = seven;
lastChange = "2015-06-13 08:03:48 +0000";
layers = (
{
layerId = "DEFEBCF2-9FF2-4B76-ADC8-AB6BD79F23E7";
name = Regular;
paths = (
{
closed = 1;
nodes = (
"51 670 LINE",
"51 587 LINE",
"407 587 LINE",
"281 401 OFFCURVE",
"149 232 OFFCURVE",
"149 0 CURVE",
"252 0 LINE",
"252 223 OFFCURVE",
"347 389 OFFCURVE",
"514 628 CURVE",
"514 670 LINE"
);
}
);
width = 550;
},
{
layerId = "2D992F1A-8218-4049-8E15-5955C72037C9";
name = Bold;
paths = (
{
closed = 1;
nodes = (
"73 670 LINE",
"73 505 LINE",
"312 505 LINE",
"236 349 OFFCURVE",
"137 162 OFFCURVE",
"137 0 CURVE",
"354 0 LINE",
"354 223 OFFCURVE",
"442 359 OFFCURVE",
"559 598 CURVE",
"559 670 LINE"
);
}
);
width = 600;
}
);
unicode = 0037;
},
{
glyphname = eight;
lastChange = "2015-06-13 08:05:05 +0000";
layers = (
{
layerId = "DEFEBCF2-9FF2-4B76-ADC8-AB6BD79F23E7";
name = Regular;
paths = (
{
closed = 1;
nodes = (
"163 685 OFFCURVE",
"74 612 OFFCURVE",
"74 507 CURVE SMOOTH",
"74 430 OFFCURVE",
"117 384 OFFCURVE",
"171 353 CURVE",
"108 324 OFFCURVE",
"54 263 OFFCURVE",
"54 187 CURVE SMOOTH",
"54 75 OFFCURVE",
"143 -15 OFFCURVE",
"275 -15 CURVE SMOOTH",
"407 -15 OFFCURVE",
"496 75 OFFCURVE",
"496 187 CURVE SMOOTH",
"496 263 OFFCURVE",
"442 324 OFFCURVE",
"379 353 CURVE",
"433 384 OFFCURVE",
"476 430 OFFCURVE",
"476 507 CURVE SMOOTH",
"476 612 OFFCURVE",
"387 685 OFFCURVE",
"275 685 CURVE SMOOTH"
);
},
{
closed = 1;
nodes = (
"342 312 OFFCURVE",
"411 259 OFFCURVE",
"411 192 CURVE SMOOTH",
"411 125 OFFCURVE",
"352 66 OFFCURVE",
"275 66 CURVE SMOOTH",
"198 66 OFFCURVE",
"139 125 OFFCURVE",
"139 192 CURVE SMOOTH",
"139 259 OFFCURVE",
"208 312 OFFCURVE",
"275 312 CURVE SMOOTH"
);
},
{
closed = 1;
nodes = (
"332 604 OFFCURVE",
"391 559 OFFCURVE",
"391 497 CURVE SMOOTH",
"391 435 OFFCURVE",
"332 396 OFFCURVE",
"275 396 CURVE SMOOTH",
"218 396 OFFCURVE",
"159 435 OFFCURVE",
"159 497 CURVE SMOOTH",
"159 559 OFFCURVE",
"218 604 OFFCURVE",
"275 604 CURVE SMOOTH"
);
}
);
width = 550;
},
{
layerId = "2D992F1A-8218-4049-8E15-5955C72037C9";
name = Bold;
paths = (
{
closed = 1;
nodes = (
"178 685 OFFCURVE",
"79 616 OFFCURVE",
"79 497 CURVE SMOOTH",
"79 420 OFFCURVE",
"122 374 OFFCURVE",
"166 353 CURVE",
"113 334 OFFCURVE",
"59 278 OFFCURVE",
"59 202 CURVE SMOOTH",
"59 72 OFFCURVE",
"168 -15 OFFCURVE",
"300 -15 CURVE SMOOTH",
"432 -15 OFFCURVE",
"541 72 OFFCURVE",
"541 202 CURVE SMOOTH",
"541 278 OFFCURVE",
"487 334 OFFCURVE",
"434 353 CURVE",
"478 374 OFFCURVE",
"521 420 OFFCURVE",
"521 497 CURVE SMOOTH",
"521 616 OFFCURVE",
"422 685 OFFCURVE",
"300 685 CURVE SMOOTH"
);
},
{
closed = 1;
nodes = (
"338 282 OFFCURVE",
"366 255 OFFCURVE",
"366 208 CURVE SMOOTH",
"366 161 OFFCURVE",
"338 136 OFFCURVE",
"300 136 CURVE SMOOTH",
"261 136 OFFCURVE",
"234 161 OFFCURVE",
"234 208 CURVE SMOOTH",
"234 255 OFFCURVE",
"261 282 OFFCURVE",
"300 282 CURVE SMOOTH"
);
},
{
closed = 1;
nodes = (
"334 534 OFFCURVE",
"360 509 OFFCURVE",
"360 467 CURVE SMOOTH",
"360 425 OFFCURVE",
"334 396 OFFCURVE",
"300 396 CURVE SMOOTH",
"266 396 OFFCURVE",
"240 425 OFFCURVE",
"240 467 CURVE SMOOTH",
"240 509 OFFCURVE",
"266 534 OFFCURVE",
"300 534 CURVE SMOOTH"
);
}
);
width = 600;
}
);
unicode = 0038;
},
{
glyphname = asterisk;
lastChange = "2015-06-13 03:56:58 +0000";
layers = (
{
layerId = "DEFEBCF2-9FF2-4B76-ADC8-AB6BD79F23E7";
name = Regular;
paths = (
{
closed = 1;
nodes = (
"211 705 LINE",
"217 583 LINE",
"113 627 LINE",
"90 559 LINE",
"198 528 LINE",
"122 433 LINE",
"180 391 LINE",
"247 494 LINE",
"314 391 LINE",
"372 433 LINE",
"296 528 LINE",
"404 559 LINE",
"381 627 LINE",
"277 583 LINE",
"283 705 LINE"
);
}
);
width = 494;
},
{
layerId = "2D992F1A-8218-4049-8E15-5955C72037C9";
name = Bold;
paths = (
{
closed = 1;
nodes = (
"187 726 LINE",
"192 622 LINE",
"100 661 LINE",
"60 542 LINE",
"157 514 LINE",
"88 428 LINE",
"189 355 LINE",
"249 448 LINE",
"309 355 LINE",
"410 428 LINE",
"341 514 LINE",
"438 542 LINE",
"398 661 LINE",
"306 622 LINE",
"311 726 LINE"
);
}
);
width = 498;
}
);
unicode = 002A;
},
{
glyphname = backslash;
lastChange = "2015-06-13 03:56:58 +0000";
layers = (
{
layerId = "DEFEBCF2-9FF2-4B76-ADC8-AB6BD79F23E7";
name = Regular;
paths = (
{
closed = 1;
nodes = (
"-10 670 LINE",
"306 -200 LINE",
"374 -200 LINE",
"61 670 LINE"
);
}
);
width = 364;
},
{
layerId = "2D992F1A-8218-4049-8E15-5955C72037C9";
name = Bold;
paths = (
{
closed = 1;
nodes = (
"-15 670 LINE",
"301 -200 LINE",
"429 -200 LINE",
"116 670 LINE"
);
}
);
width = 414;
}
);
unicode = 005C;
},
{
glyphname = bullet;
lastChange = "2015-06-13 03:56:58 +0000";
layers = (
{
layerId = "DEFEBCF2-9FF2-4B76-ADC8-AB6BD79F23E7";
name = Regular;
paths = (
{
closed = 1;
nodes = (
"138 435 OFFCURVE",
"80 376 OFFCURVE",
"80 303 CURVE SMOOTH",
"80 232 OFFCURVE",
"138 172 OFFCURVE",
"211 172 CURVE SMOOTH",
"283 172 OFFCURVE",
"343 232 OFFCURVE",
"343 303 CURVE SMOOTH",
"343 376 OFFCURVE",
"283 435 OFFCURVE",
"211 435 CURVE SMOOTH"
);
}
);
width = 423;
},
{
layerId = "2D992F1A-8218-4049-8E15-5955C72037C9";
name = Bold;
paths = (
{
closed = 1;
nodes = (
"151 463 OFFCURVE",
"80 391 OFFCURVE",
"80 303 CURVE SMOOTH",
"80 217 OFFCURVE",
"151 144 OFFCURVE",
"239 144 CURVE SMOOTH",
"326 144 OFFCURVE",
"399 217 OFFCURVE",
"399 303 CURVE SMOOTH",
"399 391 OFFCURVE",
"326 463 OFFCURVE",
"239 463 CURVE SMOOTH"
);
}
);
width = 479;
}
);
unicode = 2022;
},
{
glyphname = comma;
lastChange = "2015-07-09 03:01:27 +0000";
layers = (
{
layerId = "DEFEBCF2-9FF2-4B76-ADC8-AB6BD79F23E7";
leftMetricsKey = "=period-30";
rightMetricsKey = "=period";
name = Regular;
paths = (
{
closed = 1;
nodes = (
"50 -161 LINE",
"112 -177 LINE",
"202 90 LINE",
"120 118 LINE"
);
}
);
width = 282;
},
{
layerId = "2D992F1A-8218-4049-8E15-5955C72037C9";
leftMetricsKey = "=period-20";
name = Bold;
paths = (
{
closed = 1;
nodes = (
"16 -137 LINE",
"138 -153 LINE",
"248 84 LINE",
"106 112 LINE"
);
}
);
width = 284;
}
);
leftMetricsKey = "=period";
rightMetricsKey = "=period";
unicode = 002C;
},
{
glyphname = exclam;
lastChange = "2015-06-16 12:04:08 +0000";
layers = (
{
components = (
{
name = period;
}
);
layerId = "DEFEBCF2-9FF2-4B76-ADC8-AB6BD79F23E7";
name = Regular;
paths = (
{
closed = 1;
nodes = (
"109 670 LINE",
"109 220 LINE",
"191 220 LINE",
"191 670 LINE"
);
}
);
width = 300;
},
{
components = (
{
name = period;
transform = "{1, 0, 0, 1, 44, 0}";
}
);
layerId = "2D992F1A-8218-4049-8E15-5955C72037C9";
name = Bold;
paths = (
{
closed = 1;
nodes = (
"99 670 LINE",
"99 240 LINE",
"241 240 LINE",
"241 670 LINE"
);
}
);
width = 340;
}
);
unicode = 0021;
},
{
glyphname = numbersign;
lastChange = "2015-06-13 03:56:58 +0000";
layers = (
{
layerId = "DEFEBCF2-9FF2-4B76-ADC8-AB6BD79F23E7";
name = Regular;
paths = (
{
closed = 1;
nodes = (
"575 670 LINE",
"372 0 LINE",
"440 0 LINE",
"646 670 LINE"
);
},
{
closed = 1;
nodes = (
"80 240 LINE",
"80 170 LINE",
"620 170 LINE",
"620 240 LINE"
);
},
{
closed = 1;
nodes = (
"343 670 LINE",
"140 0 LINE",
"208 0 LINE",
"414 670 LINE"
);
},
{
closed = 1;
nodes = (
"150 488 LINE",
"150 408 LINE",
"690 408 LINE",
"690 488 LINE"
);
}
);
width = 770;
},
{
layerId = "2D992F1A-8218-4049-8E15-5955C72037C9";
name = Bold;
paths = (
{
closed = 1;
nodes = (
"596 670 LINE",
"393 0 LINE",
"521 0 LINE",
"727 670 LINE"
);
},
{
closed = 1;
nodes = (
"80 270 LINE",
"80 140 LINE",
"700 140 LINE",
"700 270 LINE"
);
},
{
closed = 1;
nodes = (
"343 670 LINE",
"140 0 LINE",
"268 0 LINE",
"474 670 LINE"
);
},
{
closed = 1;
nodes = (
"150 518 LINE",
"150 378 LINE",
"770 378 LINE",
"770 518 LINE"
);
}
);
width = 850;
}
);
unicode = 0023;
},
{
glyphname = period;
lastChange = "2015-06-13 03:56:58 +0000";
layers = (
{
layerId = "DEFEBCF2-9FF2-4B76-ADC8-AB6BD79F23E7";
name = Regular;
paths = (
{
closed = 1;
nodes = (
"111 122 OFFCURVE",
"80 91 OFFCURVE",
"80 52 CURVE SMOOTH",
"80 14 OFFCURVE",
"111 -18 OFFCURVE",
"150 -18 CURVE SMOOTH",
"188 -18 OFFCURVE",
"220 14 OFFCURVE",
"220 52 CURVE SMOOTH",
"220 91 OFFCURVE",
"188 122 OFFCURVE",
"150 122 CURVE SMOOTH"
);
}
);
width = 300;
},
{
layerId = "2D992F1A-8218-4049-8E15-5955C72037C9";
name = Bold;
paths = (
{
closed = 1;
nodes = (
"76 161 OFFCURVE",
"36 121 OFFCURVE",
"36 71 CURVE SMOOTH",
"36 22 OFFCURVE",
"76 -19 OFFCURVE",
"126 -19 CURVE SMOOTH",
"175 -19 OFFCURVE",
"216 22 OFFCURVE",
"216 71 CURVE SMOOTH",
"216 121 OFFCURVE",
"175 161 OFFCURVE",
"126 161 CURVE SMOOTH"
);
}
);
width = 252;
}
);
unicode = 002E;
},
{
glyphname = question;
lastChange = "2015-06-16 12:04:06 +0000";
layers = (
{
components = (
{
name = period;
transform = "{1, 0, 0, 1, 106, 0}";
}
);
layerId = "DEFEBCF2-9FF2-4B76-ADC8-AB6BD79F23E7";
name = Regular;
paths = (
{
closed = 1;
nodes = (
"188 685 OFFCURVE",
"116 650 OFFCURVE",
"80 606 CURVE",
"80 497 LINE",
"128 558 OFFCURVE",
"175 590 OFFCURVE",
"255 590 CURVE SMOOTH",
"335 590 OFFCURVE",
"378 542 OFFCURVE",
"378 477 CURVE SMOOTH",
"378 391 OFFCURVE",
"203 331 OFFCURVE",
"203 258 CURVE SMOOTH",
"203 218 LINE",
"300 218 LINE",
"299 239 LINE SMOOTH",
"295 316 OFFCURVE",
"480 366 OFFCURVE",
"480 490 CURVE SMOOTH",
"480 603 OFFCURVE",
"385 685 OFFCURVE",
"265 685 CURVE SMOOTH"
);
}
);
width = 560;
},
{
components = (
{
name = period;
transform = "{1, 0, 0, 1, 150, 0}";
}
);
layerId = "2D992F1A-8218-4049-8E15-5955C72037C9";
name = Bold;
paths = (
{
closed = 1;
nodes = (
"188 685 OFFCURVE",
"126 656 OFFCURVE",
"80 616 CURVE",
"80 461 LINE",
"128 512 OFFCURVE",
"195 530 OFFCURVE",
"255 530 CURVE SMOOTH",
"315 530 OFFCURVE",
"368 502 OFFCURVE",
"368 457 CURVE SMOOTH",
"368 381 OFFCURVE",
"193 331 OFFCURVE",
"193 258 CURVE SMOOTH",
"193 218 LINE",
"350 218 LINE",
"349 239 LINE SMOOTH",
"346 306 OFFCURVE",
"530 336 OFFCURVE",
"530 470 CURVE SMOOTH",
"530 613 OFFCURVE",
"405 685 OFFCURVE",
"285 685 CURVE SMOOTH"
);
}
);
width = 610;
}
);
unicode = 003F;
},
{
glyphname = quotesingle;
lastChange = "2015-06-16 12:05:49 +0000";
layers = (
{
layerId = "DEFEBCF2-9FF2-4B76-ADC8-AB6BD79F23E7";
name = Regular;
paths = (
{
closed = 1;
nodes = (
"80 670 LINE",
"80 416 LINE",
"162 416 LINE",
"162 670 LINE"
);
}
);
width = 242;
},
{
layerId = "2D992F1A-8218-4049-8E15-5955C72037C9";
name = Bold;
paths = (
{
closed = 1;
nodes = (
"60 670 LINE",
"60 376 LINE",
"202 376 LINE",
"202 670 LINE"
);
}
);
width = 262;
}
);
unicode = 0027;
},
{
glyphname = slash;
lastChange = "2015-06-13 03:56:58 +0000";
layers = (
{
layerId = "DEFEBCF2-9FF2-4B76-ADC8-AB6BD79F23E7";
name = Regular;
paths = (
{
closed = 1;
nodes = (
"303 705 LINE",
"40 -200 LINE",
"108 -200 LINE",
"374 705 LINE"
);
}
);
width = 414;
},
{
layerId = "2D992F1A-8218-4049-8E15-5955C72037C9";
name = Bold;
paths = (
{
closed = 1;
nodes = (
"303 705 LINE",
"40 -200 LINE",
"168 -200 LINE",
"434 705 LINE"
);
}
);
width = 474;
}
);
unicode = 002F;
},
{
glyphname = braceleft;
lastChange = "2015-06-13 03:56:58 +0000";
layers = (
{
layerId = "DEFEBCF2-9FF2-4B76-ADC8-AB6BD79F23E7";
name = Regular;
paths = (
{
closed = 1;
nodes = (
"330 690 LINE SMOOTH",
"225 690 OFFCURVE",
"155 609 OFFCURVE",
"155 508 CURVE SMOOTH",
"155 372 LINE SMOOTH",
"155 312 OFFCURVE",
"143 290 OFFCURVE",
"80 290 CURVE",
"80 200 LINE",
"143 200 OFFCURVE",
"155 178 OFFCURVE",
"155 118 CURVE SMOOTH",
"155 -18 LINE SMOOTH",
"155 -119 OFFCURVE",
"225 -200 OFFCURVE",
"330 -200 CURVE SMOOTH",
"394 -200 LINE",
"394 -110 LINE",
"350 -110 LINE SMOOTH",
"264 -110 OFFCURVE",
"252 -59 OFFCURVE",
"252 45 CURVE SMOOTH",
"252 150 LINE SMOOTH",
"252 192 OFFCURVE",
"225 225 OFFCURVE",
"187 245 CURVE",
"225 265 OFFCURVE",
"252 298 OFFCURVE",
"252 340 CURVE SMOOTH",
"252 445 LINE SMOOTH",
"252 549 OFFCURVE",
"264 600 OFFCURVE",
"350 600 CURVE SMOOTH",
"394 600 LINE",
"394 690 LINE"
);
}
);
width = 434;
},
{
layerId = "2D992F1A-8218-4049-8E15-5955C72037C9";
name = Bold;
paths = (
{
closed = 1;
nodes = (
"330 690 LINE SMOOTH",
"225 690 OFFCURVE",
"155 609 OFFCURVE",
"155 508 CURVE SMOOTH",
"155 402 LINE SMOOTH",
"155 342 OFFCURVE",
"143 320 OFFCURVE",
"80 320 CURVE",
"80 170 LINE",
"143 170 OFFCURVE",
"155 148 OFFCURVE",
"155 88 CURVE SMOOTH",
"155 -18 LINE SMOOTH",
"155 -119 OFFCURVE",
"225 -200 OFFCURVE",
"330 -200 CURVE SMOOTH",
"454 -200 LINE",
"454 -70 LINE",
"410 -70 LINE SMOOTH",
"324 -70 OFFCURVE",
"312 -19 OFFCURVE",
"312 25 CURVE SMOOTH",
"312 150 LINE SMOOTH",
"312 192 OFFCURVE",
"285 225 OFFCURVE",
"247 245 CURVE",
"285 265 OFFCURVE",
"312 298 OFFCURVE",
"312 340 CURVE SMOOTH",
"312 465 LINE SMOOTH",
"312 509 OFFCURVE",
"324 560 OFFCURVE",
"410 560 CURVE SMOOTH",
"454 560 LINE",
"454 690 LINE"
);
}
);
width = 494;
}
);
unicode = 007B;
},
{
glyphname = bracketleft;
lastChange = "2015-06-13 03:56:58 +0000";
layers = (
{
layerId = "DEFEBCF2-9FF2-4B76-ADC8-AB6BD79F23E7";
name = Regular;
paths = (
{
closed = 1;
nodes = (
"80 690 LINE",
"80 -200 LINE",
"339 -200 LINE",
"339 -110 LINE",
"177 -110 LINE",
"177 600 LINE",
"339 600 LINE",
"339 690 LINE"
);
}
);
width = 379;
},
{
layerId = "2D992F1A-8218-4049-8E15-5955C72037C9";
name = Bold;
paths = (
{
closed = 1;
nodes = (
"70 690 LINE",
"70 -200 LINE",
"389 -200 LINE",
"389 -70 LINE",
"227 -70 LINE",
"227 560 LINE",
"389 560 LINE",
"389 690 LINE"
);
}
);
width = 419;
}
);
unicode = 005B;
},
{
glyphname = parenleft;
lastChange = "2015-06-13 03:56:58 +0000";
layers = (
{
layerId = "DEFEBCF2-9FF2-4B76-ADC8-AB6BD79F23E7";
name = Regular;
paths = (
{
closed = 1;
nodes = (
"232 690 LINE",
"150 605 OFFCURVE",
"70 417 OFFCURVE",
"70 245 CURVE SMOOTH",
"70 63 OFFCURVE",
"150 -115 OFFCURVE",
"232 -200 CURVE",
"323 -200 LINE",
"242 -110 OFFCURVE",
"172 85 OFFCURVE",
"172 245 CURVE SMOOTH",
"172 395 OFFCURVE",
"242 600 OFFCURVE",
"323 690 CURVE"
);
}
);
width = 363;
},
{
layerId = "2D992F1A-8218-4049-8E15-5955C72037C9";
name = Bold;
paths = (
{
closed = 1;
nodes = (
"222 690 LINE",
"140 605 OFFCURVE",
"60 417 OFFCURVE",
"60 245 CURVE SMOOTH",
"60 63 OFFCURVE",
"140 -115 OFFCURVE",
"222 -200 CURVE",
"373 -200 LINE",
"292 -110 OFFCURVE",
"222 85 OFFCURVE",
"222 245 CURVE SMOOTH",
"222 395 OFFCURVE",
"292 600 OFFCURVE",
"373 690 CURVE"
);
}
);
width = 403;
}
);
unicode = 0028;
},
{
glyphname = emdash;
lastChange = "2015-06-13 03:56:58 +0000";
layers = (
{
layerId = "DEFEBCF2-9FF2-4B76-ADC8-AB6BD79F23E7";
name = Regular;
paths = (
{
closed = 1;
nodes = (
"60 298 LINE",
"60 208 LINE",
"828 208 LINE",
"828 298 LINE"
);
}
);
width = 888;
},
{
layerId = "2D992F1A-8218-4049-8E15-5955C72037C9";
name = Bold;
paths = (
{
closed = 1;
nodes = (
"60 338 LINE",
"60 188 LINE",
"828 188 LINE",
"828 338 LINE"
);
}
);
width = 888;
}
);
unicode = 2014;
},
{
glyphname = endash;
lastChange = "2015-06-13 03:56:58 +0000";
layers = (
{
layerId = "DEFEBCF2-9FF2-4B76-ADC8-AB6BD79F23E7";
name = Regular;
paths = (
{
closed = 1;
nodes = (
"60 298 LINE",
"60 208 LINE",
"550 208 LINE",
"550 298 LINE"
);
}
);
width = 610;
},
{
layerId = "2D992F1A-8218-4049-8E15-5955C72037C9";
name = Bold;
paths = (
{
closed = 1;
nodes = (
"60 338 LINE",
"60 188 LINE",
"550 188 LINE",
"550 338 LINE"
);
}
);
width = 600;
}
);
unicode = 2013;
},
{
glyphname = hyphen;
lastChange = "2015-06-13 03:56:58 +0000";
layers = (
{
layerId = "DEFEBCF2-9FF2-4B76-ADC8-AB6BD79F23E7";
name = Regular;
paths = (
{
closed = 1;
nodes = (
"60 298 LINE",
"60 208 LINE",
"361 208 LINE",
"361 298 LINE"
);
}
);
width = 421;
},
{
layerId = "2D992F1A-8218-4049-8E15-5955C72037C9";
name = Bold;
paths = (
{
closed = 1;
nodes = (
"60 338 LINE",
"60 188 LINE",
"361 188 LINE",
"361 338 LINE"
);
}
);
width = 421;
}
);
unicode = 002D;
},
{
glyphname = quoteleft;
lastChange = "2015-06-16 12:05:34 +0000";
layers = (
{
layerId = "DEFEBCF2-9FF2-4B76-ADC8-AB6BD79F23E7";
name = Regular;
paths = (
{
closed = 1;
nodes = (
"40 431 LINE",
"122 403 LINE",
"212 672 LINE",
"150 688 LINE"
);
}
);
width = 232;
},
{
layerId = "2D992F1A-8218-4049-8E15-5955C72037C9";
name = Bold;
paths = (
{
closed = 1;
nodes = (
"40 451 LINE",
"182 423 LINE",
"272 672 LINE",
"150 688 LINE"
);
}
);
width = 292;
}
);
unicode = 2018;
},
{
glyphname = quoteright;
lastChange = "2015-06-16 12:05:32 +0000";
layers = (
{
layerId = "DEFEBCF2-9FF2-4B76-ADC8-AB6BD79F23E7";
name = Regular;
paths = (
{
closed = 1;
nodes = (
"20 419 LINE",
"82 403 LINE",
"192 660 LINE",
"110 688 LINE"
);
}
);
width = 212;
},
{
layerId = "2D992F1A-8218-4049-8E15-5955C72037C9";
name = Bold;
paths = (
{
closed = 1;
nodes = (
"30 439 LINE",
"152 423 LINE",
"262 660 LINE",
"120 688 LINE"
);
}
);
width = 292;
}
);
unicode = 2019;
},
{
glyphname = cent;
lastChange = "2015-07-09 03:01:27 +0000";
layers = (
{
components = (
{
name = c;
}
);
layerId = "DEFEBCF2-9FF2-4B76-ADC8-AB6BD79F23E7";
leftMetricsKey = "=c";
rightMetricsKey = "=c";
name = Regular;
paths = (
{
closed = 1;
nodes = (
"253 580 LINE",
"253 -80 LINE",
"325 -80 LINE",
"325 580 LINE"
);
}
);
width = 511;
},
{
components = (
{
name = c;
}
);
layerId = "2D992F1A-8218-4049-8E15-5955C72037C9";
name = Bold;
paths = (
{
closed = 1;
nodes = (
"263 580 LINE",
"263 -80 LINE",
"380 -80 LINE",
"380 580 LINE"
);
}
);
width = 472;
}
);
leftMetricsKey = "=c";
rightMetricsKey = "=c";
unicode = 00A2;
},
{
glyphname = currency;
lastChange = "2015-07-09 03:01:27 +0000";
layers = (
{
layerId = "DEFEBCF2-9FF2-4B76-ADC8-AB6BD79F23E7";
name = Regular;
paths = (
{
closed = 1;
nodes = (
"174 436 OFFCURVE",
"80 359 OFFCURVE",
"80 252 CURVE SMOOTH",
"80 145 OFFCURVE",
"174 68 OFFCURVE",
"271 68 CURVE SMOOTH",
"368 68 OFFCURVE",
"462 145 OFFCURVE",
"462 252 CURVE SMOOTH",
"462 359 OFFCURVE",
"368 436 OFFCURVE",
"271 436 CURVE SMOOTH"
);
},
{
closed = 1;
nodes = (
"333 362 OFFCURVE",
"386 321 OFFCURVE",
"386 252 CURVE SMOOTH",
"386 183 OFFCURVE",
"333 142 OFFCURVE",
"271 142 CURVE SMOOTH",
"209 142 OFFCURVE",
"156 183 OFFCURVE",
"156 252 CURVE SMOOTH",
"156 321 OFFCURVE",
"209 362 OFFCURVE",
"271 362 CURVE SMOOTH"
);
},
{
closed = 1;
nodes = (
"337 135 LINE",
"438 34 LINE",
"492 85 LINE",
"404 170 LINE"
);
},
{
closed = 1;
nodes = (
"199 375 LINE",
"101 470 LINE",
"53 419 LINE",
"147 325 LINE"
);
},
{
closed = 1;
nodes = (
"393 323 LINE",
"489 419 LINE",
"441 470 LINE",
"345 377 LINE"
);
},
{
closed = 1;
nodes = (
"135 167 LINE",
"50 85 LINE",
"104 34 LINE",
"187 117 LINE"
);
}
);
width = 542;
},
{
layerId = "2D992F1A-8218-4049-8E15-5955C72037C9";
leftMetricsKey = "=o";
rightMetricsKey = "=o";
name = Bold;
paths = (
{
closed = 1;
nodes = (
"166 441 OFFCURVE",
"72 364 OFFCURVE",
"72 257 CURVE SMOOTH",
"72 150 OFFCURVE",
"166 73 OFFCURVE",
"263 73 CURVE SMOOTH",
"360 73 OFFCURVE",
"454 150 OFFCURVE",
"454 257 CURVE SMOOTH",
"454 364 OFFCURVE",
"360 441 OFFCURVE",
"263 441 CURVE SMOOTH"
);
},
{
closed = 1;
nodes = (
"298 319 OFFCURVE",
"328 296 OFFCURVE",
"328 257 CURVE SMOOTH",
"328 218 OFFCURVE",
"298 195 OFFCURVE",
"263 195 CURVE SMOOTH",
"228 195 OFFCURVE",
"198 218 OFFCURVE",
"198 257 CURVE SMOOTH",
"198 296 OFFCURVE",
"228 319 OFFCURVE",
"263 319 CURVE SMOOTH"
);
},
{
closed = 1;
nodes = (
"298 139 LINE",
"408 29 LINE",
"491 108 LINE",
"388 215 LINE"
);
},
{
closed = 1;
nodes = (
"242 361 LINE",
"118 485 LINE",
"35 407 LINE",
"156 282 LINE"
);
},
{
closed = 1;
nodes = (
"390 301 LINE",
"491 406 LINE",
"409 485 LINE",
"309 385 LINE"
);
},
{
closed = 1;
nodes = (
"157 233 LINE",
"35 108 LINE",
"118 29 LINE",
"235 146 LINE"
);
}
);
width = 526;
}
);
leftMetricsKey = "=o";
rightMetricsKey = "=o";
unicode = 00A4;
},
{
glyphname = dollar;
lastChange = "2015-06-14 05:33:33 +0000";
layers = (
{
layerId = "DEFEBCF2-9FF2-4B76-ADC8-AB6BD79F23E7";
name = Regular;
paths = (
{
closed = 1;
nodes = (
"171 649 OFFCURVE",
"77 574 OFFCURVE",
"77 478 CURVE SMOOTH",
"77 410 OFFCURVE",
"102 357 OFFCURVE",
"190 320 CURVE SMOOTH",
"301 274 LINE SMOOTH",
"338 259 OFFCURVE",
"388 232 OFFCURVE",
"388 187 CURVE SMOOTH",
"388 133 OFFCURVE",
"335 101 OFFCURVE",
"274 101 CURVE SMOOTH",
"196 101 OFFCURVE",
"135 132 OFFCURVE",
"88 165 CURVE",
"88 80 LINE",
"132 50 OFFCURVE",
"193 21 OFFCURVE",
"263 21 CURVE SMOOTH",
"375 21 OFFCURVE",
"472 91 OFFCURVE",
"472 190 CURVE SMOOTH",
"472 267 OFFCURVE",
"430 310 OFFCURVE",
"345 345 CURVE SMOOTH",
"252 383 LINE SMOOTH",
"201 404 OFFCURVE",
"162 426 OFFCURVE",
"162 475 CURVE SMOOTH",
"162 540 OFFCURVE",
"233 569 OFFCURVE",
"288 569 CURVE SMOOTH",
"345 569 OFFCURVE",
"405 541 OFFCURVE",
"439 516 CURVE",
"439 600 LINE",
"404 623 OFFCURVE",
"351 649 OFFCURVE",
"279 649 CURVE SMOOTH"
);
},
{
closed = 1;
nodes = (
"233 47 LINE",
"233 -60 LINE",
"305 -60 LINE",
"305 47 LINE"
);
},
{
closed = 1;
nodes = (
"233 586 LINE",
"305 586 LINE",
"305 710 LINE",
"233 710 LINE"
);
}
);
width = 550;
},
{
associatedMasterId = "2D992F1A-8218-4049-8E15-5955C72037C9";
layerId = "9C562968-A18D-4D7B-BA7E-0131CDD1AFCB";
name = "Bold Jun 14 15, 00:52";
paths = (
{
closed = 1;
nodes = (
"174 653 OFFCURVE",
"63 583 OFFCURVE",
"63 455 CURVE SMOOTH",
"63 381 OFFCURVE",
"89 309 OFFCURVE",
"192 276 CURVE SMOOTH",
"278 249 LINE SMOOTH",
"311 239 OFFCURVE",
"332 226 OFFCURVE",
"332 208 CURVE SMOOTH",
"332 182 OFFCURVE",
"303 173 OFFCURVE",
"261 173 CURVE SMOOTH",
"193 173 OFFCURVE",
"124 204 OFFCURVE",
"66 248 CURVE",
"66 83 LINE",
"119 45 OFFCURVE",
"195 17 OFFCURVE",
"267 17 CURVE SMOOTH",
"408 17 OFFCURVE",
"520 100 OFFCURVE",
"520 217 CURVE SMOOTH",
"520 275 OFFCURVE",
"487 340 OFFCURVE",
"398 373 CURVE SMOOTH",
"333 398 LINE SMOOTH",
"282 417 OFFCURVE",
"242 428 OFFCURVE",
"242 458 CURVE SMOOTH",
"242 486 OFFCURVE",
"276 497 OFFCURVE",
"316 497 CURVE SMOOTH",
"385 497 OFFCURVE",
"431 470 OFFCURVE",
"483 440 CURVE",
"483 605 LINE",
"440 634 OFFCURVE",
"364 653 OFFCURVE",
"293 653 CURVE SMOOTH"
);
},
{
closed = 1;
nodes = (
"226 700 LINE",
"226 -56 LINE",
"343 -56 LINE",
"343 700 LINE"
);
}
);
width = 573;
},
{
background = {
paths = (
{
closed = 1;
nodes = (
"174 653 OFFCURVE",
"63 583 OFFCURVE",
"63 455 CURVE SMOOTH",
"63 381 OFFCURVE",
"89 309 OFFCURVE",
"192 276 CURVE SMOOTH",
"278 249 LINE SMOOTH",
"311 239 OFFCURVE",
"332 226 OFFCURVE",
"332 208 CURVE SMOOTH",
"332 182 OFFCURVE",
"303 173 OFFCURVE",
"261 173 CURVE SMOOTH",
"193 173 OFFCURVE",
"124 204 OFFCURVE",
"66 248 CURVE",
"66 83 LINE",
"119 45 OFFCURVE",
"195 17 OFFCURVE",
"267 17 CURVE SMOOTH",
"408 17 OFFCURVE",
"520 100 OFFCURVE",
"520 217 CURVE SMOOTH",
"520 275 OFFCURVE",
"487 340 OFFCURVE",
"398 373 CURVE SMOOTH",
"333 398 LINE SMOOTH",
"282 417 OFFCURVE",
"242 428 OFFCURVE",
"242 458 CURVE SMOOTH",
"242 486 OFFCURVE",
"276 497 OFFCURVE",
"316 497 CURVE SMOOTH",
"385 497 OFFCURVE",
"431 470 OFFCURVE",
"483 440 CURVE",
"483 605 LINE",
"440 634 OFFCURVE",
"364 653 OFFCURVE",
"293 653 CURVE SMOOTH"
);
},
{
closed = 1;
nodes = (
"226 700 LINE",
"226 572 LINE",
"343 572 LINE",
"343 700 LINE"
);
},
{
closed = 1;
nodes = (
"226 84 LINE",
"226 -44 LINE",
"343 -44 LINE",
"343 84 LINE"
);
}
);
};
layerId = "2D992F1A-8218-4049-8E15-5955C72037C9";
name = Bold;
paths = (
{
closed = 1;
nodes = (
"174 653 OFFCURVE",
"63 583 OFFCURVE",
"63 455 CURVE SMOOTH",
"63 381 OFFCURVE",
"89 309 OFFCURVE",
"192 276 CURVE SMOOTH",
"278 249 LINE SMOOTH",
"311 239 OFFCURVE",
"332 226 OFFCURVE",
"332 208 CURVE SMOOTH",
"332 182 OFFCURVE",
"303 173 OFFCURVE",
"261 173 CURVE SMOOTH",
"193 173 OFFCURVE",
"124 204 OFFCURVE",
"66 248 CURVE",
"66 83 LINE",
"119 45 OFFCURVE",
"195 17 OFFCURVE",
"267 17 CURVE SMOOTH",
"408 17 OFFCURVE",
"520 100 OFFCURVE",
"520 217 CURVE SMOOTH",
"520 275 OFFCURVE",
"487 340 OFFCURVE",
"398 373 CURVE SMOOTH",
"333 398 LINE SMOOTH",
"282 417 OFFCURVE",
"242 428 OFFCURVE",
"242 458 CURVE SMOOTH",
"242 486 OFFCURVE",
"276 497 OFFCURVE",
"316 497 CURVE SMOOTH",
"385 497 OFFCURVE",
"431 470 OFFCURVE",
"483 440 CURVE",
"483 605 LINE",
"440 634 OFFCURVE",
"364 653 OFFCURVE",
"293 653 CURVE SMOOTH"
);
},
{
closed = 1;
nodes = (
"226 84 LINE",
"226 -44 LINE",
"343 -44 LINE",
"343 84 LINE"
);
},
{
closed = 1;
nodes = (
"226 572 LINE",
"343 572 LINE",
"343 700 LINE",
"226 700 LINE"
);
}
);
width = 573;
}
);
unicode = 0024;
},
{
glyphname = euro;
lastChange = "2015-07-09 03:01:27 +0000";
layers = (
{
background = {
components = (
{
name = C;
}
);
};
layerId = "DEFEBCF2-9FF2-4B76-ADC8-AB6BD79F23E7";
leftMetricsKey = "=C";
rightMetricsKey = "=C";
name = Regular;
paths = (
{
closed = 1;
nodes = (
"214 685 OFFCURVE",
"113 527 OFFCURVE",
"113 335 CURVE SMOOTH",
"113 143 OFFCURVE",
"214 -15 OFFCURVE",
"396 -15 CURVE SMOOTH",
"463 -15 OFFCURVE",
"510 3 OFFCURVE",
"557 41 CURVE",
"557 131 LINE",
"517 97 OFFCURVE",
"468 73 OFFCURVE",
"396 73 CURVE SMOOTH",
"266 73 OFFCURVE",
"205 185 OFFCURVE",
"205 335 CURVE SMOOTH",
"205 485 OFFCURVE",
"266 597 OFFCURVE",
"396 597 CURVE SMOOTH",
"472 597 OFFCURVE",
"530 551 OFFCURVE",
"567 514 CURVE",
"567 613 LINE",
"530 651 OFFCURVE",
"467 685 OFFCURVE",
"396 685 CURVE SMOOTH"
);
},
{
closed = 1;
nodes = (
"50 428 LINE",
"50 358 LINE",
"472 358 LINE",
"472 428 LINE"
);
},
{
closed = 1;
nodes = (
"50 303 LINE",
"50 233 LINE",
"472 233 LINE",
"472 303 LINE"
);
}
);
width = 617;
},
{
layerId = "2D992F1A-8218-4049-8E15-5955C72037C9";
name = Bold;
paths = (
{
closed = 1;
nodes = (
"286 685 OFFCURVE",
"113 557 OFFCURVE",
"113 335 CURVE SMOOTH",
"113 113 OFFCURVE",
"286 -15 OFFCURVE",
"448 -15 CURVE SMOOTH",
"491 -15 OFFCURVE",
"552 3 OFFCURVE",
"587 28 CURVE",
"587 205 LINE",
"556 178 OFFCURVE",
"522 160 OFFCURVE",
"475 160 CURVE SMOOTH",
"385 160 OFFCURVE",
"305 235 OFFCURVE",
"305 335 CURVE SMOOTH",
"305 435 OFFCURVE",
"385 510 OFFCURVE",
"475 510 CURVE SMOOTH",
"522 510 OFFCURVE",
"556 492 OFFCURVE",
"587 465 CURVE",
"587 642 LINE",
"562 667 OFFCURVE",
"491 685 OFFCURVE",
"448 685 CURVE SMOOTH"
);
},
{
closed = 1;
nodes = (
"40 440 LINE",
"40 350 LINE",
"490 350 LINE",
"490 440 LINE"
);
},
{
closed = 1;
nodes = (
"40 315 LINE",
"40 225 LINE",
"490 225 LINE",
"490 315 LINE"
);
}
);
width = 627;
}
);
leftMetricsKey = "=C";
rightMetricsKey = "=C";
unicode = 20AC;
},
{
glyphname = sterling;
lastChange = "2015-07-09 03:01:27 +0000";
layers = (
{
layerId = "DEFEBCF2-9FF2-4B76-ADC8-AB6BD79F23E7";
leftMetricsKey = "=L-20";
rightMetricsKey = "=f";
name = Regular;
paths = (
{
closed = 1;
nodes = (
"270 680 OFFCURVE",
"171 606 OFFCURVE",
"171 459 CURVE SMOOTH",
"171 263 LINE SMOOTH",
"171 189 OFFCURVE",
"148 90 OFFCURVE",
"90 70 CURVE",
"90 0 LINE",
"481 0 LINE",
"481 90 LINE",
"192 90 LINE",
"229 128 OFFCURVE",
"253 189 OFFCURVE",
"253 263 CURVE SMOOTH",
"253 450 LINE SMOOTH",
"253 554 OFFCURVE",
"312 601 OFFCURVE",
"371 602 CURVE SMOOTH",
"419 603 OFFCURVE",
"469 579 OFFCURVE",
"499 553 CURVE",
"499 633 LINE",
"477 656 OFFCURVE",
"430 680 OFFCURVE",
"376 680 CURVE SMOOTH"
);
},
{
closed = 1;
nodes = (
"92 378 LINE",
"92 298 LINE",
"409 298 LINE",
"409 378 LINE"
);
}
);
width = 513;
},
{
layerId = "2D992F1A-8218-4049-8E15-5955C72037C9";
leftMetricsKey = "=L-20";
rightMetricsKey = "=L";
name = Bold;
paths = (
{
closed = 1;
nodes = (
"271 680 OFFCURVE",
"150 599 OFFCURVE",
"150 439 CURVE",
"150 234 LINE",
"150 183 OFFCURVE",
"112 149 OFFCURVE",
"70 135 CURVE",
"70 0 LINE",
"510 0 LINE",
"510 165 LINE",
"290 165 LINE",
"318 183 OFFCURVE",
"337 213 OFFCURVE",
"337 253 CURVE SMOOTH",
"337 413 LINE SMOOTH",
"337 471 OFFCURVE",
"382 504 OFFCURVE",
"421 505 CURVE SMOOTH",
"459 506 OFFCURVE",
"494 491 OFFCURVE",
"518 473 CURVE",
"518 639 LINE",
"496 660 OFFCURVE",
"444 680 OFFCURVE",
"387 680 CURVE SMOOTH"
);
},
{
closed = 1;
nodes = (
"70 390 LINE",
"70 260 LINE",
"458 260 LINE",
"458 390 LINE"
);
}
);
width = 578;
}
);
leftMetricsKey = "=L";
rightMetricsKey = "=f";
unicode = 00A3;
},
{
glyphname = yen;
lastChange = "2015-07-09 03:01:27 +0000";
layers = (
{
components = (
{
name = Y;
}
);
layerId = "DEFEBCF2-9FF2-4B76-ADC8-AB6BD79F23E7";
leftMetricsKey = "=Y";
rightMetricsKey = "=Y";
name = Regular;
paths = (
{
closed = 1;
nodes = (
"105 338 LINE",
"105 268 LINE",
"527 268 LINE",
"527 338 LINE"
);
},
{
closed = 1;
nodes = (
"105 213 LINE",
"105 143 LINE",
"527 143 LINE",
"527 213 LINE"
);
}
);
width = 631;
},
{
components = (
{
name = Y;
}
);
layerId = "2D992F1A-8218-4049-8E15-5955C72037C9";
leftMetricsKey = "=Y";
name = Bold;
paths = (
{
closed = 1;
nodes = (
"141 321 LINE",
"141 231 LINE",
"591 231 LINE",
"591 321 LINE"
);
},
{
closed = 1;
nodes = (
"141 196 LINE",
"141 106 LINE",
"591 106 LINE",
"591 196 LINE"
);
}
);
width = 731;
}
);
leftMetricsKey = "+Y";
rightMetricsKey = "=Y";
unicode = 00A5;
},
{
glyphname = asciitilde;
lastChange = "2015-06-14 05:26:17 +0000";
layers = (
{
layerId = "DEFEBCF2-9FF2-4B76-ADC8-AB6BD79F23E7";
name = Regular;
paths = (
{
closed = 1;
nodes = (
"382 416 LINE",
"382 386 OFFCURVE",
"367 360 OFFCURVE",
"338 360 CURVE SMOOTH",
"288 360 OFFCURVE",
"274 422 OFFCURVE",
"186 422 CURVE SMOOTH",
"113 422 OFFCURVE",
"60 367 OFFCURVE",
"60 297 CURVE",
"142 297 LINE",
"142 327 OFFCURVE",
"158 353 OFFCURVE",
"186 353 CURVE SMOOTH",
"236 353 OFFCURVE",
"250 291 OFFCURVE",
"338 291 CURVE SMOOTH",
"411 291 OFFCURVE",
"464 346 OFFCURVE",
"464 416 CURVE"
);
}
);
width = 524;
},
{
layerId = "2D992F1A-8218-4049-8E15-5955C72037C9";
name = Bold;
paths = (
{
closed = 1;
nodes = (
"432 446 LINE",
"432 416 OFFCURVE",
"417 390 OFFCURVE",
"388 390 CURVE SMOOTH",
"338 390 OFFCURVE",
"304 452 OFFCURVE",
"216 452 CURVE SMOOTH",
"123 452 OFFCURVE",
"60 377 OFFCURVE",
"60 267 CURVE",
"182 267 LINE",
"182 297 OFFCURVE",
"198 323 OFFCURVE",
"226 323 CURVE SMOOTH",
"276 323 OFFCURVE",
"310 261 OFFCURVE",
"398 261 CURVE SMOOTH",
"491 261 OFFCURVE",
"554 336 OFFCURVE",
"554 446 CURVE"
);
}
);
width = 614;
}
);
unicode = 007E;
},
{
glyphname = divide;
lastChange = "2015-06-13 06:30:03 +0000";
layers = (
{
layerId = "DEFEBCF2-9FF2-4B76-ADC8-AB6BD79F23E7";
name = Regular;
paths = (
{
closed = 1;
nodes = (
"80 358 LINE",
"80 268 LINE",
"471 268 LINE",
"471 358 LINE"
);
},
{
closed = 1;
nodes = (
"241 193 OFFCURVE",
"213 165 OFFCURVE",
"213 130 CURVE SMOOTH",
"213 96 OFFCURVE",
"241 67 OFFCURVE",
"276 67 CURVE SMOOTH",
"310 67 OFFCURVE",
"339 96 OFFCURVE",
"339 130 CURVE SMOOTH",
"339 165 OFFCURVE",
"310 193 OFFCURVE",
"276 193 CURVE SMOOTH"
);
},
{
closed = 1;
nodes = (
"241 557 OFFCURVE",
"213 529 OFFCURVE",
"213 494 CURVE SMOOTH",
"213 460 OFFCURVE",
"241 431 OFFCURVE",
"276 431 CURVE SMOOTH",
"310 431 OFFCURVE",
"339 460 OFFCURVE",
"339 494 CURVE SMOOTH",
"339 529 OFFCURVE",
"310 557 OFFCURVE",
"276 557 CURVE SMOOTH"
);
}
);
width = 551;
},
{
layerId = "2D992F1A-8218-4049-8E15-5955C72037C9";
name = Bold;
paths = (
{
closed = 1;
nodes = (
"80 388 LINE",
"80 238 LINE",
"471 238 LINE",
"471 388 LINE"
);
},
{
closed = 1;
nodes = (
"229 195 OFFCURVE",
"191 157 OFFCURVE",
"191 110 CURVE SMOOTH",
"191 64 OFFCURVE",
"229 25 OFFCURVE",
"276 25 CURVE SMOOTH",
"322 25 OFFCURVE",
"361 64 OFFCURVE",
"361 110 CURVE SMOOTH",
"361 157 OFFCURVE",
"322 195 OFFCURVE",
"276 195 CURVE SMOOTH"
);
},
{
closed = 1;
nodes = (
"229 599 OFFCURVE",
"191 561 OFFCURVE",
"191 514 CURVE SMOOTH",
"191 468 OFFCURVE",
"229 429 OFFCURVE",
"276 429 CURVE SMOOTH",
"322 429 OFFCURVE",
"361 468 OFFCURVE",
"361 514 CURVE SMOOTH",
"361 561 OFFCURVE",
"322 599 OFFCURVE",
"276 599 CURVE SMOOTH"
);
}
);
width = 551;
}
);
unicode = 00F7;
},
{
glyphname = equal;
lastChange = "2015-06-13 06:18:48 +0000";
layers = (
{
layerId = "DEFEBCF2-9FF2-4B76-ADC8-AB6BD79F23E7";
name = Regular;
paths = (
{
closed = 1;
nodes = (
"80 448 LINE",
"80 358 LINE",
"471 358 LINE",
"471 448 LINE"
);
},
{
closed = 1;
nodes = (
"80 263 LINE",
"80 173 LINE",
"471 173 LINE",
"471 263 LINE"
);
}
);
width = 551;
},
{
layerId = "2D992F1A-8218-4049-8E15-5955C72037C9";
name = Bold;
paths = (
{
closed = 1;
nodes = (
"80 493 LINE",
"80 343 LINE",
"471 343 LINE",
"471 493 LINE"
);
},
{
closed = 1;
nodes = (
"80 278 LINE",
"80 128 LINE",
"471 128 LINE",
"471 278 LINE"
);
}
);
width = 551;
}
);
unicode = 003D;
},
{
glyphname = greaterequal;
lastChange = "2015-06-14 05:29:46 +0000";
layers = (
{
layerId = "DEFEBCF2-9FF2-4B76-ADC8-AB6BD79F23E7";
name = Regular;
paths = (
{
closed = 1;
nodes = (
"80 521 LINE",
"363 363 LINE",
"80 194 LINE",
"80 113 LINE",
"453 341 LINE",
"453 383 LINE",
"80 602 LINE"
);
},
{
closed = 1;
nodes = (
"80 74 LINE",
"80 0 LINE",
"453 0 LINE",
"453 74 LINE"
);
}
);
width = 533;
},
{
layerId = "2D992F1A-8218-4049-8E15-5955C72037C9";
name = Bold;
paths = (
{
closed = 1;
nodes = (
"80 497 LINE",
"293 399 LINE",
"80 290 LINE",
"80 149 LINE",
"498 377 LINE",
"498 419 LINE",
"80 638 LINE"
);
},
{
closed = 1;
nodes = (
"80 130 LINE",
"80 0 LINE",
"498 0 LINE",
"498 130 LINE"
);
}
);
width = 565;
}
);
unicode = 2265;
},
{
glyphname = less;
lastChange = "2015-06-13 03:56:58 +0000";
layers = (
{
layerId = "DEFEBCF2-9FF2-4B76-ADC8-AB6BD79F23E7";
name = Regular;
paths = (
{
closed = 1;
nodes = (
"60 327 LINE",
"60 276 LINE",
"460 0 LINE",
"460 98 LINE",
"154 303 LINE",
"460 494 LINE",
"460 592 LINE"
);
}
);
width = 500;
},
{
layerId = "2D992F1A-8218-4049-8E15-5955C72037C9";
name = Bold;
paths = (
{
closed = 1;
nodes = (
"60 327 LINE",
"60 276 LINE",
"530 0 LINE",
"530 178 LINE",
"284 303 LINE",
"530 415 LINE",
"530 593 LINE"
);
}
);
width = 600;
}
);
unicode = 003C;
},
{
glyphname = minus;
lastChange = "2015-06-13 06:18:12 +0000";
layers = (
{
layerId = "DEFEBCF2-9FF2-4B76-ADC8-AB6BD79F23E7";
name = Regular;
paths = (
{
closed = 1;
nodes = (
"80 358 LINE",
"80 268 LINE",
"471 268 LINE",
"471 358 LINE"
);
}
);
width = 551;
},
{
layerId = "2D992F1A-8218-4049-8E15-5955C72037C9";
name = Bold;
paths = (
{
closed = 1;
nodes = (
"80 388 LINE",
"80 238 LINE",
"451 238 LINE",
"451 388 LINE"
);
}
);
width = 531;
}
);
unicode = 2212;
},
{
glyphname = multiply;
lastChange = "2015-06-13 06:20:02 +0000";
layers = (
{
layerId = "DEFEBCF2-9FF2-4B76-ADC8-AB6BD79F23E7";
name = Regular;
paths = (
{
closed = 1;
nodes = (
"80 206 LINE",
"144 142 LINE",
"420 419 LINE",
"356 483 LINE"
);
},
{
closed = 1;
nodes = (
"81 419 LINE",
"356 143 LINE",
"420 207 LINE",
"144 483 LINE"
);
}
);
width = 500;
},
{
layerId = "2D992F1A-8218-4049-8E15-5955C72037C9";
name = Bold;
paths = (
{
closed = 1;
nodes = (
"84 227 LINE",
"190 121 LINE",
"466 398 LINE",
"360 504 LINE"
);
},
{
closed = 1;
nodes = (
"84 398 LINE",
"360 122 LINE",
"466 228 LINE",
"191 504 LINE"
);
}
);
width = 600;
}
);
unicode = 00D7;
},
{
glyphname = notequal;
lastChange = "2015-06-13 06:20:33 +0000";
layers = (
{
components = (
{
name = equal;
}
);
layerId = "DEFEBCF2-9FF2-4B76-ADC8-AB6BD79F23E7";
name = Regular;
paths = (
{
closed = 1;
nodes = (
"353 510 LINE",
"114 82 LINE",
"182 82 LINE",
"424 510 LINE"
);
}
);
width = 551;
},
{
components = (
{
name = equal;
}
);
layerId = "2D992F1A-8218-4049-8E15-5955C72037C9";
name = Bold;
paths = (
{
closed = 1;
nodes = (
"323 550 LINE",
"94 42 LINE",
"212 42 LINE",
"444 550 LINE"
);
}
);
width = 551;
}
);
unicode = 2260;
},
{
glyphname = percent;
lastChange = "2015-06-24 00:49:49 +0000";
layers = (
{
layerId = "DEFEBCF2-9FF2-4B76-ADC8-AB6BD79F23E7";
name = Regular;
paths = (
{
closed = 1;
nodes = (
"180 7 LINE",
"233 -20 LINE",
"644 663 LINE",
"588 690 LINE"
);
},
{
closed = 1;
nodes = (
"101 685 OFFCURVE",
"40 616 OFFCURVE",
"40 532 CURVE SMOOTH",
"40 447 OFFCURVE",
"101 379 OFFCURVE",
"192 379 CURVE SMOOTH",
"282 379 OFFCURVE",
"344 447 OFFCURVE",
"344 532 CURVE SMOOTH",
"344 616 OFFCURVE",
"282 685 OFFCURVE",
"192 685 CURVE SMOOTH"
);
},
{
closed = 1;
nodes = (
"239 617 OFFCURVE",
"275 578 OFFCURVE",
"275 532 CURVE SMOOTH",
"275 485 OFFCURVE",
"239 446 OFFCURVE",
"193 446 CURVE SMOOTH",
"146 446 OFFCURVE",
"110 485 OFFCURVE",
"110 532 CURVE SMOOTH",
"110 578 OFFCURVE",
"146 617 OFFCURVE",
"193 617 CURVE SMOOTH"
);
},
{
closed = 1;
nodes = (
"541 291 OFFCURVE",
"480 222 OFFCURVE",
"480 138 CURVE SMOOTH",
"480 53 OFFCURVE",
"541 -15 OFFCURVE",
"632 -15 CURVE SMOOTH",
"722 -15 OFFCURVE",
"784 53 OFFCURVE",
"784 138 CURVE SMOOTH",
"784 222 OFFCURVE",
"722 291 OFFCURVE",
"632 291 CURVE SMOOTH"
);
},
{
closed = 1;
nodes = (
"679 223 OFFCURVE",
"715 184 OFFCURVE",
"715 138 CURVE SMOOTH",
"715 91 OFFCURVE",
"679 52 OFFCURVE",
"633 52 CURVE SMOOTH",
"586 52 OFFCURVE",
"550 91 OFFCURVE",
"550 138 CURVE SMOOTH",
"550 184 OFFCURVE",
"586 223 OFFCURVE",
"633 223 CURVE SMOOTH"
);
}
);
width = 824;
},
{
layerId = "2D992F1A-8218-4049-8E15-5955C72037C9";
name = Bold;
paths = (
{
closed = 1;
nodes = (
"153 37 LINE",
"263 -20 LINE",
"674 663 LINE",
"561 720 LINE"
);
},
{
closed = 1;
nodes = (
"101 685 OFFCURVE",
"40 616 OFFCURVE",
"40 532 CURVE SMOOTH",
"40 447 OFFCURVE",
"101 379 OFFCURVE",
"192 379 CURVE SMOOTH",
"282 379 OFFCURVE",
"344 447 OFFCURVE",
"344 532 CURVE SMOOTH",
"344 616 OFFCURVE",
"282 685 OFFCURVE",
"192 685 CURVE SMOOTH"
);
},
{
closed = 1;
nodes = (
"218 578 OFFCURVE",
"238 557 OFFCURVE",
"238 532 CURVE SMOOTH",
"238 506 OFFCURVE",
"218 485 OFFCURVE",
"193 485 CURVE SMOOTH",
"167 485 OFFCURVE",
"147 506 OFFCURVE",
"147 532 CURVE SMOOTH",
"147 557 OFFCURVE",
"167 578 OFFCURVE",
"193 578 CURVE SMOOTH"
);
},
{
closed = 1;
nodes = (
"541 291 OFFCURVE",
"480 222 OFFCURVE",
"480 138 CURVE SMOOTH",
"480 53 OFFCURVE",
"541 -15 OFFCURVE",
"632 -15 CURVE SMOOTH",
"722 -15 OFFCURVE",
"784 53 OFFCURVE",
"784 138 CURVE SMOOTH",
"784 222 OFFCURVE",
"722 291 OFFCURVE",
"632 291 CURVE SMOOTH"
);
},
{
closed = 1;
nodes = (
"658 184 OFFCURVE",
"678 163 OFFCURVE",
"678 138 CURVE SMOOTH",
"678 112 OFFCURVE",
"658 91 OFFCURVE",
"633 91 CURVE SMOOTH",
"607 91 OFFCURVE",
"587 112 OFFCURVE",
"587 138 CURVE SMOOTH",
"587 163 OFFCURVE",
"607 184 OFFCURVE",
"633 184 CURVE SMOOTH"
);
}
);
width = 824;
}
);
unicode = 0025;
},
{
glyphname = plus;
lastChange = "2015-06-13 06:19:19 +0000";
layers = (
{
layerId = "DEFEBCF2-9FF2-4B76-ADC8-AB6BD79F23E7";
name = Regular;
paths = (
{
closed = 1;
nodes = (
"230 508 LINE",
"230 117 LINE",
"320 117 LINE",
"320 508 LINE"
);
},
{
closed = 1;
nodes = (
"80 358 LINE",
"80 268 LINE",
"470 268 LINE",
"470 358 LINE"
);
}
);
width = 550;
},
{
layerId = "2D992F1A-8218-4049-8E15-5955C72037C9";
name = Bold;
paths = (
{
closed = 1;
nodes = (
"200 508 LINE",
"200 117 LINE",
"350 117 LINE",
"350 508 LINE"
);
},
{
closed = 1;
nodes = (
"80 388 LINE",
"80 238 LINE",
"470 238 LINE",
"470 388 LINE"
);
}
);
width = 550;
}
);
unicode = 002B;
},
{
glyphname = plusminus;
lastChange = "2015-06-14 05:31:58 +0000";
layers = (
{
layerId = "DEFEBCF2-9FF2-4B76-ADC8-AB6BD79F23E7";
name = Regular;
paths = (
{
closed = 1;
nodes = (
"220 498 LINE",
"220 167 LINE",
"310 167 LINE",
"310 498 LINE"
);
},
{
closed = 1;
nodes = (
"80 378 LINE",
"80 288 LINE",
"450 288 LINE",
"450 378 LINE"
);
},
{
closed = 1;
nodes = (
"80 90 LINE",
"80 0 LINE",
"451 0 LINE",
"451 90 LINE"
);
}
);
width = 531;
},
{
layerId = "2D992F1A-8218-4049-8E15-5955C72037C9";
name = Bold;
paths = (
{
closed = 1;
nodes = (
"200 510 LINE",
"200 179 LINE",
"330 179 LINE",
"330 510 LINE"
);
},
{
closed = 1;
nodes = (
"80 410 LINE",
"80 280 LINE",
"450 280 LINE",
"450 410 LINE"
);
},
{
closed = 1;
nodes = (
"80 130 LINE",
"80 0 LINE",
"451 0 LINE",
"451 130 LINE"
);
}
);
width = 531;
}
);
unicode = 00B1;
},
{
glyphname = bar;
lastChange = "2015-06-13 06:20:57 +0000";
layers = (
{
layerId = "DEFEBCF2-9FF2-4B76-ADC8-AB6BD79F23E7";
name = Regular;
paths = (
{
closed = 1;
nodes = (
"80 705 LINE",
"80 -200 LINE",
"150 -200 LINE",
"150 705 LINE"
);
}
);
width = 230;
},
{
layerId = "2D992F1A-8218-4049-8E15-5955C72037C9";
name = Bold;
paths = (
{
closed = 1;
nodes = (
"80 705 LINE",
"80 -200 LINE",
"210 -200 LINE",
"210 705 LINE"
);
}
);
width = 290;
}
);
unicode = 007C;
},
{
glyphname = brokenbar;
lastChange = "2015-06-13 06:21:06 +0000";
layers = (
{
layerId = "DEFEBCF2-9FF2-4B76-ADC8-AB6BD79F23E7";
name = Regular;
paths = (
{
closed = 1;
nodes = (
"80 705 LINE",
"80 289 LINE",
"150 289 LINE",
"150 705 LINE"
);
},
{
closed = 1;
nodes = (
"80 216 LINE",
"80 -200 LINE",
"150 -200 LINE",
"150 216 LINE"
);
}
);
width = 230;
},
{
layerId = "2D992F1A-8218-4049-8E15-5955C72037C9";
name = Bold;
paths = (
{
closed = 1;
nodes = (
"80 705 LINE",
"80 289 LINE",
"210 289 LINE",
"210 705 LINE"
);
},
{
closed = 1;
nodes = (
"80 216 LINE",
"80 -200 LINE",
"210 -200 LINE",
"210 216 LINE"
);
}
);
width = 290;
}
);
unicode = 00A6;
},
{
glyphname = at;
lastChange = "2015-07-09 03:01:27 +0000";
layers = (
{
layerId = "DEFEBCF2-9FF2-4B76-ADC8-AB6BD79F23E7";
name = Regular;
paths = (
{
closed = 1;
nodes = (
"218 612 OFFCURVE",
"50 456 OFFCURVE",
"50 243 CURVE SMOOTH",
"50 30 OFFCURVE",
"208 -107 OFFCURVE",
"412 -107 CURVE SMOOTH",
"511 -107 OFFCURVE",
"593 -75 OFFCURVE",
"684 -26 CURVE",
"648 35 LINE",
"568 -10 OFFCURVE",
"510 -32 OFFCURVE",
"412 -32 CURVE SMOOTH",
"246 -32 OFFCURVE",
"133 77 OFFCURVE",
"133 243 CURVE SMOOTH",
"133 410 OFFCURVE",
"256 536 OFFCURVE",
"412 536 CURVE SMOOTH",
"569 536 OFFCURVE",
"691 440 OFFCURVE",
"691 273 CURVE SMOOTH",
"691 172 OFFCURVE",
"639 120 OFFCURVE",
"592 120 CURVE SMOOTH",
"536 120 OFFCURVE",
"540 160 OFFCURVE",
"555 224 CURVE SMOOTH",
"603 432 LINE",
"531 432 LINE",
"522 383 LINE",
"497 419 OFFCURVE",
"457 439 OFFCURVE",
"415 439 CURVE SMOOTH",
"307 439 OFFCURVE",
"222 363 OFFCURVE",
"201 243 CURVE SMOOTH",
"183 142 OFFCURVE",
"240 56 OFFCURVE",
"335 56 CURVE SMOOTH",
"390 56 OFFCURVE",
"435 80 OFFCURVE",
"471 129 CURVE",
"481 85 OFFCURVE",
"521 56 OFFCURVE",
"578 56 CURVE SMOOTH",
"685 56 OFFCURVE",
"774 154 OFFCURVE",
"774 273 CURVE SMOOTH",
"774 486 OFFCURVE",
"606 612 OFFCURVE",
"412 612 CURVE SMOOTH"
);
},
{
closed = 1;
nodes = (
"449 365 OFFCURVE",
"484 349 OFFCURVE",
"510 319 CURVE",
"491 237 LINE SMOOTH",
"473 160 OFFCURVE",
"422 125 OFFCURVE",
"356 125 CURVE SMOOTH",
"292 125 OFFCURVE",
"264 173 OFFCURVE",
"278 243 CURVE SMOOTH",
"292 314 OFFCURVE",
"336 365 OFFCURVE",
"414 365 CURVE SMOOTH"
);
}
);
width = 824;
},
{
background = {
paths = (
{
closed = 1;
nodes = (
"203 612 OFFCURVE",
"35 456 OFFCURVE",
"35 243 CURVE SMOOTH",
"35 30 OFFCURVE",
"193 -107 OFFCURVE",
"397 -107 CURVE SMOOTH",
"496 -107 OFFCURVE",
"578 -75 OFFCURVE",
"669 -26 CURVE",
"633 35 LINE",
"553 -10 OFFCURVE",
"495 -32 OFFCURVE",
"397 -32 CURVE SMOOTH",
"231 -32 OFFCURVE",
"118 77 OFFCURVE",
"118 243 CURVE SMOOTH",
"118 410 OFFCURVE",
"241 536 OFFCURVE",
"397 536 CURVE SMOOTH",
"554 536 OFFCURVE",
"676 440 OFFCURVE",
"676 273 CURVE SMOOTH",
"676 172 OFFCURVE",
"624 120 OFFCURVE",
"577 120 CURVE SMOOTH",
"521 120 OFFCURVE",
"525 160 OFFCURVE",
"540 224 CURVE SMOOTH",
"588 432 LINE",
"516 432 LINE",
"507 383 LINE",
"482 419 OFFCURVE",
"442 439 OFFCURVE",
"400 439 CURVE SMOOTH",
"292 439 OFFCURVE",
"207 363 OFFCURVE",
"186 243 CURVE SMOOTH",
"168 142 OFFCURVE",
"225 56 OFFCURVE",
"320 56 CURVE SMOOTH",
"375 56 OFFCURVE",
"420 80 OFFCURVE",
"456 129 CURVE",
"466 85 OFFCURVE",
"506 56 OFFCURVE",
"563 56 CURVE SMOOTH",
"670 56 OFFCURVE",
"759 154 OFFCURVE",
"759 273 CURVE SMOOTH",
"759 486 OFFCURVE",
"591 612 OFFCURVE",
"397 612 CURVE SMOOTH"
);
},
{
closed = 1;
nodes = (
"434 365 OFFCURVE",
"469 349 OFFCURVE",
"495 319 CURVE",
"476 237 LINE SMOOTH",
"458 160 OFFCURVE",
"407 125 OFFCURVE",
"341 125 CURVE SMOOTH",
"277 125 OFFCURVE",
"249 173 OFFCURVE",
"263 243 CURVE SMOOTH",
"277 314 OFFCURVE",
"321 365 OFFCURVE",
"399 365 CURVE SMOOTH"
);
}
);
};
layerId = "2D992F1A-8218-4049-8E15-5955C72037C9";
leftMetricsKey = "=o";
rightMetricsKey = "=o";
name = Bold;
paths = (
{
closed = 1;
nodes = (
"193 612 OFFCURVE",
"35 456 OFFCURVE",
"35 243 CURVE SMOOTH",
"35 30 OFFCURVE",
"193 -107 OFFCURVE",
"397 -107 CURVE SMOOTH",
"474 -107 OFFCURVE",
"541 -94 OFFCURVE",
"609 -60 CURVE",
"563 27 LINE",
"515 5 OFFCURVE",
"471 -2 OFFCURVE",
"397 -2 CURVE SMOOTH",
"257 -2 OFFCURVE",
"148 77 OFFCURVE",
"148 243 CURVE SMOOTH",
"148 410 OFFCURVE",
"261 506 OFFCURVE",
"397 506 CURVE SMOOTH",
"534 506 OFFCURVE",
"646 445 OFFCURVE",
"646 278 CURVE SMOOTH",
"646 189 OFFCURVE",
"603 170 OFFCURVE",
"577 170 CURVE SMOOTH",
"541 170 OFFCURVE",
"528 199 OFFCURVE",
"542 254 CURVE SMOOTH",
"585 427 LINE",
"481 427 LINE",
"474 398 LINE",
"459 418 OFFCURVE",
"424 440 OFFCURVE",
"378 440 CURVE SMOOTH",
"290 440 OFFCURVE",
"197 368 OFFCURVE",
"186 248 CURVE SMOOTH",
"175 133 OFFCURVE",
"235 71 OFFCURVE",
"330 71 CURVE SMOOTH",
"377 71 OFFCURVE",
"420 85 OFFCURVE",
"456 124 CURVE",
"469 100 OFFCURVE",
"511 71 OFFCURVE",
"568 71 CURVE SMOOTH",
"685 71 OFFCURVE",
"759 159 OFFCURVE",
"759 278 CURVE SMOOTH",
"759 483 OFFCURVE",
"601 612 OFFCURVE",
"397 612 CURVE SMOOTH"
);
},
{
closed = 1;
nodes = (
"415 330 OFFCURVE",
"439 324 OFFCURVE",
"455 314 CURVE",
"443 262 LINE SMOOTH",
"426 187 OFFCURVE",
"395 170 OFFCURVE",
"354 170 CURVE SMOOTH",
"320 170 OFFCURVE",
"292 198 OFFCURVE",
"303 248 CURVE SMOOTH",
"316 307 OFFCURVE",
"355 330 OFFCURVE",
"393 330 CURVE SMOOTH"
);
}
);
width = 794;
}
);
leftMetricsKey = "=o";
rightMetricsKey = "=o";
unicode = 0040;
},
{
glyphname = ampersand;
lastChange = "2015-07-09 03:01:27 +0000";
layers = (
{
background = {
paths = (
{
closed = 0;
nodes = (
"623 7 LINE",
"453 177 OFFCURVE",
"212 401 OFFCURVE",
"212 551 CURVE SMOOTH",
"212 628 OFFCURVE",
"284 670 OFFCURVE",
"335 670 CURVE SMOOTH",
"383 670 OFFCURVE",
"450 633 OFFCURVE",
"450 551 CURVE SMOOTH",
"450 401 OFFCURVE",
"121 378 OFFCURVE",
"121 184 CURVE SMOOTH",
"121 80 OFFCURVE",
"198 0 OFFCURVE",
"300 0 CURVE SMOOTH",
"458 0 OFFCURVE",
"618 175 OFFCURVE",
"618 350 CURVE SMOOTH"
);
}
);
};
layerId = "DEFEBCF2-9FF2-4B76-ADC8-AB6BD79F23E7";
leftMetricsKey = "=O";
name = Regular;
paths = (
{
closed = 1;
nodes = (
"223 685 OFFCURVE",
"133 630 OFFCURVE",
"133 516 CURVE SMOOTH",
"133 423 OFFCURVE",
"206 372 OFFCURVE",
"266 304 CURVE SMOOTH",
"364 193 OFFCURVE",
"452 96 OFFCURVE",
"548 0 CURVE",
"659 0 LINE",
"538 129 OFFCURVE",
"435 237 OFFCURVE",
"333 353 CURVE SMOOTH",
"284 409 OFFCURVE",
"232 456 OFFCURVE",
"232 512 CURVE SMOOTH",
"232 575 OFFCURVE",
"276 597 OFFCURVE",
"316 597 CURVE SMOOTH",
"354 597 OFFCURVE",
"402 574 OFFCURVE",
"402 522 CURVE SMOOTH",
"402 363 OFFCURVE",
"50 376 OFFCURVE",
"50 170 CURVE SMOOTH",
"50 62 OFFCURVE",
"138 -15 OFFCURVE",
"270 -15 CURVE SMOOTH",
"377 -15 OFFCURVE",
"447 44 OFFCURVE",
"505 126 CURVE SMOOTH",
"547 185 OFFCURVE",
"594 262 OFFCURVE",
"644 350 CURVE",
"546 350 LINE",
"500 270 OFFCURVE",
"470 218 OFFCURVE",
"433 170 CURVE SMOOTH",
"393 118 OFFCURVE",
"359 73 OFFCURVE",
"273 73 CURVE SMOOTH",
"201 73 OFFCURVE",
"149 108 OFFCURVE",
"149 170 CURVE SMOOTH",
"149 263 OFFCURVE",
"284 294 OFFCURVE",
"377 354 CURVE SMOOTH",
"444 397 OFFCURVE",
"501 441 OFFCURVE",
"501 522 CURVE SMOOTH",
"501 627 OFFCURVE",
"405 685 OFFCURVE",
"316 685 CURVE SMOOTH"
);
}
);
width = 709;
},
{
layerId = "2D992F1A-8218-4049-8E15-5955C72037C9";
rightMetricsKey = "=O";
name = Bold;
paths = (
{
closed = 1;
nodes = (
"204 685 OFFCURVE",
"113 601 OFFCURVE",
"113 509 CURVE SMOOTH",
"113 423 OFFCURVE",
"170 366 OFFCURVE",
"236 304 CURVE SMOOTH",
"354 193 OFFCURVE",
"432 96 OFFCURVE",
"528 0 CURVE",
"735 0 LINE",
"604 129 OFFCURVE",
"495 237 OFFCURVE",
"393 353 CURVE SMOOTH",
"344 409 OFFCURVE",
"292 456 OFFCURVE",
"292 492 CURVE SMOOTH",
"292 514 OFFCURVE",
"306 537 OFFCURVE",
"336 537 CURVE SMOOTH",
"364 537 OFFCURVE",
"382 514 OFFCURVE",
"382 492 CURVE SMOOTH",
"382 393 OFFCURVE",
"40 376 OFFCURVE",
"40 170 CURVE SMOOTH",
"40 59 OFFCURVE",
"138 -15 OFFCURVE",
"270 -15 CURVE SMOOTH",
"412 -15 OFFCURVE",
"482 51 OFFCURVE",
"541 126 CURVE SMOOTH",
"590 188 OFFCURVE",
"644 262 OFFCURVE",
"694 350 CURVE",
"516 350 LINE",
"490 300 OFFCURVE",
"457 261 OFFCURVE",
"420 213 CURVE SMOOTH",
"380 161 OFFCURVE",
"349 133 OFFCURVE",
"293 133 CURVE SMOOTH",
"261 133 OFFCURVE",
"229 152 OFFCURVE",
"229 190 CURVE SMOOTH",
"229 243 OFFCURVE",
"304 264 OFFCURVE",
"397 324 CURVE SMOOTH",
"464 367 OFFCURVE",
"561 411 OFFCURVE",
"561 509 CURVE SMOOTH",
"561 601 OFFCURVE",
"466 685 OFFCURVE",
"337 685 CURVE SMOOTH"
);
}
);
width = 775;
}
);
leftMetricsKey = "=O";
rightMetricsKey = "=O";
unicode = 0026;
},
{
glyphname = paragraph;
lastChange = "2015-07-09 03:01:27 +0000";
layers = (
{
layerId = "DEFEBCF2-9FF2-4B76-ADC8-AB6BD79F23E7";
name = Regular;
paths = (
{
closed = 1;
nodes = (
"553 670 LINE",
"276 670 LINE SMOOTH",
"164 670 OFFCURVE",
"50 619 OFFCURVE",
"50 481 CURVE SMOOTH",
"50 346 OFFCURVE",
"164 292 OFFCURVE",
"276 292 CURVE SMOOTH",
"326 292 LINE",
"326 -210 LINE",
"381 -210 LINE",
"381 614 LINE",
"501 614 LINE",
"501 -210 LINE",
"553 -210 LINE"
);
}
);
width = 663;
},
{
layerId = "2D992F1A-8218-4049-8E15-5955C72037C9";
leftMetricsKey = "=|P";
rightMetricsKey = "=|L";
name = Bold;
paths = (
{
closed = 1;
nodes = (
"570 670 LINE",
"283 670 LINE SMOOTH",
"151 670 OFFCURVE",
"30 609 OFFCURVE",
"30 451 CURVE SMOOTH",
"30 296 OFFCURVE",
"151 232 OFFCURVE",
"283 232 CURVE SMOOTH",
"333 232 LINE",
"333 -210 LINE",
"428 -210 LINE",
"428 544 LINE",
"478 544 LINE",
"478 -210 LINE",
"570 -210 LINE"
);
}
);
width = 660;
}
);
leftMetricsKey = "=|P";
rightMetricsKey = "=|L";
unicode = 00B6;
},
{
glyphname = copyright;
lastChange = "2015-07-09 03:01:27 +0000";
layers = (
{
components = (
{
name = c;
transform = "{0.812, 0, 0, 0.812, 209, 138}";
}
);
layerId = "DEFEBCF2-9FF2-4B76-ADC8-AB6BD79F23E7";
leftMetricsKey = "=O";
rightMetricsKey = "=O";
name = Regular;
paths = (
{
closed = 1;
nodes = (
"218 723 OFFCURVE",
"50 548 OFFCURVE",
"50 335 CURVE SMOOTH",
"50 122 OFFCURVE",
"218 -53 OFFCURVE",
"442 -53 CURVE SMOOTH",
"666 -53 OFFCURVE",
"834 122 OFFCURVE",
"834 335 CURVE SMOOTH",
"834 548 OFFCURVE",
"666 723 OFFCURVE",
"442 723 CURVE SMOOTH"
);
},
{
closed = 1;
nodes = (
"627 649 OFFCURVE",
"751 520 OFFCURVE",
"751 335 CURVE SMOOTH",
"751 150 OFFCURVE",
"627 21 OFFCURVE",
"442 21 CURVE SMOOTH",
"257 21 OFFCURVE",
"133 150 OFFCURVE",
"133 335 CURVE SMOOTH",
"133 520 OFFCURVE",
"257 649 OFFCURVE",
"442 649 CURVE SMOOTH"
);
}
);
width = 884;
},
{
components = (
{
name = c;
transform = "{0.812, 0, 0, 0.812, 209, 131}";
}
);
layerId = "2D992F1A-8218-4049-8E15-5955C72037C9";
name = Bold;
paths = (
{
closed = 1;
nodes = (
"208 723 OFFCURVE",
"40 548 OFFCURVE",
"40 335 CURVE SMOOTH",
"40 122 OFFCURVE",
"208 -53 OFFCURVE",
"432 -53 CURVE SMOOTH",
"656 -53 OFFCURVE",
"824 122 OFFCURVE",
"824 335 CURVE SMOOTH",
"824 548 OFFCURVE",
"656 723 OFFCURVE",
"432 723 CURVE SMOOTH"
);
},
{
closed = 1;
nodes = (
"600 620 OFFCURVE",
"713 503 OFFCURVE",
"713 335 CURVE SMOOTH",
"713 167 OFFCURVE",
"600 50 OFFCURVE",
"432 50 CURVE SMOOTH",
"264 50 OFFCURVE",
"151 167 OFFCURVE",
"151 335 CURVE SMOOTH",
"151 503 OFFCURVE",
"264 620 OFFCURVE",
"432 620 CURVE SMOOTH"
);
}
);
width = 864;
}
);
leftMetricsKey = "=O";
rightMetricsKey = "=O";
unicode = 00A9;
},
{
glyphname = registered;
lastChange = "2015-07-09 03:01:27 +0000";
layers = (
{
components = (
{
name = R;
transform = "{0.593, 0, 0, 0.593, 253, 136}";
}
);
layerId = "DEFEBCF2-9FF2-4B76-ADC8-AB6BD79F23E7";
leftMetricsKey = "=O";
rightMetricsKey = "=O";
name = Regular;
paths = (
{
closed = 1;
nodes = (
"218 723 OFFCURVE",
"50 548 OFFCURVE",
"50 335 CURVE SMOOTH",
"50 122 OFFCURVE",
"218 -53 OFFCURVE",
"442 -53 CURVE SMOOTH",
"666 -53 OFFCURVE",
"834 122 OFFCURVE",
"834 335 CURVE SMOOTH",
"834 548 OFFCURVE",
"666 723 OFFCURVE",
"442 723 CURVE SMOOTH"
);
},
{
closed = 1;
nodes = (
"627 649 OFFCURVE",
"751 520 OFFCURVE",
"751 335 CURVE SMOOTH",
"751 150 OFFCURVE",
"627 21 OFFCURVE",
"442 21 CURVE SMOOTH",
"257 21 OFFCURVE",
"133 150 OFFCURVE",
"133 335 CURVE SMOOTH",
"133 520 OFFCURVE",
"257 649 OFFCURVE",
"442 649 CURVE SMOOTH"
);
}
);
width = 884;
},
{
components = (
{
name = R;
transform = "{0.593, 0, 0, 0.593, 243, 136}";
}
);
layerId = "2D992F1A-8218-4049-8E15-5955C72037C9";
name = Bold;
paths = (
{
closed = 1;
nodes = (
"208 723 OFFCURVE",
"40 548 OFFCURVE",
"40 335 CURVE SMOOTH",
"40 122 OFFCURVE",
"208 -53 OFFCURVE",
"432 -53 CURVE SMOOTH",
"656 -53 OFFCURVE",
"824 122 OFFCURVE",
"824 335 CURVE SMOOTH",
"824 548 OFFCURVE",
"656 723 OFFCURVE",
"432 723 CURVE SMOOTH"
);
},
{
closed = 1;
nodes = (
"600 620 OFFCURVE",
"713 503 OFFCURVE",
"713 335 CURVE SMOOTH",
"713 167 OFFCURVE",
"600 50 OFFCURVE",
"432 50 CURVE SMOOTH",
"264 50 OFFCURVE",
"151 167 OFFCURVE",
"151 335 CURVE SMOOTH",
"151 503 OFFCURVE",
"264 620 OFFCURVE",
"432 620 CURVE SMOOTH"
);
}
);
width = 864;
}
);
leftMetricsKey = "=O";
rightMetricsKey = "=O";
unicode = 00AE;
},
{
glyphname = section;
lastChange = "2015-07-09 03:01:27 +0000";
layers = (
{
background = {
paths = (
{
closed = 1;
nodes = (
"446 -151 OFFCURVE",
"372 -120 OFFCURVE",
"282 -89 CURVE SMOOTH",
"212 -66 OFFCURVE",
"154 -36 OFFCURVE",
"154 7 CURVE SMOOTH",
"154 68 OFFCURVE",
"209 91 OFFCURVE",
"270 91 CURVE SMOOTH",
"347 91 OFFCURVE",
"394 58 OFFCURVE",
"424 41 CURVE",
"424 125 LINE",
"386 151 OFFCURVE",
"334 168 OFFCURVE",
"270 168 CURVE SMOOTH",
"172 168 OFFCURVE",
"72 123 OFFCURVE",
"72 11 CURVE SMOOTH",
"72 -81 OFFCURVE",
"145 -118 OFFCURVE",
"222 -146 CURVE SMOOTH",
"314 -180 OFFCURVE",
"364 -199 OFFCURVE",
"364 -243 CURVE SMOOTH",
"364 -304 OFFCURVE",
"310 -323 OFFCURVE",
"248 -323 CURVE SMOOTH",
"173 -323 OFFCURVE",
"97 -285 OFFCURVE",
"73 -269 CURVE",
"73 -354 LINE",
"121 -380 OFFCURVE",
"184 -400 OFFCURVE",
"248 -400 CURVE SMOOTH",
"350 -400 OFFCURVE",
"446 -351 OFFCURVE",
"446 -243 CURVE SMOOTH"
);
}
);
};
layerId = "DEFEBCF2-9FF2-4B76-ADC8-AB6BD79F23E7";
leftMetricsKey = "=S";
rightMetricsKey = "=S";
name = Regular;
paths = (
{
closed = 1;
nodes = (
"132 398 LINE",
"82 363 OFFCURVE",
"50 312 OFFCURVE",
"50 252 CURVE SMOOTH",
"50 177 OFFCURVE",
"78 121 OFFCURVE",
"174 78 CURVE SMOOTH",
"285 28 LINE SMOOTH",
"326 10 OFFCURVE",
"381 -18 OFFCURVE",
"381 -68 CURVE SMOOTH",
"381 -127 OFFCURVE",
"322 -162 OFFCURVE",
"255 -162 CURVE SMOOTH",
"170 -162 OFFCURVE",
"103 -128 OFFCURVE",
"51 -92 CURVE",
"51 -185 LINE",
"99 -219 OFFCURVE",
"166 -250 OFFCURVE",
"243 -250 CURVE SMOOTH",
"366 -250 OFFCURVE",
"473 -173 OFFCURVE",
"473 -64 CURVE SMOOTH",
"473 20 OFFCURVE",
"426 64 OFFCURVE",
"334 106 CURVE SMOOTH",
"242 148 LINE SMOOTH",
"187 173 OFFCURVE",
"143 195 OFFCURVE",
"143 249 CURVE SMOOTH",
"143 294 OFFCURVE",
"174 323 OFFCURVE",
"211 338 CURVE"
);
},
{
closed = 1;
nodes = (
"378 25 LINE",
"435 58 OFFCURVE",
"473 111 OFFCURVE",
"473 176 CURVE SMOOTH",
"473 260 OFFCURVE",
"426 304 OFFCURVE",
"334 346 CURVE SMOOTH",
"242 388 LINE SMOOTH",
"187 413 OFFCURVE",
"143 435 OFFCURVE",
"143 489 CURVE SMOOTH",
"143 561 OFFCURVE",
"221 592 OFFCURVE",
"282 592 CURVE SMOOTH",
"344 592 OFFCURVE",
"399 562 OFFCURVE",
"437 534 CURVE",
"437 627 LINE",
"398 652 OFFCURVE",
"351 680 OFFCURVE",
"272 680 CURVE SMOOTH",
"153 680 OFFCURVE",
"50 598 OFFCURVE",
"50 492 CURVE SMOOTH",
"50 417 OFFCURVE",
"78 361 OFFCURVE",
"174 318 CURVE SMOOTH",
"285 268 LINE SMOOTH",
"326 250 OFFCURVE",
"381 222 OFFCURVE",
"381 172 CURVE SMOOTH",
"381 125 OFFCURVE",
"344 94 OFFCURVE",
"296 83 CURVE"
);
}
);
width = 523;
},
{
layerId = "2D992F1A-8218-4049-8E15-5955C72037C9";
name = Bold;
paths = (
{
closed = 1;
nodes = (
"127 380 LINE",
"91 357 OFFCURVE",
"40 322 OFFCURVE",
"40 247 CURVE SMOOTH",
"40 166 OFFCURVE",
"69 96 OFFCURVE",
"182 60 CURVE SMOOTH",
"277 30 LINE SMOOTH",
"313 19 OFFCURVE",
"336 5 OFFCURVE",
"336 -15 CURVE SMOOTH",
"336 -43 OFFCURVE",
"304 -53 OFFCURVE",
"258 -53 CURVE SMOOTH",
"183 -53 OFFCURVE",
"107 -19 OFFCURVE",
"43 29 CURVE",
"43 -152 LINE",
"102 -194 OFFCURVE",
"185 -225 OFFCURVE",
"265 -225 CURVE SMOOTH",
"420 -225 OFFCURVE",
"543 -133 OFFCURVE",
"543 -5 CURVE SMOOTH",
"543 59 OFFCURVE",
"506 111 OFFCURVE",
"409 147 CURVE SMOOTH",
"337 174 LINE SMOOTH",
"284 194 OFFCURVE",
"237 212 OFFCURVE",
"237 245 CURVE SMOOTH",
"237 270 OFFCURVE",
"261 298 OFFCURVE",
"294 302 CURVE"
);
},
{
closed = 1;
nodes = (
"465 65 LINE",
"515 102 OFFCURVE",
"543 144 OFFCURVE",
"543 215 CURVE SMOOTH",
"543 279 OFFCURVE",
"506 340 OFFCURVE",
"409 377 CURVE SMOOTH",
"337 404 LINE SMOOTH",
"281 425 OFFCURVE",
"237 437 OFFCURVE",
"237 470 CURVE SMOOTH",
"237 501 OFFCURVE",
"274 513 OFFCURVE",
"318 513 CURVE SMOOTH",
"394 513 OFFCURVE",
"445 484 OFFCURVE",
"502 451 CURVE",
"502 632 LINE",
"455 664 OFFCURVE",
"371 685 OFFCURVE",
"293 685 CURVE SMOOTH",
"162 685 OFFCURVE",
"40 608 OFFCURVE",
"40 467 CURVE SMOOTH",
"40 386 OFFCURVE",
"69 330 OFFCURVE",
"182 290 CURVE SMOOTH",
"277 256 LINE SMOOTH",
"313 243 OFFCURVE",
"336 225 OFFCURVE",
"336 195 CURVE SMOOTH",
"336 175 OFFCURVE",
"320 165 OFFCURVE",
"295 160 CURVE"
);
}
);
width = 573;
}
);
leftMetricsKey = "=S";
rightMetricsKey = "=S";
unicode = 00A7;
},
{
glyphname = trademark;
lastChange = "2015-06-14 21:25:58 +0000";
layers = (
{
layerId = "DEFEBCF2-9FF2-4B76-ADC8-AB6BD79F23E7";
name = Regular;
paths = (
{
closed = 1;
nodes = (
"445 670 LINE",
"367 563 LINE",
"286 670 LINE",
"259 670 LINE",
"259 467 LINE",
"312 467 LINE",
"312 565 LINE",
"358 501 LINE",
"376 501 LINE",
"418 565 LINE",
"418 467 LINE",
"471 467 LINE",
"471 670 LINE"
);
},
{
closed = 1;
nodes = (
"109 670 LINE",
"109 467 LINE",
"161 467 LINE",
"161 670 LINE"
);
},
{
closed = 1;
nodes = (
"40 671 LINE",
"40 629 LINE",
"230 629 LINE",
"230 671 LINE"
);
}
);
width = 511;
},
{
layerId = "2D992F1A-8218-4049-8E15-5955C72037C9";
name = Bold;
paths = (
{
closed = 1;
nodes = (
"465 670 LINE",
"397 573 LINE",
"326 670 LINE",
"279 670 LINE",
"279 467 LINE",
"352 467 LINE",
"352 537 LINE",
"388 501 LINE",
"406 501 LINE",
"438 537 LINE",
"438 467 LINE",
"511 467 LINE",
"511 670 LINE"
);
},
{
closed = 1;
nodes = (
"109 670 LINE",
"109 467 LINE",
"181 467 LINE",
"181 670 LINE"
);
},
{
closed = 1;
nodes = (
"40 671 LINE",
"40 609 LINE",
"250 609 LINE",
"250 671 LINE"
);
}
);
width = 551;
}
);
unicode = 2122;
},
{
glyphname = degree;
lastChange = "2015-07-09 03:01:27 +0000";
layers = (
{
layerId = "DEFEBCF2-9FF2-4B76-ADC8-AB6BD79F23E7";
leftMetricsKey = "=o";
rightMetricsKey = "=o";
name = Regular;
paths = (
{
closed = 1;
nodes = (
"122 685 OFFCURVE",
"50 606 OFFCURVE",
"50 513 CURVE SMOOTH",
"50 418 OFFCURVE",
"122 340 OFFCURVE",
"222 340 CURVE SMOOTH",
"322 340 OFFCURVE",
"393 418 OFFCURVE",
"393 513 CURVE SMOOTH",
"393 606 OFFCURVE",
"322 685 OFFCURVE",
"222 685 CURVE SMOOTH"
);
},
{
closed = 1;
nodes = (
"274 608 OFFCURVE",
"315 563 OFFCURVE",
"315 513 CURVE SMOOTH",
"315 460 OFFCURVE",
"274 416 OFFCURVE",
"222 416 CURVE SMOOTH",
"169 416 OFFCURVE",
"128 460 OFFCURVE",
"128 513 CURVE SMOOTH",
"128 563 OFFCURVE",
"169 608 OFFCURVE",
"222 608 CURVE SMOOTH"
);
}
);
width = 443;
},
{
layerId = "2D992F1A-8218-4049-8E15-5955C72037C9";
leftMetricsKey = "=o";
rightMetricsKey = "=o";
name = Bold;
paths = (
{
closed = 1;
nodes = (
"107 685 OFFCURVE",
"35 606 OFFCURVE",
"35 513 CURVE SMOOTH",
"35 418 OFFCURVE",
"107 340 OFFCURVE",
"207 340 CURVE SMOOTH",
"307 340 OFFCURVE",
"378 418 OFFCURVE",
"378 513 CURVE SMOOTH",
"378 606 OFFCURVE",
"307 685 OFFCURVE",
"207 685 CURVE SMOOTH"
);
},
{
closed = 1;
nodes = (
"235 565 OFFCURVE",
"258 540 OFFCURVE",
"258 513 CURVE SMOOTH",
"258 483 OFFCURVE",
"235 459 OFFCURVE",
"207 459 CURVE SMOOTH",
"178 459 OFFCURVE",
"155 483 OFFCURVE",
"155 513 CURVE SMOOTH",
"155 540 OFFCURVE",
"178 565 OFFCURVE",
"207 565 CURVE SMOOTH"
);
}
);
width = 413;
}
);
leftMetricsKey = "=o";
rightMetricsKey = "=o";
unicode = 00B0;
},
{
glyphname = asciicircum;
lastChange = "2015-06-13 06:23:20 +0000";
layers = (
{
layerId = "DEFEBCF2-9FF2-4B76-ADC8-AB6BD79F23E7";
name = Regular;
paths = (
{
closed = 1;
nodes = (
"271 670 LINE",
"60 310 LINE",
"148 310 LINE",
"295 578 LINE",
"455 310 LINE",
"543 310 LINE",
"322 670 LINE"
);
}
);
width = 603;
},
{
layerId = "2D992F1A-8218-4049-8E15-5955C72037C9";
name = Bold;
paths = (
{
closed = 1;
nodes = (
"251 670 LINE",
"40 330 LINE",
"208 330 LINE",
"295 478 LINE",
"395 330 LINE",
"563 330 LINE",
"342 670 LINE"
);
}
);
width = 600;
}
);
unicode = 005E;
},
{
glyphname = dagger;
lastChange = "2015-06-13 06:23:35 +0000";
layers = (
{
layerId = "DEFEBCF2-9FF2-4B76-ADC8-AB6BD79F23E7";
name = Regular;
paths = (
{
closed = 1;
nodes = (
"173 670 LINE",
"173 -100 LINE",
"270 -100 LINE",
"270 670 LINE"
);
},
{
closed = 1;
nodes = (
"40 520 LINE",
"40 440 LINE",
"403 440 LINE",
"403 520 LINE"
);
}
);
width = 443;
},
{
layerId = "2D992F1A-8218-4049-8E15-5955C72037C9";
name = Bold;
paths = (
{
closed = 1;
nodes = (
"153 670 LINE",
"153 -100 LINE",
"310 -100 LINE",
"310 670 LINE"
);
},
{
closed = 1;
nodes = (
"40 520 LINE",
"40 380 LINE",
"423 380 LINE",
"423 520 LINE"
);
}
);
width = 463;
}
);
unicode = 2020;
},
{
glyphname = daggerdbl;
lastChange = "2015-06-13 06:24:01 +0000";
layers = (
{
layerId = "DEFEBCF2-9FF2-4B76-ADC8-AB6BD79F23E7";
name = Regular;
paths = (
{
closed = 1;
nodes = (
"173 670 LINE",
"173 -100 LINE",
"270 -100 LINE",
"270 670 LINE"
);
},
{
closed = 1;
nodes = (
"40 520 LINE",
"40 440 LINE",
"403 440 LINE",
"403 520 LINE"
);
},
{
closed = 1;
nodes = (
"40 265 LINE",
"40 185 LINE",
"403 185 LINE",
"403 265 LINE"
);
}
);
width = 600;
},
{
layerId = "2D992F1A-8218-4049-8E15-5955C72037C9";
name = Bold;
paths = (
{
closed = 1;
nodes = (
"153 670 LINE",
"153 -100 LINE",
"310 -100 LINE",
"310 670 LINE"
);
},
{
closed = 1;
nodes = (
"40 520 LINE",
"40 380 LINE",
"423 380 LINE",
"423 520 LINE"
);
},
{
closed = 1;
nodes = (
"40 245 LINE",
"40 105 LINE",
"423 105 LINE",
"423 245 LINE"
);
}
);
width = 600;
}
);
unicode = 2021;
},
{
glyphname = commaaccent;
lastChange = "2015-06-14 21:12:32 +0000";
layers = (
{
anchors = (
{
name = _bottom;
position = "{152, 0}";
}
);
layerId = "2D992F1A-8218-4049-8E15-5955C72037C9";
name = Bold;
paths = (
{
closed = 1;
nodes = (
"115 -101 LINE",
"130 -101 OFFCURVE",
"142 -108 OFFCURVE",
"142 -120 CURVE SMOOTH",
"142 -132 OFFCURVE",
"131 -138 OFFCURVE",
"116 -138 CURVE SMOOTH",
"100 -138 OFFCURVE",
"85 -134 OFFCURVE",
"69 -123 CURVE",
"69 -207 LINE",
"82 -216 OFFCURVE",
"100 -225 OFFCURVE",
"122 -225 CURVE SMOOTH",
"175 -225 OFFCURVE",
"225 -190 OFFCURVE",
"225 -119 CURVE SMOOTH",
"225 -54 OFFCURVE",
"172 -22 OFFCURVE",
"115 -22 CURVE"
);
}
);
width = 285;
},
{
anchors = (
{
name = _bottom;
position = "{152, 0}";
}
);
layerId = "DEFEBCF2-9FF2-4B76-ADC8-AB6BD79F23E7";
name = Regular;
paths = (
{
closed = 1;
nodes = (
"118 -70 LINE",
"143 -70 OFFCURVE",
"172 -88 OFFCURVE",
"172 -119 CURVE SMOOTH",
"172 -151 OFFCURVE",
"150 -173 OFFCURVE",
"114 -173 CURVE SMOOTH",
"94 -173 OFFCURVE",
"76 -168 OFFCURVE",
"60 -155 CURVE",
"60 -207 LINE",
"73 -216 OFFCURVE",
"94 -225 OFFCURVE",
"122 -225 CURVE SMOOTH",
"167 -225 OFFCURVE",
"225 -187 OFFCURVE",
"225 -116 CURVE SMOOTH",
"225 -60 OFFCURVE",
"175 -22 OFFCURVE",
"118 -22 CURVE"
);
}
);
width = 285;
}
);
unicode = 0326;
},
{
glyphname = acute;
lastChange = "2015-06-16 12:00:43 +0000";
layers = (
{
anchors = (
{
name = _top;
position = "{122, 500}";
}
);
layerId = "DEFEBCF2-9FF2-4B76-ADC8-AB6BD79F23E7";
name = Regular;
paths = (
{
closed = 1;
nodes = (
"180 720 LINE",
"70 585 LINE",
"152 585 LINE",
"294 720 LINE"
);
}
);
width = 314;
},
{
anchors = (
{
name = _top;
position = "{164, 510}";
}
);
layerId = "2D992F1A-8218-4049-8E15-5955C72037C9";
name = Bold;
paths = (
{
closed = 1;
nodes = (
"180 710 LINE",
"80 560 LINE",
"202 560 LINE",
"334 710 LINE"
);
}
);
width = 364;
}
);
unicode = 00B4;
},
{
glyphname = breve;
lastChange = "2015-06-16 11:58:33 +0000";
layers = (
{
anchors = (
{
name = _top;
position = "{242, 500}";
}
);
layerId = "DEFEBCF2-9FF2-4B76-ADC8-AB6BD79F23E7";
name = Regular;
paths = (
{
closed = 1;
nodes = (
"332 720 LINE",
"326 672 OFFCURVE",
"295 638 OFFCURVE",
"242 638 CURVE SMOOTH",
"189 638 OFFCURVE",
"158 672 OFFCURVE",
"152 720 CURVE",
"80 720 LINE",
"83 628 OFFCURVE",
"152 570 OFFCURVE",
"242 570 CURVE SMOOTH",
"332 570 OFFCURVE",
"401 628 OFFCURVE",
"404 720 CURVE"
);
}
);
width = 484;
},
{
anchors = (
{
name = _top;
position = "{242, 510}";
}
);
layerId = "2D992F1A-8218-4049-8E15-5955C72037C9";
name = Bold;
paths = (
{
closed = 1;
nodes = (
"302 710 LINE",
"296 692 OFFCURVE",
"275 668 OFFCURVE",
"242 668 CURVE SMOOTH",
"209 668 OFFCURVE",
"188 682 OFFCURVE",
"182 710 CURVE",
"80 710 LINE",
"83 618 OFFCURVE",
"152 560 OFFCURVE",
"242 560 CURVE SMOOTH",
"332 560 OFFCURVE",
"401 618 OFFCURVE",
"404 710 CURVE"
);
}
);
width = 484;
}
);
unicode = 02D8;
},
{
glyphname = caron;
lastChange = "2015-06-16 12:02:09 +0000";
layers = (
{
anchors = (
{
name = _top;
position = "{242, 500}";
}
);
layerId = "DEFEBCF2-9FF2-4B76-ADC8-AB6BD79F23E7";
name = Regular;
paths = (
{
closed = 1;
nodes = (
"220 581 LINE",
"264 581 LINE",
"404 720 LINE",
"322 720 LINE",
"242 642 LINE",
"162 720 LINE",
"80 720 LINE"
);
}
);
width = 484;
},
{
anchors = (
{
name = _top;
position = "{232, 510}";
}
);
layerId = "2D992F1A-8218-4049-8E15-5955C72037C9";
name = Bold;
paths = (
{
closed = 1;
nodes = (
"180 560 LINE",
"284 560 LINE",
"404 710 LINE",
"272 710 LINE",
"232 651 LINE",
"192 710 LINE",
"60 710 LINE"
);
}
);
width = 464;
}
);
unicode = 02C7;
},
{
glyphname = cedilla;
lastChange = "2015-06-16 04:15:40 +0000";
layers = (
{
anchors = (
{
name = _bottom;
position = "{157, 0}";
}
);
layerId = "DEFEBCF2-9FF2-4B76-ADC8-AB6BD79F23E7";
name = Regular;
paths = (
{
closed = 1;
nodes = (
"129 2 LINE",
"115 -118 LINE",
"131 -130 LINE",
"144 -123 OFFCURVE",
"156 -121 OFFCURVE",
"166 -121 CURVE SMOOTH",
"191 -121 OFFCURVE",
"205 -132 OFFCURVE",
"205 -150 CURVE SMOOTH",
"205 -168 OFFCURVE",
"189 -181 OFFCURVE",
"166 -181 CURVE SMOOTH",
"137 -181 OFFCURVE",
"113 -171 OFFCURVE",
"92 -160 CURVE",
"85 -215 LINE",
"106 -232 OFFCURVE",
"143 -240 OFFCURVE",
"163 -240 CURVE SMOOTH",
"232 -240 OFFCURVE",
"273 -200 OFFCURVE",
"273 -147 CURVE SMOOTH",
"273 -98 OFFCURVE",
"232 -63 OFFCURVE",
"177 -70 CURVE",
"183 2 LINE"
);
}
);
width = 353;
},
{
anchors = (
{
name = _bottom;
position = "{178, 0}";
}
);
layerId = "2D992F1A-8218-4049-8E15-5955C72037C9";
name = Bold;
paths = (
{
closed = 1;
nodes = (
"117 2 LINE",
"105 -114 LINE",
"129 -126 LINE",
"142 -119 OFFCURVE",
"149 -117 OFFCURVE",
"159 -117 CURVE SMOOTH",
"174 -117 OFFCURVE",
"189 -125 OFFCURVE",
"189 -141 CURVE SMOOTH",
"189 -159 OFFCURVE",
"170 -167 OFFCURVE",
"157 -167 CURVE SMOOTH",
"128 -167 OFFCURVE",
"108 -152 OFFCURVE",
"87 -141 CURVE",
"80 -215 LINE",
"101 -232 OFFCURVE",
"140 -240 OFFCURVE",
"160 -240 CURVE SMOOTH",
"229 -240 OFFCURVE",
"278 -199 OFFCURVE",
"278 -131 CURVE SMOOTH",
"278 -82 OFFCURVE",
"242 -44 OFFCURVE",
"188 -46 CURVE",
"191 2 LINE"
);
}
);
width = 348;
}
);
unicode = 00B8;
},
{
glyphname = circumflex;
lastChange = "2015-06-16 12:02:30 +0000";
layers = (
{
anchors = (
{
name = _top;
position = "{242, 500}";
}
);
layerId = "DEFEBCF2-9FF2-4B76-ADC8-AB6BD79F23E7";
name = Regular;
paths = (
{
closed = 1;
nodes = (
"220 720 LINE",
"80 581 LINE",
"162 581 LINE",
"242 659 LINE",
"322 581 LINE",
"404 581 LINE",
"264 720 LINE"
);
}
);
width = 484;
},
{
anchors = (
{
name = _top;
position = "{252, 510}";
}
);
layerId = "2D992F1A-8218-4049-8E15-5955C72037C9";
name = Bold;
paths = (
{
closed = 1;
nodes = (
"200 710 LINE",
"80 560 LINE",
"212 560 LINE",
"252 619 LINE",
"292 560 LINE",
"424 560 LINE",
"304 710 LINE"
);
}
);
width = 504;
}
);
unicode = 02C6;
},
{
glyphname = dotaccent;
lastChange = "2015-06-16 11:56:53 +0000";
layers = (
{
anchors = (
{
name = _top;
position = "{150, 500}";
}
);
layerId = "DEFEBCF2-9FF2-4B76-ADC8-AB6BD79F23E7";
name = Regular;
paths = (
{
closed = 1;
nodes = (
"115 720 OFFCURVE",
"87 692 OFFCURVE",
"87 657 CURVE SMOOTH",
"87 623 OFFCURVE",
"115 594 OFFCURVE",
"150 594 CURVE",
"184 594 OFFCURVE",
"213 623 OFFCURVE",
"213 657 CURVE SMOOTH",
"213 692 OFFCURVE",
"184 720 OFFCURVE",
"150 720 CURVE SMOOTH"
);
}
);
width = 300;
},
{
anchors = (
{
name = _top;
position = "{156, 510}";
}
);
layerId = "2D992F1A-8218-4049-8E15-5955C72037C9";
name = Bold;
paths = (
{
closed = 1;
nodes = (
"114 710 OFFCURVE",
"80 676 OFFCURVE",
"80 634 CURVE SMOOTH",
"80 593 OFFCURVE",
"114 558 OFFCURVE",
"156 558 CURVE",
"197 558 OFFCURVE",
"232 593 OFFCURVE",
"232 634 CURVE SMOOTH",
"232 676 OFFCURVE",
"197 710 OFFCURVE",
"156 710 CURVE SMOOTH"
);
}
);
width = 312;
}
);
unicode = 02D9;
},
{
glyphname = grave;
lastChange = "2015-06-16 12:01:45 +0000";
layers = (
{
anchors = (
{
name = _top;
position = "{198, 500}";
}
);
layerId = "DEFEBCF2-9FF2-4B76-ADC8-AB6BD79F23E7";
name = Regular;
paths = (
{
closed = 1;
nodes = (
"161 585 LINE",
"243 585 LINE",
"133 720 LINE",
"19 720 LINE"
);
}
);
width = 314;
},
{
anchors = (
{
name = _top;
position = "{270, 510}";
}
);
layerId = "2D992F1A-8218-4049-8E15-5955C72037C9";
name = Bold;
paths = (
{
closed = 1;
nodes = (
"80 710 LINE",
"212 560 LINE",
"334 560 LINE",
"234 710 LINE"
);
}
);
width = 414;
}
);
unicode = 0060;
},
{
glyphname = macron;
lastChange = "2015-06-16 11:57:08 +0000";
layers = (
{
anchors = (
{
name = _top;
position = "{265, 500}";
}
);
layerId = "DEFEBCF2-9FF2-4B76-ADC8-AB6BD79F23E7";
name = Regular;
paths = (
{
closed = 1;
nodes = (
"90 718 LINE",
"90 638 LINE",
"440 638 LINE",
"440 718 LINE"
);
}
);
width = 530;
},
{
anchors = (
{
name = _top;
position = "{285, 510}";
}
);
layerId = "2D992F1A-8218-4049-8E15-5955C72037C9";
name = Bold;
paths = (
{
closed = 1;
nodes = (
"100 710 LINE",
"100 600 LINE",
"470 600 LINE",
"470 710 LINE"
);
}
);
width = 570;
}
);
unicode = 00AF;
},
{
glyphname = ogonek;
lastChange = "2015-06-14 20:52:34 +0000";
layers = (
{
anchors = (
{
name = _ogonek;
position = "{390, 10}";
}
);
layerId = "2D992F1A-8218-4049-8E15-5955C72037C9";
name = Bold;
paths = (
{
closed = 1;
nodes = (
"193 -13 OFFCURVE",
"133 -56 OFFCURVE",
"133 -126 CURVE SMOOTH",
"133 -192 OFFCURVE",
"200 -225 OFFCURVE",
"260 -225 CURVE SMOOTH",
"316 -225 OFFCURVE",
"360 -210 OFFCURVE",
"374 -203 CURVE",
"374 -90 LINE",
"359 -100 OFFCURVE",
"343 -108 OFFCURVE",
"320 -108 CURVE SMOOTH",
"299 -108 OFFCURVE",
"284 -94 OFFCURVE",
"284 -73 CURVE SMOOTH",
"284 -51 OFFCURVE",
"331 -13 OFFCURVE",
"390 1 CURVE",
"250 1 LINE"
);
}
);
width = 600;
},
{
anchors = (
{
name = _ogonek;
position = "{379, 10}";
}
);
layerId = "DEFEBCF2-9FF2-4B76-ADC8-AB6BD79F23E7";
name = Regular;
paths = (
{
closed = 1;
nodes = (
"257 -12 OFFCURVE",
"183 -56 OFFCURVE",
"183 -126 CURVE SMOOTH",
"183 -192 OFFCURVE",
"240 -225 OFFCURVE",
"300 -225 CURVE SMOOTH",
"336 -225 OFFCURVE",
"360 -207 OFFCURVE",
"374 -200 CURVE",
"374 -131 LINE",
"359 -141 OFFCURVE",
"343 -149 OFFCURVE",
"320 -149 CURVE SMOOTH",
"285 -149 OFFCURVE",
"267 -126 OFFCURVE",
"267 -98 CURVE SMOOTH",
"267 -54 OFFCURVE",
"327 -18 OFFCURVE",
"374 1 CURVE",
"294 1 LINE"
);
}
);
width = 600;
}
);
unicode = 02DB;
},
{
glyphname = ring;
lastChange = "2015-06-14 05:43:52 +0000";
layers = (
{
anchors = (
{
name = _top;
position = "{163, 500}";
}
);
layerId = "DEFEBCF2-9FF2-4B76-ADC8-AB6BD79F23E7";
name = Regular;
paths = (
{
closed = 1;
nodes = (
"115 725 OFFCURVE",
"80 687 OFFCURVE",
"80 642 CURVE SMOOTH",
"80 597 OFFCURVE",
"115 559 OFFCURVE",
"163 559 CURVE SMOOTH",
"211 559 OFFCURVE",
"245 597 OFFCURVE",
"245 642 CURVE SMOOTH",
"245 687 OFFCURVE",
"211 725 OFFCURVE",
"163 725 CURVE SMOOTH"
);
},
{
closed = 1;
nodes = (
"185 684 OFFCURVE",
"203 664 OFFCURVE",
"203 642 CURVE SMOOTH",
"203 619 OFFCURVE",
"185 600 OFFCURVE",
"163 600 CURVE SMOOTH",
"140 600 OFFCURVE",
"122 619 OFFCURVE",
"122 642 CURVE SMOOTH",
"122 664 OFFCURVE",
"140 684 OFFCURVE",
"163 684 CURVE SMOOTH"
);
}
);
width = 325;
},
{
anchors = (
{
name = _top;
position = "{171, 510}";
}
);
layerId = "2D992F1A-8218-4049-8E15-5955C72037C9";
name = Bold;
paths = (
{
closed = 1;
nodes = (
"118 733 OFFCURVE",
"74 693 OFFCURVE",
"74 642 CURVE SMOOTH",
"74 591 OFFCURVE",
"118 551 OFFCURVE",
"171 551 CURVE SMOOTH",
"224 551 OFFCURVE",
"267 591 OFFCURVE",
"267 642 CURVE SMOOTH",
"267 693 OFFCURVE",
"224 733 OFFCURVE",
"171 733 CURVE SMOOTH"
);
},
{
closed = 1;
nodes = (
"191 678 OFFCURVE",
"209 662 OFFCURVE",
"209 642 CURVE SMOOTH",
"209 621 OFFCURVE",
"191 606 OFFCURVE",
"171 606 CURVE SMOOTH",
"150 606 OFFCURVE",
"132 621 OFFCURVE",
"132 642 CURVE SMOOTH",
"132 662 OFFCURVE",
"150 678 OFFCURVE",
"171 678 CURVE SMOOTH"
);
}
);
width = 341;
}
);
unicode = 02DA;
},
{
glyphname = tilde;
lastChange = "2015-06-16 12:01:02 +0000";
layers = (
{
anchors = (
{
name = _top;
position = "{236, 516}";
}
);
layerId = "DEFEBCF2-9FF2-4B76-ADC8-AB6BD79F23E7";
name = Regular;
paths = (
{
closed = 1;
nodes = (
"342 720 LINE",
"342 695 OFFCURVE",
"330 674 OFFCURVE",
"306 674 CURVE SMOOTH",
"264 674 OFFCURVE",
"253 725 OFFCURVE",
"180 725 CURVE SMOOTH",
"120 725 OFFCURVE",
"76 680 OFFCURVE",
"76 622 CURVE",
"144 622 LINE",
"144 647 OFFCURVE",
"157 668 OFFCURVE",
"180 668 CURVE SMOOTH",
"222 668 OFFCURVE",
"233 617 OFFCURVE",
"306 617 CURVE SMOOTH",
"366 617 OFFCURVE",
"410 662 OFFCURVE",
"410 720 CURVE"
);
}
);
width = 470;
},
{
anchors = (
{
name = _top;
position = "{225, 510}";
}
);
layerId = "2D992F1A-8218-4049-8E15-5955C72037C9";
name = Bold;
paths = (
{
closed = 1;
nodes = (
"322 685 LINE",
"322 662 OFFCURVE",
"311 648 OFFCURVE",
"289 648 CURVE SMOOTH",
"261 648 OFFCURVE",
"238 689 OFFCURVE",
"172 689 CURVE SMOOTH",
"102 689 OFFCURVE",
"44 643 OFFCURVE",
"44 550 CURVE",
"138 550 LINE",
"138 573 OFFCURVE",
"150 587 OFFCURVE",
"171 587 CURVE SMOOTH",
"199 587 OFFCURVE",
"222 546 OFFCURVE",
"288 546 CURVE SMOOTH",
"358 546 OFFCURVE",
"416 592 OFFCURVE",
"416 685 CURVE"
);
}
);
width = 450;
}
);
unicode = 02DC;
},
